<svg width="45" height="21" viewBox="0 0 45 21" fill="none" xmlns="http://www.w3.org/2000/svg">
<path d="M1.44692 7.60342C6.83946 9.11422 12.4333 9.79016 18.0217 9.63632C23.6101 9.48248 29.1448 8.50193 34.423 6.73119C37.3868 5.73751 40.2482 4.48801 42.9869 2.9967L43.5058 4.7057C37.6731 4.73149 31.8352 3.91929 26.223 2.28964L27.0717 0.736074C30.8115 4.91463 33.6739 9.81279 35.4357 15.1009C35.9312 16.5884 36.3327 18.1002 36.647 19.6317L34.9356 19.4447C36.8794 14.4873 39.6255 9.88052 43.0278 5.77501C43.344 5.39068 44.0006 5.43277 44.3457 5.75732C44.7344 6.12638 44.6949 6.67294 44.377 7.06049C41.0801 11.0351 38.4571 15.5332 36.5762 20.3367C36.2899 21.0629 35.0175 20.8964 34.8647 20.1497C33.7938 14.9265 31.6496 9.95761 28.5689 5.56777C27.7125 4.34432 26.7829 3.17726 25.7835 2.06015C25.2193 1.42913 25.6795 0.229093 26.6322 0.50659C32.0974 2.0943 37.7541 2.89613 43.4369 2.87272C44.3346 2.8699 44.7953 4.12564 43.9558 4.58171C38.9253 7.32171 33.4647 9.28615 27.8198 10.3908C22.1749 11.4954 16.4092 11.7872 10.6827 11.2065C7.42344 10.8751 4.19695 10.2817 1.03569 9.39791C-0.117133 9.07475 0.292329 7.28348 1.44843 7.60842L1.44692 7.60342Z" fill="#DF2866"/>
</svg>
