<svg width="179" height="56" viewBox="0 0 179 56" fill="none" xmlns="http://www.w3.org/2000/svg">
<g clip-path="url(#clip0_5666_24796)">
<path d="M27.659 4.99168C40.229 4.99168 50.418 15.2697 50.418 27.9477C50.418 40.6267 40.228 50.9037 27.658 50.9037C15.089 50.9037 4.90002 40.6267 4.90002 27.9477C4.93002 15.2827 15.102 5.02168 27.659 4.99168ZM27.659 0.47168C12.601 0.47168 0.39502 12.7837 0.39502 27.9717C0.39502 43.1597 12.601 55.4717 27.659 55.4717C42.716 55.4717 54.923 43.1597 54.923 27.9717C54.923 12.7837 42.715 0.47168 27.659 0.47168Z" fill="white"/>
<path d="M11.4611 18.7495H26.9451V23.4995H16.8211V26.8155H25.9711V31.3045H16.8211V38.2785H11.4611V18.7495ZM28.0201 18.7495H37.1781C40.1381 18.7495 42.1781 19.5415 43.4571 20.8395C44.0386 21.4392 44.4912 22.1517 44.7868 22.9331C45.0825 23.7144 45.2149 24.548 45.1761 25.3825V25.4465C45.2741 28.1065 43.6751 30.5325 41.2041 31.4705L45.8271 38.2705H39.6351L35.7111 32.3565H33.3571V38.2715H28.0201V18.7495ZM36.9501 28.1215C38.7561 28.1215 39.8311 27.2275 39.8311 25.8025V25.7475C39.8311 24.1635 38.6931 23.3725 36.9271 23.3725H33.3571V28.1225H36.9511L36.9501 28.1215ZM65.4551 19.5965H73.8521V20.3885H66.3181V25.3195H73.0681V26.1115H66.3181V31.5575H65.4551V19.5965ZM75.5951 26.5945V19.5965H76.5201V26.5385C76.5201 29.3725 78.0351 31.0035 80.5541 31.0035C83.0741 31.0035 84.5251 29.5305 84.5251 26.6255V19.5955H85.4121V26.5225C85.4121 29.9745 83.4191 31.8105 80.5221 31.8105C77.6271 31.8105 75.5941 29.9905 75.5941 26.5945H75.5951ZM87.8761 19.5965H88.7161L96.9261 30.0615V19.5965H97.7811V31.6205H97.1131L88.7161 20.9345V31.6205H87.8611L87.8761 19.5965ZM100.488 19.5965H104.459C108.203 19.5965 110.793 22.1925 110.793 25.5725V25.6125C110.793 28.9925 108.203 31.6205 104.459 31.6205H100.489V19.5965H100.488ZM104.459 30.7975C107.779 30.7975 109.874 28.5095 109.874 25.6445C109.874 22.7865 107.779 20.4515 104.459 20.4515H101.375V30.7975H104.459ZM112.959 19.5965H117.966C119.198 19.5343 120.405 19.9609 121.325 20.7835C121.907 21.3808 122.231 22.1827 122.227 23.0165C122.227 25.0265 120.744 26.1825 118.735 26.4515L122.659 31.5895H121.536L117.738 26.6095H113.814V31.5895H112.927L112.959 19.5965ZM117.864 25.8025C119.857 25.8025 121.34 24.7895 121.34 23.0555V23.0155C121.34 21.4325 120.085 20.3885 117.918 20.3885H113.845V25.8025H117.864ZM128.961 19.5095H129.808L135.38 31.6205H134.407L132.892 28.2565H125.829L124.315 31.6205H123.395L128.96 19.5095H128.961ZM132.5 27.4255L129.36 20.4675L126.222 27.4255H132.5ZM137.154 19.5965H138.041V31.6205H137.154V19.5965ZM140.089 29.8715L140.662 29.1985C141.213 29.776 141.877 30.2331 142.613 30.541C143.349 30.849 144.141 31.001 144.939 30.9875C146.729 30.9875 147.953 29.9745 147.953 28.6125C147.953 27.3385 147.293 26.6025 144.586 26.0555C141.721 25.4705 140.56 24.4725 140.56 22.6675C140.56 20.8785 142.184 19.5015 144.398 19.5015C145.897 19.4531 147.359 19.9765 148.486 20.9655L147.921 21.6705C146.961 20.7561 145.684 20.2505 144.358 20.2605C142.608 20.2605 141.447 21.2745 141.447 22.5335C141.447 23.8075 142.098 24.5755 144.923 25.1615C147.749 25.7475 148.847 26.7445 148.847 28.4785C148.847 30.4255 147.199 31.7635 144.923 31.7635C144.032 31.7837 143.146 31.6269 142.316 31.3021C141.487 30.9773 140.73 30.4911 140.089 29.8715ZM151.021 19.5965H151.908V31.6205H151.021V19.5965ZM154.725 19.5965H155.557L163.782 30.0615V19.5965H164.637V31.6205H163.97L155.573 20.9345V31.6205H154.725V19.5965ZM166.772 25.6445C166.742 24.8439 166.872 24.0454 167.155 23.2955C167.437 22.5457 167.866 21.8597 168.416 21.2775C168.963 20.6984 169.622 20.2357 170.352 19.917C171.082 19.5982 171.869 19.4301 172.666 19.4225C174.27 19.3702 175.832 19.937 177.029 21.0055L176.449 21.6705C175.41 20.7022 174.03 20.1845 172.611 20.2305C169.715 20.2305 167.691 22.6995 167.691 25.6045V25.6445C167.691 28.7545 169.613 31.0745 172.799 31.0745C174.185 31.0607 175.525 30.575 176.598 29.6975V26.2145H172.611V25.3825H177.453V30.0225C176.156 31.1774 174.481 31.8189 172.744 31.8265C169.032 31.8265 166.772 29.0325 166.772 25.6445Z" fill="white"/>
<path d="M65.29 34.6447H71.395C72.1071 34.5958 72.8217 34.6913 73.496 34.9253C74.1703 35.1593 74.7904 35.5272 75.319 36.0067C75.7054 36.4194 76.0056 36.905 76.2021 37.435C76.3987 37.965 76.4878 38.5289 76.464 39.0937V39.1337C76.5072 40.0462 76.2506 40.9478 75.7335 41.7009C75.2164 42.454 74.4672 43.0172 73.6 43.3047L76.865 48.1257H73.38L70.516 43.8117H68.225V48.1257H65.29V34.6457V34.6447ZM71.207 41.1917C72.636 41.1917 73.46 40.3997 73.46 39.2837V39.2597C73.46 37.9857 72.58 37.3367 71.152 37.3367H68.225V41.2067L71.207 41.1917ZM78.129 34.6447H88.215V37.2807H81.05V40.0507H87.328V42.6957H81.05V45.5217H88.293V48.1257H78.09L78.129 34.6447ZM89.368 41.4217C89.3609 40.4975 89.5379 39.5811 89.8889 38.726C90.2398 37.871 90.7576 37.0944 91.412 36.4417C92.0628 35.7925 92.8378 35.2812 93.6908 34.9384C94.5437 34.5957 95.457 34.4284 96.376 34.4467C98.2995 34.3317 100.19 34.9836 101.634 36.2597L99.782 38.5157C99.3192 38.0679 98.7722 37.7163 98.1727 37.4811C97.5731 37.246 96.9329 37.132 96.289 37.1457C94.085 37.2457 92.372 39.1177 92.452 41.3417C92.4193 41.8948 92.5002 42.4487 92.6897 42.9693C92.8793 43.4899 93.1734 43.9661 93.554 44.3687C93.9324 44.7691 94.3896 45.0867 94.8968 45.3015C95.404 45.5163 95.9503 45.6236 96.501 45.6167C97.4847 45.6506 98.454 45.3734 99.271 44.8247V42.9247H96.313V40.3597H102.113V46.2177C100.534 47.5994 98.5055 48.3593 96.407 48.3557C92.217 48.3557 89.367 45.4107 89.367 41.4207L89.368 41.4217ZM103.761 42.3467V34.6447H106.704V42.2677C106.704 44.4607 107.787 45.6007 109.584 45.6007C111.381 45.6007 112.464 44.5007 112.464 42.3627V34.6447H115.407V42.2517C115.407 46.3287 113.139 48.3317 109.545 48.3317C105.95 48.3317 103.761 46.3127 103.761 42.3467ZM117.44 34.6447H120.383V45.4267H127.046V48.1257H117.44V34.6447ZM132.885 34.5107H135.592L141.322 48.0937H138.252L137.028 45.0697H131.378L130.153 48.0937H127.156L132.885 34.5107ZM135.977 42.4267L134.203 38.0567L132.429 42.4267H135.977ZM143.817 37.3757H139.752V34.6457H150.825V37.3757H146.76V48.1257H143.817V37.3757ZM150.951 41.4217C151.078 37.5547 154.222 34.4877 158.057 34.4877C161.892 34.4877 165.036 37.5547 165.163 41.4207C165.036 45.2867 161.892 48.3547 158.057 48.3547C154.222 48.3547 151.078 45.2867 150.951 41.4207V41.4217ZM162.087 41.4217C162.106 40.8738 162.016 40.3275 161.821 39.8151C161.626 39.3026 161.331 38.8343 160.952 38.4377C160.576 38.0431 160.124 37.7288 159.623 37.5136C159.122 37.2984 158.582 37.1869 158.037 37.1857C157.496 37.1837 156.961 37.292 156.463 37.504C155.965 37.716 155.516 38.0272 155.143 38.4187C154.768 38.8123 154.475 39.2775 154.283 39.7866C154.092 40.2957 154.004 40.8382 154.027 41.3817C154.011 41.9275 154.104 42.4711 154.3 42.9807C154.496 43.4903 154.792 43.9557 155.17 44.3497C155.546 44.7417 155.997 45.0538 156.497 45.2674C156.996 45.481 157.534 45.5916 158.077 45.5927C158.614 45.5915 159.145 45.4816 159.638 45.2697C160.131 45.0578 160.577 44.7483 160.947 44.3597C161.32 43.969 161.61 43.5077 161.802 43.0029C161.994 42.4982 162.082 41.9603 162.063 41.4207H162.087V41.4217ZM166.811 34.6447H172.925C174.362 34.5447 175.778 35.0347 176.849 36.0067C177.236 36.4194 177.536 36.9049 177.733 37.4349C177.929 37.9649 178.019 38.5288 177.995 39.0937V39.1337C178.039 40.0466 177.783 40.9489 177.266 41.7023C176.748 42.4557 175.998 43.0186 175.13 43.3047L178.395 48.1257H174.958L172.093 43.8117H169.754V48.1257H166.811V34.6457V34.6447ZM172.729 41.1917C174.165 41.1917 174.981 40.3997 174.981 39.2837V39.2597C174.981 37.9857 174.11 37.3367 172.674 37.3367H169.754V41.2067L172.729 41.1917ZM65.431 6.31372H68.571C68.9444 6.29084 69.3186 6.34274 69.6717 6.46638C70.0247 6.59001 70.3495 6.7829 70.627 7.03372C71.034 7.45572 71.25 8.02872 71.223 8.61772C71.2332 9.11173 71.0734 9.59424 70.7706 9.98465C70.4677 10.3751 70.0401 10.6497 69.559 10.7627L71.489 13.4857H69.999L68.249 10.9757H66.679V13.4857H65.431V6.31372ZM68.515 9.87572C69.41 9.87572 69.983 9.40072 69.983 8.67272C69.983 7.88072 69.433 7.47772 68.5 7.47772H66.679V9.89172L68.515 9.87572ZM72.267 10.8097C72.25 10.4497 72.3051 10.0898 72.4291 9.75133C72.5531 9.41285 72.7434 9.10257 72.989 8.83872C73.2332 8.57632 73.5279 8.36601 73.8555 8.22046C74.183 8.0749 74.5366 7.99709 74.895 7.99172C76.605 7.99172 77.469 9.34572 77.469 10.9047V11.2537H73.545C73.615 12.0637 74.309 12.6717 75.115 12.6307C75.3831 12.6231 75.6466 12.5592 75.8885 12.4433C76.1303 12.3273 76.3452 12.1619 76.519 11.9577L77.241 12.6077C76.8759 13.0545 76.3811 13.3769 75.825 13.5304C75.2688 13.6839 74.6786 13.661 74.136 13.4647C73.5919 13.2658 73.1221 12.9044 72.7903 12.4295C72.4585 11.9545 72.2807 11.3891 72.281 10.8097H72.266H72.267ZM76.254 10.4067C76.2597 10.0372 76.1195 9.6804 75.8637 9.41363C75.608 9.14687 75.2574 8.99168 74.888 8.98172C74.5177 8.99714 74.1671 9.15306 73.9076 9.41777C73.648 9.68249 73.4991 10.0361 73.491 10.4067H76.254ZM78.695 14.5147L79.149 13.5807C79.717 13.9567 80.3829 14.1577 81.064 14.1587C81.523 14.2217 81.984 14.0687 82.316 13.7447C82.649 13.4207 82.815 12.9597 82.767 12.4957V12.0757C82.5574 12.3853 82.2741 12.6378 81.9426 12.8107C81.6111 12.9835 81.2418 13.0711 80.868 13.0657C80.206 13.0757 79.568 12.8087 79.107 12.3297C78.8781 12.0917 78.6998 11.8098 78.5829 11.5009C78.466 11.192 78.413 10.8627 78.427 10.5327C78.4142 10.2027 78.4679 9.87354 78.5851 9.56479C78.7023 9.25605 78.8805 8.97408 79.109 8.73572C79.3364 8.49851 79.6097 8.31018 79.9123 8.18225C80.215 8.05432 80.5405 7.98949 80.869 7.99172C81.2326 7.98845 81.5919 8.06967 81.9186 8.22898C82.2454 8.38829 82.5307 8.62132 82.752 8.90972V8.11872H83.984V12.4327C84.0109 12.8013 83.9644 13.1716 83.8472 13.5222C83.7299 13.8727 83.5443 14.1964 83.301 14.4747C82.691 15.0047 81.898 15.2667 81.096 15.2037C80.2465 15.2035 79.4142 14.9644 78.694 14.5137L78.695 14.5147ZM82.775 10.5567C82.769 10.1467 82.599 9.75672 82.303 9.47672C82.1571 9.33828 81.9847 9.23077 81.7962 9.16066C81.6077 9.09055 81.407 9.05927 81.206 9.06872C81.0099 9.0559 80.8132 9.08326 80.628 9.14911C80.4428 9.21497 80.273 9.31794 80.129 9.45172C79.9818 9.58954 79.8641 9.75588 79.7832 9.94061C79.7023 10.1253 79.6598 10.3246 79.6583 10.5263C79.6568 10.728 79.6963 10.9278 79.7745 11.1137C79.8527 11.2997 79.9679 11.4677 80.113 11.6077C80.2603 11.7496 80.4358 11.859 80.628 11.9288C80.8203 11.9985 81.025 12.0271 81.229 12.0127C81.635 12.0327 82.031 11.8847 82.327 11.6047C82.622 11.3247 82.793 10.9347 82.799 10.5247L82.775 10.5567ZM85.538 6.06872H86.864V7.24872H85.538V6.06872ZM85.593 8.07872H86.825V13.5017H85.593V8.07872ZM87.963 12.7887L88.513 11.9497C89.013 12.3547 89.629 12.5877 90.27 12.6147C90.804 12.6147 91.11 12.3927 91.11 12.0287C91.11 11.6087 90.537 11.4587 89.901 11.2377C89.116 11.0077 88.221 10.6837 88.221 9.65372C88.2303 9.41571 88.2883 9.18213 88.3915 8.96746C88.4948 8.75279 88.6409 8.5616 88.821 8.40572C89.184 8.09172 89.661 7.94472 90.137 7.99972C90.84 8.01372 91.526 8.22772 92.114 8.61772L91.628 9.50372C91.1753 9.19968 90.6495 9.02222 90.105 8.98972C89.627 8.98972 89.32 9.21072 89.32 9.51972C89.32 9.91572 89.901 10.0817 90.537 10.3117C91.322 10.5567 92.209 10.9217 92.209 11.8947C92.209 13.0347 91.329 13.5967 90.207 13.5967C89.3906 13.5813 88.6019 13.2973 87.963 12.7887ZM93.785 12.0057V9.17972H93.103V8.07972H93.786V6.58972H95.018V8.07772H96.462V9.17772H95.018V11.8377C95.0037 11.9288 95.0107 12.022 95.0385 12.11C95.0662 12.198 95.114 12.2783 95.178 12.3447C95.308 12.4787 95.493 12.5437 95.678 12.5187C95.951 12.5257 96.221 12.4597 96.462 12.3287V13.3497C96.125 13.5427 95.742 13.6387 95.356 13.6267C95.1381 13.6622 94.9148 13.6444 94.7053 13.5747C94.4958 13.5051 94.3063 13.3857 94.153 13.2267C93.9989 13.067 93.8852 12.8728 93.8214 12.6602C93.7576 12.4476 93.7454 12.2229 93.786 12.0047L93.785 12.0057ZM97.223 10.8097C97.206 10.4497 97.2611 10.0898 97.3851 9.75133C97.5091 9.41285 97.6994 9.10257 97.945 8.83872C98.1893 8.5762 98.4842 8.36582 98.812 8.22026C99.1397 8.0747 99.4935 7.99696 99.852 7.99172C101.563 7.99172 102.427 9.34572 102.427 10.9047V11.2537H98.503C98.573 12.0637 99.267 12.6717 100.073 12.6307C100.349 12.6327 100.621 12.5758 100.873 12.4636C101.125 12.3515 101.349 12.1869 101.532 11.9807L102.254 12.6307C101.992 12.9601 101.657 13.2238 101.276 13.401C100.894 13.5783 100.477 13.6641 100.056 13.6517C99.6792 13.6731 99.3021 13.6144 98.9496 13.4794C98.5971 13.3445 98.2772 13.1363 98.011 12.8687C97.7433 12.5995 97.5348 12.2773 97.3991 11.9226C97.2634 11.568 97.2034 11.1889 97.223 10.8097ZM101.203 10.4067C101.211 10.038 101.072 9.68113 100.818 9.41413C100.563 9.14713 100.214 8.99168 99.845 8.98172C99.4747 8.99714 99.1241 9.15306 98.8646 9.41777C98.605 9.68249 98.4561 10.0361 98.448 10.4067H101.202H101.203ZM103.69 8.07872H104.922V9.29872C105.05 8.9004 105.305 8.55515 105.648 8.3161C105.992 8.07705 106.404 7.95745 106.822 7.97572V9.28972H106.751C105.676 9.28972 104.922 10.0027 104.922 11.4357V13.5017H103.69V8.07872ZM107.52 10.8097C107.503 10.4497 107.558 10.0898 107.682 9.75133C107.806 9.41285 107.996 9.10257 108.242 8.83872C108.486 8.5762 108.781 8.36582 109.109 8.22026C109.437 8.0747 109.79 7.99696 110.149 7.99172C111.852 7.99172 112.723 9.34572 112.723 10.9047V11.2537H108.799C108.869 12.0637 109.563 12.6717 110.369 12.6307C110.644 12.6332 110.915 12.5764 111.166 12.4643C111.417 12.3521 111.64 12.1872 111.821 11.9807L112.551 12.6307C112.277 12.9669 111.927 13.2328 111.53 13.4062C111.133 13.5796 110.7 13.6556 110.267 13.6277C109.899 13.6366 109.533 13.5695 109.193 13.4304C108.852 13.2914 108.544 13.0835 108.287 12.8197C108.029 12.5544 107.828 12.2394 107.696 11.8938C107.564 11.5482 107.504 11.1793 107.52 10.8097ZM111.499 10.4067C111.506 10.0357 111.365 9.67699 111.109 9.40872C110.983 9.27656 110.831 9.17077 110.664 9.09747C110.496 9.02418 110.316 8.98484 110.133 8.98172C109.763 8.99901 109.414 9.15552 109.155 9.41984C108.896 9.68415 108.746 10.0367 108.736 10.4067H111.499ZM113.696 10.8017C113.666 10.4499 113.707 10.0955 113.819 9.7603C113.93 9.42506 114.108 9.11593 114.342 8.85172C114.575 8.58908 114.859 8.37718 115.178 8.22922C115.496 8.08127 115.841 8.00042 116.192 7.99172C116.552 7.98754 116.908 8.07199 117.229 8.23764C117.549 8.40329 117.823 8.64508 118.028 8.94172V6.01272H119.26V13.5097H118.028V12.5997C117.834 12.911 117.563 13.1674 117.242 13.3447C116.92 13.522 116.559 13.6143 116.192 13.6127C115.841 13.6028 115.496 13.521 115.178 13.3723C114.861 13.2237 114.577 13.0115 114.344 12.7487C114.11 12.4848 113.932 12.1762 113.821 11.8416C113.709 11.5069 113.667 11.1532 113.696 10.8017ZM118.044 10.8017C118.074 10.3597 117.924 9.92372 117.627 9.59672C117.481 9.43492 117.303 9.30464 117.105 9.21385C116.907 9.12307 116.692 9.07368 116.474 9.06872C116.264 9.07787 116.058 9.12925 115.868 9.2198C115.679 9.31035 115.509 9.4382 115.37 9.59572C115.088 9.91572 114.945 10.3357 114.975 10.7627C114.927 11.0646 114.967 11.3739 115.09 11.6536C115.213 11.9333 115.415 12.1716 115.67 12.3397C116.19 12.6797 116.86 12.6797 117.38 12.3397C117.901 11.9987 118.173 11.3797 118.075 10.7627L118.044 10.8027V10.8017ZM123.412 8.07872H124.676L125.759 11.7987L126.944 8.05472H128.004L129.196 11.7997L130.295 8.07972H131.543L129.777 13.5407H128.67L127.47 9.83672L126.253 13.5407H125.178L123.412 8.07872ZM132.547 6.06872H133.873V7.24872H132.547V6.06872ZM132.594 8.07872H133.811V13.5017H132.579L132.594 8.07872ZM135.631 12.0057V9.17972H134.949V8.07972H135.631V6.58972H136.863V8.07772H138.308V9.17772H136.863V11.8377C136.849 11.9288 136.856 12.022 136.883 12.11C136.911 12.198 136.959 12.2783 137.023 12.3447C137.153 12.4787 137.339 12.5437 137.523 12.5187C137.796 12.5217 138.065 12.4557 138.308 12.3287V13.3497C137.968 13.5427 137.583 13.6387 137.193 13.6267C136.976 13.6589 136.755 13.6386 136.547 13.5676C136.339 13.4967 136.152 13.377 136 13.2187C135.847 13.0597 135.734 12.8668 135.67 12.6559C135.606 12.4449 135.593 12.2218 135.631 12.0047V12.0057ZM139.555 6.01272H140.787V8.91772C141.135 8.32972 141.764 7.96872 142.443 7.96772C142.711 7.95577 142.977 8.00248 143.225 8.10457C143.473 8.20667 143.695 8.36167 143.876 8.55872C144.245 8.95872 144.421 9.50072 144.358 10.0417V13.5017H143.15V10.4217C143.15 9.57472 142.734 9.09172 141.996 9.09172C141.825 9.08851 141.656 9.12222 141.499 9.19056C141.342 9.25891 141.202 9.36027 141.088 9.48772C140.973 9.6157 140.887 9.76661 140.836 9.93041C140.784 10.0942 140.768 10.2671 140.788 10.4377V13.5017H139.555V6.01172V6.01272Z" fill="white"/>
</g>
<defs>
<clipPath id="clip0_5666_24796">
<rect width="178" height="55" fill="white" transform="translate(0.39502 0.47168)"/>
</clipPath>
</defs>
</svg>
