<svg width="38" height="26" viewBox="0 0 38 26" fill="none" xmlns="http://www.w3.org/2000/svg">
<path d="M0.721924 22.9937C0.721924 24.1251 1.63912 25.0423 2.77053 25.0423H35.5483C36.6797 25.0423 37.5969 24.1251 37.5969 22.9937C37.5969 21.8623 36.6797 20.9451 35.5483 20.9451H2.77053C1.63912 20.9451 0.721924 21.8623 0.721924 22.9937ZM0.721924 12.7507C0.721924 13.8821 1.63912 14.7993 2.77053 14.7993H35.5483C36.6797 14.7993 37.5969 13.8821 37.5969 12.7507C37.5969 11.6192 36.6797 10.702 35.5483 10.702H2.77053C1.63912 10.702 0.721924 11.6192 0.721924 12.7507ZM2.77053 0.458984C1.63912 0.458984 0.721924 1.37618 0.721924 2.5076C0.721924 3.63901 1.63912 4.55621 2.77053 4.55621H35.5483C36.6797 4.55621 37.5969 3.63901 37.5969 2.5076C37.5969 1.37618 36.6797 0.458984 35.5483 0.458984H2.77053Z" fill="#DF2866"/>
</svg>
