<svg preserveAspectRatio="none" width="143" height="13" viewBox="0 0 143 13" fill="none" xmlns="http://www.w3.org/2000/svg">
    <path fill-rule="evenodd" clip-rule="evenodd" d="M0.0472098 4.28894C0.411189 1.55559 2.75989 -0.341869 5.29319 0.0508545C12.5076 1.16927 19.6596 1.44773 27.2361 1.62622C36.7403 1.85013 46.2284 1.81391 55.7814 1.77745C59.369 1.76376 62.9657 1.75003 66.5758 1.75003C73.6567 1.75003 80.9308 1.90708 88.1501 2.06296L88.1765 2.06352C95.4219 2.21996 102.612 2.37502 109.595 2.37502C112.292 2.37502 114.879 2.43427 117.4 2.49201C122.201 2.60196 126.762 2.70639 131.373 2.38539C131.956 2.34483 132.842 2.17789 133.817 1.9941C134.374 1.88915 134.961 1.77871 135.536 1.68317C136.032 1.60083 136.107 1.57796 136.12 1.57421L136.121 1.57383C136.144 1.56717 136.19 1.55302 136.343 1.5011C136.378 1.48896 136.421 1.47426 136.47 1.45747C136.605 1.41106 136.787 1.34867 136.991 1.28025C139.436 0.461767 142.032 1.93624 142.791 4.57358C143.549 7.21091 142.183 10.0124 139.738 10.8309C139.567 10.8883 139.439 10.9323 139.313 10.9755C139.255 10.9955 139.197 11.0153 139.136 11.0362C138.96 11.0962 138.745 11.1685 138.504 11.2375C137.986 11.3864 137.512 11.4729 136.946 11.5669C136.782 11.594 136.507 11.6455 136.163 11.7099C135.009 11.9259 133.076 12.2876 131.97 12.3646C126.98 12.712 121.71 12.5945 116.658 12.4819C114.235 12.4279 111.863 12.375 109.595 12.375C102.511 12.375 95.2344 12.2179 88.0138 12.062L87.9911 12.0615C80.7456 11.9051 73.5565 11.75 66.5758 11.75C63.0384 11.75 59.4857 11.7636 55.9229 11.7772C46.3299 11.8138 36.6647 11.8507 27.0338 11.6238C19.4267 11.4446 11.7893 11.1606 3.9751 9.94921C1.44181 9.55649 -0.31677 7.0223 0.0472098 4.28894Z" fill="currentColor"/>
</svg>
