<svg width="187" height="184" viewBox="0 0 187 184" fill="none" xmlns="http://www.w3.org/2000/svg">
<path d="M162.506 43.5658C88.3106 114.243 33.3151 58.828 64.5244 34.3111C90.3068 14.0574 153.911 86.8903 25.5073 139.711" stroke="#FFDB30" stroke-width="3" stroke-linecap="round" stroke-linejoin="round"/>
<g clip-path="url(#clip0_9_1410)">
<path d="M24.1568 137.915C32.2868 129.366 39.4217 119.914 45.3901 109.778C47.0148 107.021 48.5512 104.209 50.0093 101.358C50.6221 100.159 52.5688 100.603 52.8148 101.825C54.888 112.212 58.5638 122.222 63.744 131.48C65.3304 134.319 67.0577 137.082 68.9125 139.767C69.2515 140.258 69.0857 141.031 68.7255 141.45C68.29 141.954 67.7194 142.058 67.0811 141.948C57.8737 140.265 48.4091 139.844 39.0681 140.636C36.7603 140.829 34.4559 141.122 32.1637 141.467C31.3386 141.592 30.5152 141.168 30.3241 140.326C30.1518 139.567 30.6655 138.627 31.4906 138.502C41.0336 137.04 50.7537 136.805 60.3317 137.892C62.9083 138.186 65.463 138.579 68.0145 139.042L66.1877 141.215C59.66 131.758 54.7431 121.238 51.643 110.198C50.9338 107.659 50.3208 105.098 49.8041 102.515L52.6095 102.982C47.0854 113.821 40.2885 123.982 32.4069 133.292C30.422 135.633 28.3682 137.92 26.2547 140.139C24.8918 141.571 22.7999 139.346 24.1581 137.921L24.1568 137.915Z" fill="#FFDB30"/>
</g>
<defs>
<clipPath id="clip0_9_1410">
<rect width="44" height="44" fill="white" transform="matrix(0.221365 0.975191 0.975191 -0.221365 16.7515 108.44)"/>
</clipPath>
</defs>
</svg>
