<svg preserveAspectRatio="none" width="70" height="10" viewBox="0 0 210 56" fill="none" xmlns="http://www.w3.org/2000/svg">
    <path d="M176.198 1.69821C154.531 1.69821 134.033 1.20013 115.23 0.74325L113.085 0.691139C93.7097 0.221154 76.1656 -0.182854 61.0956 0.0864517C46.0414 0.355474 33.3596 1.29666 23.7351 3.54942C14.1865 5.78441 7.22056 9.40658 4.21699 15.4103C-1.31386 26.4656 -1.30138 36.4636 3.65068 43.6701C8.5729 50.8331 18.0505 54.753 30.423 54.439C38.6099 54.2312 57.9337 54.6018 80.4756 55.0341C91.1337 55.2385 102.512 55.4567 113.772 55.6341C131.288 55.91 148.502 56.0866 162.226 55.9562C169.087 55.8911 175.088 55.7491 179.825 55.5034C184.51 55.2604 188.097 54.911 190.034 54.3903C195.881 52.8189 200.604 50.5548 203.997 46.1984C207.37 41.867 209.259 35.6825 209.94 26.6492C210.313 21.7046 209.012 15.3989 203.91 10.3422C198.818 5.29392 190.149 1.69821 176.198 1.69821Z" fill="currentColor"/>
</svg>
