<svg id="hand-drawn-line" preserveAspectRatio="none" width="100%" height="7px" viewBox="0 0 122 7" fill="none" xmlns="http://www.w3.org/2000/svg">
    <path fill-rule="evenodd" clip-rule="evenodd"
          d="M0.512492 1.78668C0.609678 0.966676 1.23681 0.397439 1.91322 0.515256C8.52114 1.66621 15.0379 1.94662 21.7908 2.12537C30.2893 2.35031 38.7891 2.31386 47.3043 2.27734C50.4896 2.26368 53.6771 2.25001 56.8675 2.25001C63.1409 2.25001 69.5911 2.40648 76.0269 2.5626L76.0351 2.5628C82.4784 2.7191 88.9073 2.87499 95.1563 2.87499C97.4191 2.87499 99.6569 2.93198 101.873 2.98843C106.23 3.09937 110.504 3.20823 114.725 2.87811C115.395 2.8257 116.473 2.599 117.451 2.39328C117.899 2.299 118.326 2.20912 118.684 2.14245C119.16 2.0537 119.342 2.00968 119.508 1.95608C119.631 1.91614 119.741 1.87378 119.926 1.80237C120.044 1.75674 120.193 1.69925 120.396 1.62295C121.048 1.37741 121.742 1.81975 121.944 2.61095C122.147 3.40215 121.782 4.2426 121.129 4.48815C120.993 4.53948 120.869 4.58708 120.755 4.63088C120.518 4.72228 120.324 4.79719 120.144 4.85517C119.842 4.95278 119.549 5.01641 119.06 5.10757C118.811 5.15399 118.468 5.22615 118.077 5.30818C117.048 5.52417 115.694 5.8086 114.884 5.87188C110.563 6.20991 106.099 6.09715 101.675 5.9854C99.485 5.93007 97.3047 5.87499 95.1563 5.87499C88.8798 5.87499 82.4276 5.71847 75.9906 5.56232L75.9856 5.5622C69.5424 5.4059 63.1145 5.25001 56.8675 5.25001C53.6966 5.25001 50.5208 5.26363 47.3421 5.27727C38.8162 5.31383 30.2691 5.35049 21.7368 5.12465C14.9757 4.94569 8.32935 4.66361 1.56128 3.48476C0.884865 3.36695 0.415305 2.60669 0.512492 1.78668Z"
          fill="currentColor"/>
</svg>
