<svg preserveAspectRatio="none" width="177" height="25" viewBox="0 0 177 25" fill="none" xmlns="http://www.w3.org/2000/svg">
    <path fill-rule="evenodd" clip-rule="evenodd" d="M176.905 14.7529C176.076 20.7315 170.055 24.969 163.457 24.2177C155.549 23.3172 147.647 23.0856 139 22.936C128.203 22.7491 117.454 22.7793 106.554 22.8098C102.438 22.8214 98.3004 22.833 94.1309 22.833C85.9818 22.833 77.6207 22.7004 69.3842 22.5697L69.3269 22.5688C61.0323 22.4373 52.8636 22.308 44.9403 22.308C41.6001 22.308 38.5276 22.2555 35.6036 22.2055C30.2754 22.1144 25.4401 22.0318 20.3757 22.2907C20.3817 22.2904 20.3848 22.2902 20.3848 22.2903C20.3848 22.2906 20.2569 22.2994 19.9558 22.3327C19.6397 22.3677 19.2565 22.4155 18.8118 22.4744C18.447 22.5226 18.0864 22.5721 17.7107 22.6237L17.4539 22.659C17.0196 22.7185 16.5184 22.7868 16.0779 22.8405C15.9971 22.8503 15.9314 22.8585 15.8777 22.8654C15.8699 22.8673 15.8619 22.8693 15.8536 22.8714C15.6997 22.9102 15.4538 22.9722 15.1977 23.0352C8.78014 24.6137 2.16548 21.1792 0.423493 15.3641C-1.3185 9.54893 2.47182 3.55523 8.88938 1.97676C9.06685 1.93311 9.18538 1.90321 9.31919 1.86946C9.3888 1.85189 9.46256 1.83329 9.55091 1.81116C9.76651 1.75716 10.1135 1.67089 10.5169 1.58581C11.41 1.39744 12.1933 1.29699 12.8665 1.21492C12.9135 1.20918 13.0419 1.19132 13.2327 1.16478C14.3091 1.01507 17.3717 0.589115 19.019 0.504884C24.9448 0.201895 31.3942 0.306391 37.2907 0.401931C39.991 0.445684 42.5753 0.487556 44.9403 0.487556C53.0934 0.487557 61.4572 0.620202 69.6951 0.750849L69.7483 0.751692C78.0429 0.883237 86.2102 1.01249 94.1309 1.01249C98.135 1.01249 102.173 1.00116 106.232 0.989774C117.223 0.958945 128.375 0.927663 139.459 1.11947C148.174 1.27027 157.182 1.51108 166.459 2.56746C173.057 3.31876 177.734 8.77438 176.905 14.7529Z"
          fill="#FFDB30"/>
</svg>
