<svg width="482" height="254" viewBox="0 0 482 254" fill="none" xmlns="http://www.w3.org/2000/svg">
<path d="M347.7 139.6C329 141.7 310.8 135.5 299.2 129.1C298.1 128.6 298.8 128.1 299 128C304.9 124.5 309.6 120.1 313.6 114.9C318.1 108.9 317.5 101 313 96.9002C309.4 93.5002 305.2 92.3002 300.5 92.9002C297.3 93.3002 292.9 94.5002 290 94.6002C283.5 95.0002 280.8 97.4002 280.8 102.2C280.7 117.8 282.6 133.7 282 149.4C281.9 152.8 282.6 155 284.1 156.3C285.9 157.9 288.5 158.7 290.9 158.1C292.9 157.6 293.4 154.6 293.5 152.7C293.5 147 292.8 145.2 292.5 138.4C292.4 137 292.7 136.1 293.6 136.6C297.8 138.7 302 141.2 307.2 143.2C316.5 146.8 326.8 149.8 341.5 148.8C344.5 148.6 349.2 148 351 145.4C352.1 143.4 351.1 139.2 347.7 139.6ZM303 100.4C306 100.6 309.7 102.9 307.5 107.3C305.3 111.7 297.9 118.9 292.3 121.3C291.5 121.6 290.5 121.2 290.3 119.9C289.6 112.6 289 105.8 290.5 104.2C293.6 100.9 300.7 100.2 303 100.4Z" fill="#6e2b5f"/>
<path d="M56.0997 34.2C49.5997 31.8 41.3997 32.5 41.0997 32.6C40.7997 32.6 40.3997 32.2 40.7997 31.5C41.3997 30.6 45.0997 24.4 46.3997 20.9C50.4997 10.1 47.1997 3.29996 36.3997 0.499958C33.6997 -0.200042 30.4997 -4.21107e-05 27.7997 0.499958C21.7997 1.69996 15.7997 3.09996 9.9997 4.89996C8.3997 5.39996 7.3997 6.89996 7.1997 8.39996C6.6997 12.8 6.5997 21.7 6.7997 26.2C7.2997 41.2 7.8997 51.1 8.7997 66.1C9.1997 73.6 12.7997 78.5 16.8997 80.5C20.0997 82.1 24.6997 82 27.1997 81.2C33.3997 79.2 39.1997 76.1 44.6997 72.3C53.3997 66.3 59.3997 60.9 62.3997 50.6C64.3997 43.6 62.9997 36.7 56.0997 34.2ZM19.0997 15.5C19.3997 12.1 29.7997 7.99996 33.2997 8.49996C35.8997 8.89996 36.7997 10.5 37.0997 11.9C37.4997 14.6 35.8997 19.1 34.7997 21.8C31.9997 28.8 27.4997 35.1 24.9997 37.1C22.4997 39.1 19.5997 39.4 18.8997 37.4C18.3997 33.7 18.5997 22.7 19.0997 15.5ZM51.3997 48.4C49.3997 57.4 40.3997 63.3 30.1997 68.8C26.4997 70.8 22.2997 69.5 20.7997 64.7C17.9997 56.1 21.9997 51.1 28.7997 47.2C34.9997 43.7 39.4997 41.4 46.7997 42.5C50.5997 43.2 52.0997 45.3 51.3997 48.4Z" fill="#6e2b5f"/>
<path d="M74.9997 66.3C75.3997 70 79.1997 73.5 82.5997 73.2C87.0997 72.8 86.7997 69.5 86.5997 66.3C86.3997 63.7 85.4997 57.4 85.0997 55.2C83.6997 47.9 84.7997 46 91.7997 41.7C94.7997 39.9 96.1997 39.7 97.9997 42.3C103.5 50.2 108.9 58.2 114.6 66C116 67.9 117.9 69.6 120 70.5C121.3 71 124 70.4 124.9 69.3C125.8 68.2 126.1 66.2 125.6 64.5C125.1 63 124 61.9 123.2 60.7C116.9 51.7 110.5 42.8 104.2 33.7C103.5 32.7 102.7 31.7 103.1 30.6C104 28 105.8 24.8 107.1 22.3C110.5 16 109.8 8.09997 103.3 5.19997C98.1997 2.89997 89.6997 3.29997 85.5997 4.39997C81.0997 5.59997 78.2997 6.59997 73.7997 8.29997C71.1997 9.29997 70.0997 12.5 70.3997 15.4C71.0997 23 74.0997 57.2 74.9997 66.3ZM81.6996 17.6C83.4997 15.9 92.5996 13.2 96.6996 13.6C98.2997 13.7 99.0997 15.4 98.5997 17C96.1997 23.8 91.3997 30.4 83.5997 35.8C83.0997 36.1 82.3997 36 82.2997 35.4C81.6997 30.1 81.2997 25.6 80.7997 19.9C80.8997 18.7 81.2997 18 81.6996 17.6Z" fill="#6e2b5f"/>
<path d="M146 72.4C154.8 73.1 162 71 170.3 68C174.4 66.5 176.7 62.8 174.1 60.2C171.1 57.1 169.5 57.6 166 59.2C160.5 61.6 157.8 62.3 151.9 63.1C148.2 63.6 145.7 63.3 144.5 61.1C143.1 58.5 142.6 52.7 142.8 48.7C143 46 145 45.7 147.9 45.1C152.8 44.5 157.1 44.4 163.7 43.3C166.3 42.9 169.3 42 168.1 38.2C166.9 34.5 164.1 34.9 161.2 35.2C158.4 35.4 155.3 36.1 152.5 36.4C143.6 37.5 142.4 36.6 142.5 31.9C142.5 28.9 142.5 23.8 142.6 22.6C142.8 19.7 143.6 19 145.6 18.2C156.1 14 166.4 14.5 169 13.3C172.5 11.7 173 5.6 171.1 4.2C170.2 3.5 168.7 3.5 168 3.5C156.9 4.8 148 6.1 139.2 8.7C134.9 10 133.5 11.6 133.3 14.8C132.3 29.6 132 42.4 132.7 57.3C133.3 66.6 137.6 71.8 146 72.4Z" fill="#6e2b5f"/>
<path d="M217.8 21.7998C216.2 16.5998 213.1 11.3998 209.3 7.39985C202.5 0.299848 194.5 2.19985 191.8 11.3998C186.9 27.5998 185.2 44.9998 185.6 61.8998C185.7 64.3998 186.6 67.2998 188.4 69.0998C189.6 70.3998 193.1 70.4998 195.1 70.2999C197 70.0999 197.5 67.3998 197.6 65.6998C197.7 63.1998 197.4 60.0998 197.9 57.7999C198.2 56.2999 198.5 55.0998 199.9 54.4998C203.9 52.7998 208.6 51.2998 213.7 49.5998C214.1 49.3998 214.3 49.8998 214.4 50.0998C215.5 54.2998 216.5 58.7998 218.1 63.0998C219.2 65.9998 221.1 68.8998 223.4 70.8998C224.6 71.9998 227.8 71.7999 229.6 70.8998C230.8 70.2999 230.4 67.4998 229.9 65.7999C226 51.1999 222.4 36.3998 217.8 21.7998ZM198 45.0998C197.9 44.1998 198.8 25.6998 200.3 17.9998C200.7 15.9998 203 13.2998 205.4 16.8998C206.9 19.1998 211.9 40.0998 211.8 41.3998C211.8 41.7999 211.6 41.9998 211 42.1998C210.1 42.5998 201.2 45.0998 198.8 45.6998C198.4 45.8998 198.1 45.4998 198 45.0998Z" fill="#6e2b5f"/>
<path d="M255.4 53.5998C254.1 57.6998 252.3 59.9998 247.4 61.8998C243 63.5998 240.9 64.8998 241.8 67.9998C242.5 70.5998 246.7 73.6998 252 71.8998C255.6 70.5998 259.8 66.8998 263.1 63.3998C267.6 58.4998 268.8 51.2998 265.2 45.8998C262.3 41.4998 259 37.3998 255.7 33.2998C252.9 29.8998 250.5 27.2998 247.5 23.8998C244.9 20.9998 245 18.3998 247.5 16.9998C250.3 15.2998 253.3 14.2998 256.2 13.1998C260 11.7998 260.6 7.89982 257 5.79982C254.8 4.59982 251.9 3.59982 249.3 4.29982C245.4 5.29982 241.6 7.39982 238.2 9.59982C233.4 12.6998 232.4 19.2998 235.7 24.0998C239.8 29.8998 243.2 33.3998 248 38.5998C255.1 46.1998 256.5 50.0998 255.4 53.5998Z" fill="#6e2b5f"/>
<path d="M292.7 22.8001C292.1 32.3001 291.2 41.7001 290.9 51.2001C290.8 56.2001 290.9 61.2001 292 66.1001C292.9 70.5001 297.3 73.9001 300.7 72.8001C305.5 71.3001 303.3 67.7001 302.7 64.7001C299.6 48.7001 302.6 33.2001 305.2 17.6001C305.2 17.4001 305.7 16.9001 306.8 16.7001C314.5 15.4001 320.3 14.7001 327.5 13.2001C329.3 12.8001 332.3 11.8001 332.3 9.60012C332.4 7.00012 330.8 5.20012 329.1 4.10012C327.3 2.90012 324.3 3.00012 322 3.30012C306.7 5.10012 291.4 7.10013 276.1 9.00013C271.9 9.50013 270.2 11.7001 272 15.5001C273.8 19.3001 276.6 21.9001 281.4 20.9001C284.9 20.2001 292.3 18.6001 292.8 19.1001C293.1 19.4001 292.7 21.8001 292.7 22.8001Z" fill="#6e2b5f"/>
<path d="M9.50011 156.3C15.0001 161.7 24.9001 161.7 32.8001 158.7C40.2001 155.9 45.4001 150.6 50.0001 144.8C52.7001 141.5 53.5001 138.5 52.8001 135.8C52.1001 133.2 46.7001 131 44.4001 134.7C41.0001 140.1 36.3001 144.3 31.1001 146.9C23.8001 150.6 17.8001 150.1 14.2001 142.7C8.10011 130.2 18.0001 111.4 27.2001 104.5C28.2001 103.7 30.3001 103.8 31.7001 104.2C36.1001 105.3 38.1001 103.6 37.3001 99.0999C36.1001 91.9999 29.0001 88.7999 22.8001 92.5999C13.8001 98.0999 7.70011 106 3.90011 115.7C-1.69989 129.7 -1.19989 145.7 9.50011 156.3Z" fill="#6e2b5f"/>
<path d="M73 158C75 157.5 75.3 155.2 75.4 153.4C75.5 150.9 75.4 148.5 75.7 146.2C75.9 144.5 75.9 143.3 78.7 142.2C82.6 140.6 86.1999 139.6 91.1999 138C91.5999 137.9 91.8 138.1 91.9 138.7C93.1 142.9 93.9 147.1 95.5 151.4C96.6 154.3 98.0999 157.2 100.4 159.2C101.6 160.3 104.7 160.2 106.6 159.6C107.8 159.2 108.2 157.9 107.2 154.2C103.5 139.5 99.8999 124.7 95.3999 110.3C93.7999 105.1 91.9 101.2 88.1 97.1998C81.4 90.1998 72.5 90.7998 69.8 99.8998C65 116.1 63.4 132.7 63.7 149.5C63.8 153.2 64.6 155.2 66.3 157C67.5 158.4 71.1 158.4 73 158ZM79.6999 106.7C80.0999 105 82 104.6 83 106.5C86.1 114 87.4999 121.4 89.6999 130C89.6999 130.1 89.8 130.4 89.5 130.5C85.5 131.7 77.2 134 76.4 133.9C75.8 133.7 75.7 133.4 75.8 132.2C76.4 123.3 79.2999 108.3 79.6999 106.7Z" fill="#6e2b5f"/>
<path d="M129.2 114.3C130.2 114.5 133.1 118.8 134.5 121.2C141.2 133 145.2 139.6 151.3 151.7C152.6 154.3 154.7 157 157.2 158.5C161.9 161.3 165 159 164.7 153.4C163.7 134.1 162.7 114.7 161.7 95.4C161.5 91.5 158.6 88.7 154.8 89C150.1 89.4 150.8 92.6 150.9 95.9C151.3 106.4 151.6 117 152 127.8C152 128.3 151.7 128.6 151.4 128.3C147.3 121.9 143.7 116.7 139.7 110.3C135.5 103.5 130.1 96.3 122.9 94.9C118.4 94 115 95 115.3 100.7C115.7 108.5 116.3 114.1 116.9 121.9C117.7 132 119 142 120 152C120.4 156 122.8 158.6 126.7 159.5C130.4 160.5 132.5 158.6 132.1 154.9C130.7 141 129.7 132.4 128.2 118.5C128.2 117.1 127.8 114.1 129.2 114.3Z" fill="#6e2b5f"/>
<path d="M269.4 95.2998C268.8 94.8998 266.9 93.9998 263.5 94.7998C255 96.6998 246.4 98.6997 238 100.9C236.7 101.2 235 103.1 234.9 104.3C233.8 113.7 232.3 123.2 232.8 132.5C233.1 138.1 234.6 149.2 238.4 152.9C246 160.3 257.8 157.2 267.1 149.9C269.6 147.9 268.2 142.1 264.2 142.4C261.3 142.6 254.8 145 251 146C249.6 146.4 247.5 146.1 246.2 145.1C244.9 144.1 243.7 135.8 243.9 132.2C244 130.3 244.9 130.1 247.4 129.1C252.3 127.2 260.6 125.3 265.5 123.2C266.8 122.6 268.5 120.1 268.2 119.1C267.7 117.5 265.8 115.6 264.2 115.2C262.4 114.7 260.2 115.7 258.2 116.1C254.4 117 245.1 120.4 244.5 120.6C243.9 120.8 243.3 120.5 243.2 119.7C243.1 118.9 242.7 111.4 247.3 109.8C253.6 107.6 269.5 102.9 270.7 101.5C271.7 99.9997 271.5 96.5998 269.4 95.2998Z" fill="#6e2b5f"/>
<path d="M52.8005 182.5C52.6005 178.6 49.7005 175.8 45.9005 176.1C41.2005 176.5 41.9005 179.7 42.0005 183C42.4005 193.1 42.9005 203.5 43.3005 213.9C43.3005 214.8 42.8005 215 42.4005 214.4C38.5005 207.6 35.6005 202.2 31.6005 195.8C27.4005 189 24.4005 182 16.8005 179.2C13.6005 178 8.20048 177.1 7.50048 182.6C6.50048 190.4 7.40048 229.3 7.80048 239.3C8.00048 243.4 9.70048 247.1 13.7005 246.9C17.3005 246.8 20.5005 244.8 20.1005 241C18.7005 227.1 18.6005 217.1 18.3005 203.1C18.2005 200.1 20.5005 201.6 21.5005 203.2C28.3005 214.9 35.4005 226.9 42.3005 238.9C43.8005 241.4 45.7005 244.2 48.2005 245.7C52.9005 248.5 56.0005 246.2 55.7005 240.6C54.8005 221.2 53.8005 201.8 52.8005 182.5Z" fill="#6e2b5f"/>
<path d="M199.801 181.1C198.601 176.1 194.401 177.5 191.301 178C188.601 178.5 188.101 180.6 188.101 181.9C188.401 190.9 189.801 199.8 189.701 208.7C189.701 215.7 188.801 223 187.001 229.7C186.801 230.3 186.201 230.4 185.801 229.8C181.801 221.3 178.801 212.5 178.601 202.9C178.601 200.5 177.701 197.1 176.001 195.9C174.201 194.7 170.601 194.9 168.301 195.8C167.001 196.3 166.101 198.3 166.201 201.3C166.901 212.7 164.001 221.9 157.401 231.4C156.301 233.1 154.701 232.3 154.101 231.4C153.101 229.7 153.201 224.1 153.401 220.1C154.001 207.5 155.501 195.2 156.401 182.6C156.701 178.4 154.001 177.3 150.801 176.8C147.701 176.4 145.101 176.6 144.901 181.1C144.701 188.1 143.501 195 143.201 202C142.701 213.7 140.701 225.6 144.601 237C146.401 242.2 149.701 246 155.801 246.8C161.801 247.6 164.501 243.8 167.101 239.6C168.901 236.6 171.901 230.9 172.101 230.5C172.701 229.3 173.401 229.9 173.701 230.4C174.001 231 177.301 237.9 180.201 240.7C186.601 246.8 193.701 243.8 196.501 235.5C201.501 221 201.101 206 200.901 191.1C201.201 187.8 200.601 184.4 199.801 181.1Z" fill="#6e2b5f"/>
<path d="M133.3 195.3C132.5 190.4 129.7 187.8 128.6 187.3C126.7 186.5 125.4 187 124.6 187.5C123.5 188.2 122.8 189.4 122.7 190.9C122.6 191.8 122.8 192.8 123.1 193.8C124.9 198.7 122.8 205 120.8 209.5C118.6 214.4 113.4 221.4 111.1 223.8C103.9 231.3 92.9002 238 84.2002 233.7C79.4002 231.3 75.8002 225.7 75.6002 220.7C75.1002 205.2 85.7002 197 95.7002 191.8C97.3002 191 99.9002 189.9 101.5 189.4C105.9 188.1 109.1 186.3 108.6 181.8C108.4 180.1 105.9 175.7 99.5002 177C97.5002 177.4 96.0002 177.7 93.2002 179C82.7002 184 74.4002 193.1 69.2002 203.6C62.5002 217.1 66.9002 232.5 72.7002 238.6C77.6002 243.8 84.3002 246.4 91.8002 246.4H91.9002C101.1 246.4 110.9 242.2 117.5 235.5C122.9 230.1 128.1 221.2 130.5 215.1C133.1 209 134.4 201.8 133.3 195.3Z" fill="#6e2b5f"/>
<path d="M217.9 139.9C214 145 209.6 148.2 204.3 149.9C196.5 152.4 192.1 151.7 188.5 144.3C182.4 131.7 188.7 113.4 198.8 107.3C201 106 203.4 105.2 206.5 105.5C210.9 105.9 213.9 103.7 213.1 99.0999C211.8 91.9999 201.8 90.5999 195.6 94.2999C186.5 99.7999 180.4 107.7 176.6 117.4C171 131.7 174.6 148.1 185.2 156.7C191.2 161.6 197.4 162.8 205.6 160.5C213.2 158.4 218 154.1 222.7 148.4C224.9 145.6 225.6 143 225.4 140.7C225 137.4 220.2 136.8 217.9 139.9Z" fill="#6e2b5f"/>
<path d="M245.9 182.9V185.7H237.4V207.3H234.4V185.7H225.9V182.9H245.9Z" fill="#6e2b5f" stroke="#6e2b5f" stroke-width="0.75" stroke-miterlimit="10"/>
<path d="M248.9 207.3V180.3H251.9V191.6C252.5 190.5 253.4 189.7 254.5 189.2C255.6 188.7 256.7 188.5 258 188.5C259.3 188.5 260.5 188.8 261.6 189.3C262.7 189.8 263.6 190.6 264.2 191.6C264.8 192.6 265.2 194 265.2 195.6V207.4H262.2V196.6C262.2 194.6 261.8 193.1 260.9 192.3C260 191.5 258.9 191.1 257.7 191.1C256.8 191.1 255.9 191.3 255 191.7C254.1 192.1 253.4 192.8 252.8 193.8C252.2 194.8 251.9 196 251.9 197.6V207.4H248.9V207.3Z" fill="#6e2b5f" stroke="#6e2b5f" stroke-width="0.75" stroke-miterlimit="10"/>
<path d="M277.2 207.7C275.4 207.7 273.9 207.3 272.5 206.6C271.1 205.8 270.1 204.7 269.3 203.3C268.5 201.9 268.2 200.1 268.2 198.1C268.2 196.1 268.6 194.4 269.3 192.9C270.1 191.5 271.1 190.4 272.4 189.6C273.7 188.8 275.2 188.5 277 188.5C278.7 188.5 280.2 188.9 281.4 189.6C282.6 190.3 283.6 191.3 284.2 192.6C284.8 193.9 285.2 195.3 285.2 196.9C285.2 197.3 285.2 197.7 285.2 198C285.2 198.3 285.1 198.7 285.1 198.9H270.2V196.3H283.9L282.4 196.6C282.4 194.8 281.9 193.5 280.9 192.5C279.9 191.5 278.6 191.1 277.1 191.1C275.9 191.1 274.8 191.4 274 191.9C273.1 192.5 272.4 193.3 272 194.3C271.5 195.3 271.3 196.6 271.3 198.1C271.3 199.6 271.5 200.8 272 201.9C272.5 203 273.2 203.8 274.1 204.3C275 204.9 276.1 205.1 277.3 205.1C278.7 205.1 279.8 204.8 280.6 204.3C281.5 203.8 282.1 203.1 282.7 202.2L285 203.6C284.5 204.4 283.9 205.2 283.2 205.8C282.5 206.4 281.6 206.9 280.6 207.2C279.6 207.5 278.4 207.7 277.2 207.7Z" fill="#6e2b5f" stroke="#6e2b5f" stroke-width="0.75" stroke-miterlimit="10"/>
<path d="M301.601 207.3V188.8H304.001L304.401 191.8C304.901 190.7 305.701 189.8 306.701 189.2C307.701 188.6 308.901 188.3 310.301 188.3C310.601 188.3 311.001 188.3 311.401 188.4C311.801 188.4 312.101 188.5 312.401 188.7L311.901 191.4C311.601 191.3 311.301 191.2 311.001 191.2C310.701 191.2 310.201 191.1 309.601 191.1C308.801 191.1 308.101 191.3 307.301 191.8C306.501 192.2 305.901 192.9 305.401 193.8C304.901 194.7 304.601 195.8 304.601 197.2V207.2H301.601V207.3Z" fill="#6e2b5f" stroke="#6e2b5f" stroke-width="0.75" stroke-miterlimit="10"/>
<path d="M321.7 207.7C319.9 207.7 318.4 207.3 317 206.6C315.6 205.8 314.6 204.7 313.8 203.3C313 201.9 312.7 200.1 312.7 198.1C312.7 196.1 313.1 194.4 313.8 192.9C314.6 191.5 315.6 190.4 316.9 189.6C318.2 188.8 319.7 188.5 321.5 188.5C323.2 188.5 324.7 188.9 325.9 189.6C327.1 190.3 328.1 191.3 328.7 192.6C329.3 193.9 329.7 195.3 329.7 196.9C329.7 197.3 329.7 197.7 329.7 198C329.7 198.3 329.6 198.7 329.6 198.9H314.7V196.3H328.4L326.9 196.6C326.9 194.8 326.4 193.5 325.4 192.5C324.4 191.5 323.1 191.1 321.6 191.1C320.4 191.1 319.3 191.4 318.5 191.9C317.6 192.5 316.9 193.3 316.5 194.3C316 195.3 315.8 196.6 315.8 198.1C315.8 199.6 316 200.8 316.5 201.9C317 203 317.7 203.8 318.6 204.3C319.5 204.9 320.6 205.1 321.8 205.1C323.2 205.1 324.3 204.8 325.1 204.3C326 203.8 326.6 203.1 327.2 202.2L329.5 203.6C329 204.4 328.4 205.2 327.7 205.8C327 206.4 326.1 206.9 325.1 207.2C324.1 207.5 322.9 207.7 321.7 207.7Z" fill="#6e2b5f" stroke="#6e2b5f" stroke-width="0.75" stroke-miterlimit="10"/>
<path d="M340.4 207.7C338.6 207.7 336.9 207.3 335.4 206.6C333.9 205.8 332.7 204.8 331.9 203.3L334.4 201.5C334.9 202.6 335.7 203.5 336.8 204.2C337.9 204.9 339.1 205.2 340.6 205.2C341.9 205.2 342.9 204.9 343.7 204.4C344.4 203.9 344.8 203.2 344.8 202.4C344.8 201.9 344.6 201.4 344.3 201C344 200.6 343.3 200.3 342.4 200.1L338 199.2C336.2 198.8 334.9 198.2 334.1 197.4C333.3 196.5 332.9 195.5 332.9 194.2C332.9 193.2 333.2 192.3 333.8 191.4C334.4 190.6 335.2 189.9 336.3 189.4C337.4 188.9 338.6 188.6 340.1 188.6C341.9 188.6 343.5 189 344.7 189.7C346 190.4 346.9 191.4 347.5 192.7L345 194.3C344.6 193.2 343.9 192.4 343 191.9C342.1 191.4 341.1 191.1 340.1 191.1C339.2 191.1 338.5 191.2 337.8 191.5C337.2 191.7 336.7 192.1 336.4 192.5C336.1 192.9 335.9 193.4 335.9 194C335.9 194.6 336.1 195 336.5 195.5C336.9 196 337.6 196.3 338.6 196.5L343.2 197.5C344.9 197.8 346.1 198.4 346.8 199.2C347.5 200 347.8 201 347.8 202.1C347.8 203.3 347.5 204.3 346.9 205.2C346.3 206.1 345.4 206.7 344.3 207.2C343.1 207.5 341.8 207.7 340.4 207.7Z" fill="#6e2b5f" stroke="#6e2b5f" stroke-width="0.75" stroke-miterlimit="10"/>
<path d="M360 207.7C358.2 207.7 356.7 207.3 355.3 206.6C353.9 205.8 352.9 204.7 352.1 203.3C351.3 201.9 351 200.1 351 198.1C351 196.1 351.4 194.4 352.1 192.9C352.9 191.5 353.9 190.4 355.2 189.6C356.5 188.8 358 188.5 359.8 188.5C361.5 188.5 363 188.9 364.2 189.6C365.4 190.3 366.4 191.3 367 192.6C367.6 193.9 368 195.3 368 196.9C368 197.3 368 197.7 368 198C368 198.3 367.9 198.7 367.9 198.9H353V196.3H366.7L365.2 196.6C365.2 194.8 364.7 193.5 363.7 192.5C362.7 191.5 361.4 191.1 359.9 191.1C358.7 191.1 357.6 191.4 356.8 191.9C355.9 192.5 355.2 193.3 354.8 194.3C354.3 195.3 354.1 196.6 354.1 198.1C354.1 199.6 354.3 200.8 354.8 201.9C355.3 203 356 203.8 356.9 204.3C357.8 204.9 358.9 205.1 360.1 205.1C361.5 205.1 362.6 204.8 363.4 204.3C364.3 203.8 364.9 203.1 365.5 202.2L367.8 203.6C367.3 204.4 366.7 205.2 366 205.8C365.3 206.4 364.4 206.9 363.4 207.2C362.4 207.5 361.3 207.7 360 207.7Z" fill="#6e2b5f" stroke="#6e2b5f" stroke-width="0.75" stroke-miterlimit="10"/>
<path d="M383.6 195.4C383.6 194 383.2 193 382.5 192.2C381.8 191.4 380.7 191.1 379.4 191.1C378.1 191.1 377 191.4 376.1 191.9C375.2 192.5 374.6 193.3 374.1 194.6L371.7 193.1C372.2 191.7 373.1 190.6 374.4 189.8C375.7 188.9 377.4 188.5 379.4 188.5C380.7 188.5 381.9 188.7 383 189.2C384.1 189.7 384.9 190.3 385.6 191.3C386.3 192.3 386.5 193.4 386.5 194.9V203.9C386.5 204.8 387 205.2 387.9 205.2C388.4 205.2 388.8 205.1 389.3 205L389.2 207.3C388.7 207.5 388.1 207.7 387.3 207.7C386.6 207.7 385.9 207.6 385.4 207.3C384.8 207 384.4 206.6 384.1 206.1C383.8 205.5 383.6 204.8 383.6 204V203.6L384.3 203.7C384 204.7 383.5 205.4 382.8 206C382.1 206.6 381.3 207 380.4 207.3C379.5 207.6 378.6 207.7 377.8 207.7C376.7 207.7 375.7 207.5 374.8 207.1C373.9 206.7 373.1 206.2 372.6 205.4C372 204.6 371.8 203.7 371.8 202.6C371.8 201.2 372.3 200.1 373.2 199.2C374.1 198.3 375.4 197.7 377.1 197.4L384.4 196V198.4L378.4 199.6C377.2 199.8 376.3 200.2 375.7 200.6C375.1 201 374.8 201.7 374.8 202.5C374.8 203.3 375.1 203.9 375.7 204.4C376.3 204.9 377.2 205.1 378.3 205.1C379 205.1 379.7 205 380.4 204.8C381.1 204.6 381.6 204.3 382.2 203.9C382.7 203.5 383.1 203 383.4 202.5C383.7 201.9 383.8 201.2 383.8 200.4V195.4H383.6Z" fill="#6e2b5f" stroke="#6e2b5f" stroke-width="0.75" stroke-miterlimit="10"/>
<path d="M392.801 207.3V188.8H395.201L395.601 191.8C396.101 190.7 396.901 189.8 397.901 189.2C398.901 188.6 400.101 188.3 401.501 188.3C401.801 188.3 402.201 188.3 402.601 188.4C403.001 188.4 403.301 188.5 403.601 188.7L403.101 191.4C402.801 191.3 402.501 191.2 402.201 191.2C401.901 191.2 401.401 191.1 400.801 191.1C400.001 191.1 399.301 191.3 398.501 191.8C397.701 192.2 397.101 192.9 396.601 193.8C396.101 194.7 395.801 195.8 395.801 197.2V207.2H392.801V207.3Z" fill="#6e2b5f" stroke="#6e2b5f" stroke-width="0.75" stroke-miterlimit="10"/>
<path d="M414.101 188.5C415.401 188.5 416.501 188.7 417.501 189.1C418.501 189.5 419.301 190.1 420.001 190.8C420.701 191.5 421.301 192.4 421.701 193.4L418.901 194.7C418.501 193.5 417.901 192.6 417.101 192C416.301 191.4 415.301 191.1 414.001 191.1C412.801 191.1 411.701 191.4 410.801 191.9C409.901 192.5 409.201 193.3 408.801 194.3C408.301 195.3 408.101 196.6 408.101 198.1C408.101 199.6 408.301 200.8 408.801 201.9C409.301 203 409.901 203.8 410.801 204.3C411.701 204.9 412.701 205.1 414.001 205.1C415.001 205.1 415.801 205 416.501 204.7C417.201 204.4 417.801 204 418.201 203.4C418.701 202.8 419.001 202.1 419.101 201.3L421.801 202.3C421.401 203.4 420.801 204.4 420.101 205.2C419.401 206 418.501 206.6 417.501 207.1C416.501 207.5 415.301 207.7 414.001 207.7C412.301 207.7 410.701 207.3 409.401 206.6C408.001 205.8 407.001 204.7 406.201 203.3C405.401 201.9 405.101 200.1 405.101 198.1C405.101 196.1 405.501 194.4 406.201 192.9C407.001 191.5 408.001 190.4 409.401 189.6C410.801 188.8 412.401 188.5 414.101 188.5Z" fill="#6e2b5f" stroke="#6e2b5f" stroke-width="0.75" stroke-miterlimit="10"/>
<path d="M425.2 207.3V180.3H428.2V191.6C428.8 190.5 429.7 189.7 430.8 189.2C431.9 188.7 433 188.5 434.3 188.5C435.6 188.5 436.8 188.8 437.9 189.3C439 189.8 439.9 190.6 440.5 191.6C441.1 192.6 441.5 194 441.5 195.6V207.4H438.5V196.6C438.5 194.6 438.1 193.1 437.2 192.3C436.3 191.5 435.2 191.1 434 191.1C433.1 191.1 432.2 191.3 431.3 191.7C430.4 192.1 429.7 192.8 429.1 193.8C428.5 194.8 428.2 196 428.2 197.6V207.4H425.2V207.3Z" fill="#6e2b5f" stroke="#6e2b5f" stroke-width="0.75" stroke-miterlimit="10"/>
<path d="M461.3 207.7C459.7 207.7 458.3 207.4 457.1 206.8C455.9 206.2 455.1 205.5 454.4 204.5C453.8 203.5 453.5 202.4 453.5 201.1C453.5 200.3 453.6 199.6 453.8 198.9C454 198.2 454.3 197.5 454.8 196.9C455.3 196.3 455.9 195.7 456.7 195.1C457.5 194.5 458.5 194 459.7 193.5L461.3 192.7C462.2 192.2 463 191.7 463.6 191.2C464.2 190.7 464.7 190.2 465 189.7C465.3 189.2 465.5 188.5 465.5 187.8C465.5 186.9 465.2 186.3 464.7 185.8C464.2 185.3 463.4 185.1 462.5 185.1C461.4 185.1 460.7 185.4 460.2 186C459.7 186.6 459.4 187.3 459.4 188C459.4 188.5 459.5 188.9 459.6 189.4C459.7 189.9 460 190.4 460.4 191C460.8 191.6 461.4 192.5 462.2 193.6C463 194.7 464.1 196.1 465.5 197.8C466.9 199.5 468.1 200.9 469 202C469.9 203 470.7 203.8 471.3 204.4C471.9 204.9 472.5 205.3 473.1 205.5C473.7 205.7 474.3 205.8 474.9 205.8L474.2 208C473.5 208 472.8 207.9 472.2 207.7C471.6 207.5 470.9 207.2 470.1 206.6C469.3 206 468.4 205.2 467.4 204C466.4 202.9 465.1 201.3 463.5 199.4C462.2 197.7 461.1 196.4 460.2 195.2C459.3 194.1 458.6 193.1 458.1 192.3C457.6 191.5 457.2 190.8 457 190.1C456.8 189.4 456.7 188.8 456.7 188.1C456.7 187.2 456.9 186.3 457.3 185.5C457.7 184.7 458.4 184 459.3 183.4C460.2 182.9 461.3 182.6 462.7 182.6C463.8 182.6 464.7 182.8 465.5 183.2C466.3 183.6 466.9 184.2 467.4 184.9C467.9 185.6 468.1 186.5 468.1 187.5C468.1 188.4 468 189.2 467.7 190C467.4 190.8 466.9 191.5 466.1 192.3C465.3 193.1 464.2 193.8 462.6 194.6L461.3 195.1C460 195.7 459 196.3 458.3 196.8C457.6 197.4 457.1 198 456.8 198.6C456.5 199.2 456.4 200 456.4 200.9C456.4 201.8 456.6 202.6 457.1 203.3C457.6 204 458.2 204.5 459 204.8C459.8 205.1 460.7 205.3 461.7 205.3C463.1 205.3 464.2 205.1 465.1 204.6C466 204.1 466.9 203.4 467.7 202.5L468.2 202.1C468.8 201.1 469.3 199.9 469.7 198.7C470.1 197.4 470.2 196 470.1 194.4L472.6 194.6C472.7 196.2 472.5 197.7 472.1 199.3C471.7 200.8 471 202.2 470 203.4L469.4 204.2C468.5 205.3 467.3 206.2 466 206.8C464.7 207.4 463.1 207.7 461.3 207.7Z" fill="#6e2b5f" stroke="#6e2b5f" stroke-width="0.75" stroke-miterlimit="10"/>
<path d="M234.801 245.7C233.001 245.7 231.301 245.3 229.801 244.6C228.301 243.8 227.101 242.8 226.301 241.3L228.801 239.5C229.301 240.6 230.101 241.5 231.201 242.2C232.301 242.9 233.501 243.2 235.001 243.2C236.301 243.2 237.301 242.9 238.101 242.4C238.801 241.9 239.201 241.2 239.201 240.4C239.201 239.9 239.001 239.4 238.701 239C238.401 238.6 237.701 238.3 236.801 238.1L232.401 237.2C230.601 236.8 229.301 236.2 228.501 235.4C227.701 234.5 227.301 233.5 227.301 232.2C227.301 231.2 227.601 230.3 228.201 229.4C228.801 228.5 229.601 227.9 230.701 227.4C231.801 226.9 233.001 226.6 234.501 226.6C236.301 226.6 237.901 227 239.101 227.7C240.401 228.4 241.301 229.4 241.901 230.7L239.401 232.3C239.001 231.2 238.301 230.4 237.401 229.9C236.501 229.4 235.501 229.1 234.501 229.1C233.601 229.1 232.901 229.2 232.201 229.5C231.601 229.7 231.101 230.1 230.801 230.5C230.501 230.9 230.301 231.4 230.301 232C230.301 232.6 230.501 233 230.901 233.5C231.301 234 232.001 234.3 233.001 234.5L237.601 235.5C239.301 235.8 240.501 236.4 241.201 237.2C241.901 238 242.201 239 242.201 240.1C242.201 241.3 241.901 242.3 241.301 243.2C240.701 244.1 239.801 244.7 238.701 245.2C237.601 245.5 236.301 245.7 234.801 245.7Z" fill="#6e2b5f" stroke="#6e2b5f" stroke-width="0.75" stroke-miterlimit="10"/>
<path d="M251.6 245.7C250.4 245.7 249.3 245.5 248.3 245C247.3 244.6 246.4 243.8 245.7 242.8C245 241.8 244.7 240.5 244.7 238.9V226.8H247.7V238.2C247.7 240.1 248.1 241.4 248.9 242.1C249.7 242.8 250.9 243.2 252.3 243.2C253 243.2 253.7 243.1 254.3 242.8C254.9 242.5 255.6 242.2 256.1 241.7C256.6 241.2 257.1 240.5 257.4 239.8C257.7 239 257.9 238.1 257.9 237V226.9H260.9V245.4H258.3L258.1 242.6C257.5 243.7 256.6 244.5 255.5 245C254.4 245.5 253.1 245.7 251.6 245.7Z" fill="#6e2b5f" stroke="#6e2b5f" stroke-width="0.75" stroke-miterlimit="10"/>
<path d="M265 253.1V226.8H267.6L267.9 231.3L267.5 230.8C267.8 229.9 268.3 229.2 268.9 228.5C269.5 227.8 270.3 227.3 271.2 227C272.1 226.6 273.1 226.4 274.2 226.4C275.7 226.4 277.1 226.8 278.4 227.5C279.7 228.2 280.7 229.4 281.5 230.8C282.3 232.2 282.6 234 282.6 236C282.6 238 282.2 239.7 281.4 241.2C280.6 242.6 279.6 243.7 278.3 244.5C277 245.3 275.6 245.6 274.1 245.6C272.6 245.6 271.2 245.2 270.1 244.5C269 243.7 268.1 242.8 267.6 241.6L268 241V253H265V253.1ZM273.8 243.1C275.6 243.1 277 242.5 278.1 241.2C279.1 239.9 279.6 238.2 279.6 236.1C279.6 234 279.1 232.3 278.1 231C277.1 229.7 275.7 229.1 273.9 229.1C272.7 229.1 271.7 229.4 270.8 230C269.9 230.6 269.2 231.4 268.7 232.4C268.2 233.4 268 234.7 268 236.1C268 237.5 268.2 238.7 268.7 239.8C269.2 240.9 269.9 241.7 270.7 242.3C271.6 242.8 272.6 243.1 273.8 243.1Z" fill="#6e2b5f" stroke="#6e2b5f" stroke-width="0.75" stroke-miterlimit="10"/>
<path d="M285.5 253.1V226.8H288.1L288.4 231.3L288 230.8C288.3 229.9 288.8 229.2 289.4 228.5C290 227.8 290.8 227.3 291.7 227C292.6 226.6 293.6 226.4 294.7 226.4C296.2 226.4 297.6 226.8 298.9 227.5C300.2 228.2 301.2 229.4 302 230.8C302.8 232.2 303.1 234 303.1 236C303.1 238 302.7 239.7 301.9 241.2C301.1 242.6 300.1 243.7 298.8 244.5C297.5 245.3 296.1 245.6 294.6 245.6C293.1 245.6 291.7 245.2 290.6 244.5C289.5 243.7 288.6 242.8 288.1 241.6L288.5 241V253H285.5V253.1ZM294.3 243.1C296.1 243.1 297.5 242.5 298.6 241.2C299.6 239.9 300.1 238.2 300.1 236.1C300.1 234 299.6 232.3 298.6 231C297.6 229.7 296.2 229.1 294.4 229.1C293.2 229.1 292.2 229.4 291.3 230C290.4 230.6 289.7 231.4 289.2 232.4C288.7 233.4 288.5 234.7 288.5 236.1C288.5 237.5 288.7 238.7 289.2 239.8C289.7 240.9 290.4 241.7 291.2 242.3C292.1 242.8 293.1 243.1 294.3 243.1Z" fill="#6e2b5f" stroke="#6e2b5f" stroke-width="0.75" stroke-miterlimit="10"/>
<path d="M314.4 226.5C316.2 226.5 317.7 226.9 319 227.6C320.3 228.3 321.4 229.5 322.2 230.9C323 232.3 323.3 234.1 323.3 236.1C323.3 238.1 322.9 239.8 322.2 241.3C321.4 242.7 320.4 243.8 319 244.6C317.7 245.4 316.1 245.7 314.4 245.7C312.7 245.7 311.1 245.3 309.8 244.6C308.4 243.8 307.4 242.7 306.6 241.3C305.8 239.9 305.5 238.1 305.5 236.1C305.5 234.1 305.9 232.4 306.6 230.9C307.4 229.5 308.4 228.4 309.8 227.6C311.2 226.8 312.6 226.5 314.4 226.5ZM314.4 229C313.1 229 312.1 229.3 311.2 229.9C310.3 230.5 309.6 231.3 309.1 232.3C308.6 233.3 308.4 234.6 308.4 236.1C308.4 237.6 308.6 238.8 309.1 239.9C309.6 241 310.3 241.8 311.2 242.3C312.1 242.9 313.2 243.2 314.4 243.2C315.7 243.2 316.7 242.9 317.6 242.3C318.5 241.7 319.2 240.9 319.7 239.9C320.2 238.8 320.4 237.6 320.4 236.1C320.4 234.6 320.2 233.4 319.7 232.3C319.2 231.3 318.5 230.4 317.6 229.9C316.7 229.3 315.6 229 314.4 229Z" fill="#6e2b5f" stroke="#6e2b5f" stroke-width="0.75" stroke-miterlimit="10"/>
<path d="M326.5 245.3V226.8H328.9L329.3 229.8C329.8 228.7 330.6 227.8 331.6 227.2C332.6 226.6 333.8 226.3 335.2 226.3C335.5 226.3 335.9 226.3 336.3 226.4C336.7 226.4 337 226.5 337.3 226.7L336.8 229.4C336.5 229.3 336.2 229.2 335.9 229.2C335.6 229.2 335.1 229.1 334.5 229.1C333.7 229.1 333 229.3 332.2 229.8C331.4 230.2 330.8 230.9 330.3 231.8C329.8 232.7 329.5 233.8 329.5 235.2V245.2H326.5V245.3Z" fill="#6e2b5f" stroke="#6e2b5f" stroke-width="0.75" stroke-miterlimit="10"/>
<path d="M353.3 226.8V229.4H339.9V226.8H353.3ZM346.6 221.6V240.2C346.6 241.1 346.9 241.8 347.4 242.2C347.9 242.6 348.6 242.9 349.4 242.9C350.1 242.9 350.7 242.8 351.2 242.5C351.7 242.3 352.2 241.9 352.6 241.5L353.6 244C353 244.5 352.4 244.9 351.6 245.2C350.8 245.5 349.9 245.6 348.9 245.6C348 245.6 347.1 245.4 346.3 245.1C345.5 244.8 344.8 244.2 344.4 243.5C343.9 242.8 343.7 241.8 343.6 240.6V222.2L346.6 221.6Z" fill="#6e2b5f" stroke="#6e2b5f" stroke-width="0.75" stroke-miterlimit="10"/>
<path d="M376.2 226.5C377.5 226.5 378.6 226.7 379.6 227.1C380.6 227.5 381.4 228.1 382.1 228.8C382.8 229.5 383.4 230.4 383.8 231.4L381 232.7C380.6 231.5 380 230.6 379.2 230C378.4 229.4 377.4 229.1 376.1 229.1C374.9 229.1 373.8 229.4 372.9 229.9C372 230.5 371.3 231.3 370.9 232.3C370.4 233.3 370.2 234.6 370.2 236.1C370.2 237.6 370.4 238.8 370.9 239.9C371.4 241 372 241.8 372.9 242.3C373.8 242.9 374.8 243.1 376.1 243.1C377.1 243.1 377.9 243 378.6 242.7C379.3 242.4 379.9 242 380.3 241.4C380.8 240.8 381.1 240.1 381.2 239.3L383.9 240.3C383.5 241.4 382.9 242.4 382.2 243.2C381.5 244 380.6 244.6 379.6 245.1C378.6 245.5 377.4 245.7 376.1 245.7C374.4 245.7 372.8 245.3 371.5 244.6C370.1 243.8 369.1 242.7 368.3 241.3C367.5 239.9 367.2 238.1 367.2 236.1C367.2 234.1 367.6 232.4 368.3 230.9C369.1 229.5 370.1 228.4 371.5 227.6C372.9 226.8 374.5 226.5 376.2 226.5Z" fill="#6e2b5f" stroke="#6e2b5f" stroke-width="0.75" stroke-miterlimit="10"/>
<path d="M386.5 245.3V218.3H389.5V229.6C390.1 228.5 391 227.7 392.1 227.2C393.2 226.7 394.3 226.5 395.6 226.5C396.9 226.5 398.1 226.8 399.2 227.3C400.3 227.8 401.2 228.6 401.8 229.6C402.4 230.6 402.8 232 402.8 233.6V245.4H399.8V234.6C399.8 232.6 399.4 231.1 398.5 230.3C397.6 229.5 396.5 229.1 395.3 229.1C394.4 229.1 393.5 229.3 392.6 229.7C391.7 230.1 391 230.8 390.4 231.8C389.8 232.8 389.5 234 389.5 235.6V245.4H386.5V245.3Z" fill="#6e2b5f" stroke="#6e2b5f" stroke-width="0.75" stroke-miterlimit="10"/>
<path d="M417.9 233.4C417.9 232 417.5 231 416.8 230.2C416.1 229.4 415 229.1 413.7 229.1C412.4 229.1 411.3 229.4 410.4 229.9C409.5 230.5 408.9 231.3 408.4 232.6L406 231.1C406.5 229.7 407.4 228.6 408.7 227.8C410 226.9 411.7 226.5 413.7 226.5C415 226.5 416.2 226.7 417.3 227.2C418.4 227.7 419.2 228.3 419.9 229.3C420.6 230.3 420.8 231.4 420.8 232.9V241.9C420.8 242.8 421.3 243.2 422.2 243.2C422.7 243.2 423.1 243.1 423.6 243L423.5 245.3C423 245.5 422.4 245.7 421.6 245.7C420.9 245.7 420.2 245.6 419.7 245.3C419.1 245 418.7 244.6 418.4 244.1C418.1 243.5 417.9 242.8 417.9 242V241.6L418.6 241.7C418.3 242.7 417.8 243.4 417.1 244C416.4 244.6 415.6 245 414.7 245.3C413.8 245.6 412.9 245.7 412.1 245.7C411 245.7 410 245.5 409.1 245.1C408.2 244.7 407.4 244.2 406.9 243.4C406.3 242.6 406.1 241.7 406.1 240.6C406.1 239.2 406.6 238.1 407.5 237.2C408.4 236.3 409.7 235.7 411.4 235.4L418.7 234V236.4L412.7 237.6C411.5 237.8 410.6 238.2 410 238.6C409.4 239 409.1 239.7 409.1 240.5C409.1 241.3 409.4 241.9 410 242.4C410.6 242.9 411.5 243.1 412.6 243.1C413.3 243.1 414 243 414.7 242.8C415.4 242.6 415.9 242.3 416.5 241.9C417 241.5 417.4 241 417.7 240.5C418 239.9 418.1 239.2 418.1 238.4V233.4H417.9Z" fill="#6e2b5f" stroke="#6e2b5f" stroke-width="0.75" stroke-miterlimit="10"/>
<path d="M426.4 245.3V226.8H428.8L429.2 229.8C429.7 228.7 430.5 227.8 431.5 227.2C432.5 226.6 433.7 226.3 435.1 226.3C435.4 226.3 435.8 226.3 436.2 226.4C436.6 226.4 436.9 226.5 437.2 226.7L436.7 229.4C436.4 229.3 436.1 229.2 435.8 229.2C435.5 229.2 435 229.1 434.4 229.1C433.6 229.1 432.9 229.3 432.1 229.8C431.3 230.2 430.7 230.9 430.2 231.8C429.7 232.7 429.4 233.8 429.4 235.2V245.2H426.4V245.3Z" fill="#6e2b5f" stroke="#6e2b5f" stroke-width="0.75" stroke-miterlimit="10"/>
<path d="M442.1 223.3C441.4 223.3 440.9 223.1 440.5 222.7C440.1 222.3 439.9 221.8 439.9 221.1C439.9 220.4 440.1 219.9 440.5 219.5C440.9 219.1 441.4 218.9 442.1 218.9C442.8 218.9 443.3 219.1 443.7 219.5C444.1 219.9 444.3 220.4 444.3 221.1C444.3 221.8 444.1 222.3 443.7 222.7C443.3 223.1 442.7 223.3 442.1 223.3ZM443.6 226.8V245.3H440.6V226.8H443.6Z" fill="#6e2b5f" stroke="#6e2b5f" stroke-width="0.75" stroke-miterlimit="10"/>
<path d="M460.6 226.8V229.4H447.2V226.8H460.6ZM453.9 221.6V240.2C453.9 241.1 454.2 241.8 454.7 242.2C455.2 242.6 455.9 242.9 456.7 242.9C457.4 242.9 458 242.8 458.5 242.5C459 242.3 459.5 241.9 459.9 241.5L460.9 244C460.3 244.5 459.7 244.9 458.9 245.2C458.1 245.5 457.2 245.6 456.2 245.6C455.3 245.6 454.4 245.4 453.6 245.1C452.8 244.8 452.1 244.2 451.7 243.5C451.2 242.8 451 241.8 450.9 240.6V222.2L453.9 221.6Z" fill="#6e2b5f" stroke="#6e2b5f" stroke-width="0.75" stroke-miterlimit="10"/>
<path d="M480.901 226.8L472.201 248.4C471.701 249.6 471.201 250.6 470.701 251.3C470.101 252 469.501 252.5 468.801 252.8C468.101 253.1 467.301 253.3 466.501 253.3C465.701 253.3 464.901 253.2 464.201 252.9C463.501 252.6 462.901 252.4 462.301 252L463.101 249.4C463.601 249.8 464.101 250.2 464.701 250.4C465.301 250.6 465.801 250.7 466.301 250.7C466.901 250.7 467.501 250.5 468.101 250.1C468.701 249.7 469.201 248.9 469.701 247.7L470.701 245.3L468.801 240.9L462.901 226.8H466.301L470.901 238.9L472.001 242.2L473.301 238.5L477.601 226.8H480.901Z" fill="#6e2b5f" stroke="#6e2b5f" stroke-width="0.75" stroke-miterlimit="10"/>
</svg>
