<svg width="23" height="22" viewBox="0 0 23 22" fill="none" xmlns="http://www.w3.org/2000/svg">
<path d="M10.1837 15.7106C10.1691 15.6544 10.1147 15.5698 9.95565 15.4934C9.79425 15.4159 9.59352 15.3851 9.42805 15.4051C8.22284 15.7935 6.92051 15.7583 5.73742 15.3044C4.54171 14.8457 3.54146 13.9877 2.90617 12.8758C2.26005 11.7846 1.89493 10.5501 1.84362 9.28306C1.79228 8.01525 2.05671 6.75454 2.61314 5.61423C3.59597 3.56078 5.66935 1.84 8.02977 1.84H8.03831L8.04686 1.8403C9.22564 1.88062 10.3647 2.27644 11.3145 2.97574C12.2616 3.67307 12.9764 4.63968 13.3657 5.74938C13.9271 7.1798 14.0494 8.74524 13.7168 10.2456C13.3835 11.7492 12.6085 13.1189 11.4913 14.179L11.4851 14.1849L11.485 14.1849C11.3006 14.3539 11.2677 14.4956 11.2703 14.5869C11.2732 14.6898 11.3241 14.8078 11.4332 14.9103C11.6551 15.1188 12.002 15.1712 12.2853 14.9135L12.2906 14.9087L12.2959 14.9041C12.3516 14.8563 12.4066 14.8078 12.4609 14.7586L12.8088 14.4436L13.1452 14.7709C13.165 14.7902 13.1863 14.8087 13.209 14.8263C13.487 15.0406 13.7672 15.2561 14.0491 15.4729L14.0591 15.4806C16.3415 17.2358 18.7382 19.079 20.7877 20.969C21.081 21.2396 21.5381 21.2211 21.8086 20.9278C22.0791 20.6344 22.0606 20.1773 21.7673 19.9068C19.6673 17.9701 17.2113 16.0813 14.9308 14.3279C14.6478 14.1104 14.3676 13.8949 14.0914 13.682M10.1837 15.7106L14.3968 13.286M10.1837 15.7106C10.189 15.8643 10.1372 16.0149 10.0379 16.1331C9.93336 16.2574 9.78444 16.336 9.62282 16.3522L9.57523 16.3569L9.5294 16.3706C7.93111 16.848 6.21468 16.7373 4.69097 16.0585C3.16964 15.3808 1.94086 14.1815 1.22637 12.6772C0.638176 11.3236 0.401189 9.84325 0.537438 8.37353C0.67393 6.90118 1.18056 5.48729 2.0102 4.26331L2.01028 4.26336L2.01554 4.25526C2.79238 3.06014 3.89341 2.11089 5.18988 1.51847C6.48189 0.928091 7.91478 0.716421 9.32212 0.907889M10.1837 15.7106L9.40509 0.414586M14.0914 13.682L14.3968 13.286M14.0914 13.682C14.0914 13.682 14.0914 13.682 14.0914 13.682L14.3968 13.286M14.0914 13.682C14.0853 13.6772 14.0791 13.6726 14.0728 13.668L13.6921 13.393L13.9427 12.9958C14.334 12.3759 14.6453 11.705 14.8663 10.9986C15.3409 9.48187 15.3803 7.86246 14.9802 6.32446L14.9787 6.31866L14.9788 6.31865C14.6453 4.9708 13.9349 3.7458 12.9305 2.78706C11.9298 1.83171 10.6784 1.18011 9.32212 0.907889M14.3968 13.286C14.3864 13.2781 14.376 13.2703 14.3656 13.2627C14.7799 12.6063 15.1095 11.8959 15.3435 11.1479C15.846 9.54187 15.8878 7.82713 15.4641 6.19858C15.1079 4.75852 14.3488 3.44972 13.2758 2.42539C12.2028 1.40106 10.8601 0.70358 9.40509 0.414586M9.32212 0.907889C9.32698 0.908551 9.33185 0.909218 9.33671 0.909889L9.40509 0.414586M9.32212 0.907889C9.31731 0.906924 9.3125 0.905963 9.30768 0.905007L9.40509 0.414586" fill="#6E2B5F" stroke="#551246"/>
</svg>
