<?xml version="1.0" standalone="no"?>
<!DOCTYPE svg PUBLIC "-//W3C//DTD SVG 1.1//EN" "http://www.w3.org/Graphics/SVG/1.1/DTD/svg11.dtd" >
<svg xmlns="http://www.w3.org/2000/svg" xmlns:xlink="http://www.w3.org/1999/xlink" version="1.1">
<metadata>
Created by FontForge 20170731 at Tue Jul 12 16:49:05 2022
 By Aleksey,,,
August 2019 Breast Cancer Now (A working name of Breast Cancer Care and Breast Cancer Now) and Colophon Foundry
</metadata>
<defs>
<font id="ErikaUC-Regular" horiz-adv-x="0" >
  <font-face 
    font-family="Erika UC"
    font-weight="400"
    font-stretch="normal"
    units-per-em="2048"
    panose-1="0 0 5 0 0 0 0 0 0 0"
    ascent="1638"
    descent="-410"
    cap-height="1362"
    bbox="-867.509 -563 2048 2082.38"
    underline-thickness="102"
    underline-position="-307"
    unicode-range="U+000D-25CA"
  />
<missing-glyph horiz-adv-x="1376" 
d="M1090 1544q87 8 139 -29.5t45 -121.5q-11 -132 -37.5 -378.5t-38.5 -400.5q-8 -106 -3.5 -243t-0.5 -244q-1 -18 -5.5 -35t-15 -38t-34 -34t-56.5 -14q-99 -16 -274 -26t-335.5 -14.5t-186.5 -6.5q-87 -8 -139.5 30t-45.5 122q9 102 15 200.5t9 164t8 180.5t9 192
q5 108 19 271t20 257q1 18 5.5 35t15 38t34 34t56.5 14q99 16 274 26t336 14.5t187 6.5zM1026 147q21 258 50 643.5t46 604.5q-35 10 -98 12t-279 -4q-30 -3 -129 -8t-164.5 -12t-101.5 -19q-21 -258 -50 -643.5t-46 -603.5q35 -10 376 0.5t396 29.5zM909 1243
q44 -3 62.5 -50.5t-15.5 -113.5l-172 -293q159 -370 174 -413q17 -52 2 -80t-57 -25q-70 6 -110 115q-7 18 -105 240q-97 -170 -182 -326q-15 -27 -28.5 -37t-33.5 -8q-25 2 -49 25t-31.5 63t25.5 92q19 29 111 186q65 113 110 185l-61 145q-38 93 -88 193q-28 79 63 102
q69 16 117 -100q43 -102 70 -172q91 150 127 223q25 52 71 49z" />
    <glyph glyph-name="A_A.liga" unicode="AA" horiz-adv-x="1986" 
d="M1765 1219q86 -595 72 -1170q-1 -69 -17.5 -96t-54.5 -27q-16 0 -35.5 5.5t-43 21t-42 38.5t-30.5 62t-10 88q4 149 2 226q-127 -16 -254 -41q-2 -14 -9.5 -82t-13.5 -113q-8 -64 -20.5 -87.5t-44.5 -23.5q-29 0 -57 10.5t-53.5 33.5t-38.5 65.5t-7 99.5
q41 347 111 651.5t135 475.5q26 69 91 87t131.5 -8t122.5 -85.5t66 -130.5zM596 1464q98 0 166.5 -86t87.5 -200q78 -481 63 -1129q-1 -69 -17 -96t-54 -27q-16 0 -35.5 5.5t-43.5 21t-42.5 38.5t-30.5 62t-10 88q5 120 2 271q-214 -53 -326 -90q-8 -98 -8 -191
q0 -22 -0.5 -34.5t-4 -29.5t-10 -25.5t-19.5 -15t-31 -6.5q-61 0 -110.5 43t-49.5 125q0 43 4 84q-25 7 -39 27.5t-14 48.5q0 67 69 101l7 30q28 148 59.5 280.5t74.5 264.5t89.5 227t104.5 154t118 59zM387 535q172 53 287 75q-17 357 -72 625q-133 -247 -215 -700z
M1378 524q178 32 221 37q-14 371 -69 656q-90 -312 -152 -693z" />
    <glyph glyph-name="E_E.liga" unicode="EE" horiz-adv-x="2117" 
d="M848 346q23 8 54.5 4t61 -14t51 -32t23.5 -50q1 -22 -16 -38t-59 -34q-33 -14 -104.5 -44.5t-102 -43.5t-86 -35t-85.5 -32t-70 -22t-69.5 -16.5t-56.5 -4.5q-44 0 -81 17t-61.5 41.5t-44 64t-30 71.5t-19 77.5t-11 69t-5.5 58.5q-12 153 7 339t75 462q22 106 113 116
q273 89 477 111q215 22 225 -82q6 -67 -80 -82q-52 -10 -208 -47.5t-291 -75.5q-42 -137 -72 -387q109 29 268 60q88 19 146.5 3t64.5 -69q2 -31 -17.5 -52t-68.5 -32q-308 -79 -411 -108q-3 -100 2 -160q9 -111 30 -180q336 116 451 147zM1950 1212q-304 -28 -439 -55
q-3 -34 -16 -152t-20 -192q167 21 256 16q66 -4 107.5 -43t39.5 -79q0 -12 -3 -20.5t-10 -14t-12.5 -9t-18.5 -5t-19 -2t-24 -1t-24 -0.5q-172 -5 -311 -28q-21 -237 -29 -445q248 42 349 56q53 16 90 16q106 0 106 -98q0 -95 -141 -117q-201 -32 -324 -55
q-149 -29 -232 27.5t-83 187.5q0 207 31.5 547t60.5 540q4 26 7 39.5t11 28t22.5 20.5t37.5 6q45 0 96 -39q208 45 389 52q80 3 140.5 -36t60.5 -87q0 -27 -22.5 -40t-75.5 -18z" />
    <glyph glyph-name="T_T.liga" unicode="TT" horiz-adv-x="1957" 
d="M1759 1378q80 -3 134.5 -49.5t52.5 -93.5q-1 -40 -24.5 -49.5t-90.5 -9.5q-47 0 -313 -7v-4q-33 -211 -60.5 -481t-32.5 -424q-1 -31 -1 -77.5t-1 -63.5q-3 -53 -18.5 -74.5t-50.5 -21.5q-61 0 -115.5 56.5t-54.5 153.5q0 101 33 395t69 535q-317 -7 -565 -18
q5 -196 -8 -503t-31 -419q-20 -111 -48 -158.5t-89 -48.5q-55 -2 -95 59t-26 142q3 19 14 58.5t17 70.5q5 51 9 99.5t7 99.5t5 87t4 90t3 80.5t2 86t1.5 78t1.5 86t1 82.5q-158 -9 -235 -19q-66 -9 -126 39.5t-60 108.5q0 33 26 50t84 23q418 46 832 17q392 34 749 24z
M489 569l-18 -137q9 58 18 137z" />
    <glyph glyph-name=".notdef" horiz-adv-x="1376" 
d="M1090 1544q87 8 139 -29.5t45 -121.5q-11 -132 -37.5 -378.5t-38.5 -400.5q-8 -106 -3.5 -243t-0.5 -244q-1 -18 -5.5 -35t-15 -38t-34 -34t-56.5 -14q-99 -16 -274 -26t-335.5 -14.5t-186.5 -6.5q-87 -8 -139.5 30t-45.5 122q9 102 15 200.5t9 164t8 180.5t9 192
q5 108 19 271t20 257q1 18 5.5 35t15 38t34 34t56.5 14q99 16 274 26t336 14.5t187 6.5zM1026 147q21 258 50 643.5t46 604.5q-35 10 -98 12t-279 -4q-30 -3 -129 -8t-164.5 -12t-101.5 -19q-21 -258 -50 -643.5t-46 -603.5q35 -10 376 0.5t396 29.5zM909 1243
q44 -3 62.5 -50.5t-15.5 -113.5l-172 -293q159 -370 174 -413q17 -52 2 -80t-57 -25q-70 6 -110 115q-7 18 -105 240q-97 -170 -182 -326q-15 -27 -28.5 -37t-33.5 -8q-25 2 -49 25t-31.5 63t25.5 92q19 29 111 186q65 113 110 185l-61 145q-38 93 -88 193q-28 79 63 102
q69 16 117 -100q43 -102 70 -172q91 150 127 223q25 52 71 49z" />
    <glyph glyph-name=".null" 
 />
    <glyph glyph-name="nonmarkingreturn" horiz-adv-x="682" 
 />
    <glyph glyph-name="CR" unicode="&#xd;" horiz-adv-x="471" 
 />
    <glyph glyph-name="space" unicode=" " horiz-adv-x="471" 
 />
    <glyph glyph-name="exclam" unicode="!" horiz-adv-x="524" 
d="M250 276q-52 0 -77.5 37.5t-31.5 122.5q-22 499 47 1096q12 104 107 104q126 0 108 -163q-55 -517 -55 -984q0 -49 -4 -85t-14 -66.5t-30 -46t-50 -15.5zM236 -80q-54 6 -85.5 38t-31.5 81q0 41 41.5 62t101.5 10q53 -11 66.5 -36t13.5 -81q0 -38 -30 -58.5t-76 -15.5z
" />
    <glyph glyph-name="quotedbl" unicode="&#x22;" horiz-adv-x="735" 
d="M524 1065q-53 0 -53 70q0 260 -6 387q-3 60 21 84.5t79 21.5q33 -2 59 -26t33 -66q15 -84 7 -248q-5 -103 -51 -163t-89 -60zM231 1044q-84 0 -84 103q0 248 -12 375q-6 58 19 78.5t88 23.5q79 4 92 -74q20 -115 10 -268q-9 -131 -33.5 -184.5t-79.5 -53.5z" />
    <glyph glyph-name="numbersign" unicode="#" horiz-adv-x="1796" 
d="M1571 1032q109 12 155 -7.5t46 -78.5q0 -44 -36.5 -69.5t-105.5 -30.5q-48 -2 -454 -62q-2 -28 -7.5 -86t-7.5 -86q37 5 72 9q119 12 184.5 -9t65.5 -75q0 -44 -31.5 -66.5t-103.5 -26.5l-203 -20q-6 -69 -14.5 -165.5t-13 -147.5t-5.5 -70q-3 -49 -20 -70.5t-54 -21.5
q-38 0 -78.5 39t-39.5 104q0 28 22 307l-215 -24q-4 -46 -14 -176q-3 -50 -20 -71.5t-54 -21.5q-38 0 -79 39.5t-40 104.5q0 32 6 100q-81 -8 -180 -20.5t-100 -12.5q-57 -6 -88 16.5t-31 69.5q0 45 36 70.5t120 40.5q75 15 260 33q3 25 8 75.5t8 73.5q-56 -9 -211 -30
q-119 -12 -119 86q0 46 35.5 71.5t120.5 40.5q3 0 70.5 11.5t124.5 19.5q23 225 59 477q7 54 26 76t56 22q42 0 75.5 -40.5t22.5 -116.5q-10 -58 -41 -391q24 3 100.5 14.5t118.5 17.5q23 206 52 418q7 54 25.5 76t55.5 22q42 0 76 -40.5t23 -116.5q-12 -86 -35 -332
q201 29 377 51zM961 592q3 28 8 83t8 81q-33 -4 -97 -13.5t-92 -13.5q-5 -1 -15 -2t-15 -2q-6 -79 -15 -156q193 21 218 23z" />
    <glyph glyph-name="dollar" unicode="$" horiz-adv-x="1024" 
d="M918 1292q-151 -45 -259 -90q-7 -85 -38 -399l202 -141q66 -47 92 -110.5t14.5 -126.5t-44 -122t-82.5 -106q-102 -96 -252 -136q-10 -137 -10 -167v-119q0 -84 -52 -84q-46 0 -85 48.5t-39 133.5q0 24 10 164h-13q-191 0 -280 100q-18 20 -15 45t21.5 42t44.5 26t55 -2
q86 -33 203 -19q12 157 41 449q-191 133 -262 196q-47 42 -56 96.5t11.5 104t62.5 92.5q91 94 312 183q16 136 24 192q11 67 23 90t43 23q38 0 70 -46t26 -122l-6 -76q8 2 24.5 6t24.5 6q66 14 116 -5.5t91 -76.5q9 -13 4 -29t-22 -20zM455 918q12 129 20 190
q-90 -53 -129 -111zM629 324q42 30 49 72.5t-15.5 84t-66.5 76.5l-25 -268q34 17 58 35z" />
    <glyph glyph-name="percent" unicode="%" horiz-adv-x="1331" 
d="M240 -322q-33 52 -45.5 116t8.5 130q64 163 137 325t159 329t154 294t175.5 321.5t168.5 309.5q56 103 95 88q54 -21 74 -61.5t-1 -93.5q-46 -105 -141 -291q-50 -95 -342.5 -742.5t-321.5 -701.5q-19 -34 -42.5 -47t-43.5 -5.5t-34 29.5zM457 897q-34 -29 -77.5 -43.5
t-86.5 -14t-84 18t-70.5 47.5t-44 79t-6.5 110q13 100 55 185t113.5 139.5t157.5 54.5q62 0 110.5 -38.5t69.5 -102t19 -137.5t-42 -154.5t-114 -143.5zM270 973q77 55 119.5 152.5t24.5 211.5q-64 -48 -110 -162.5t-34 -201.5zM1016 -76q-44 -18 -91.5 -11.5t-86.5 27.5
t-64.5 65t-25.5 99q0 92 43.5 189.5t119.5 159.5q52 42 117.5 49t120 -21.5t76.5 -83.5q34 -97 12.5 -193t-83.5 -174t-138 -106zM967 121q67 36 95 79t17 79q-12 39 -51.5 33t-52.5 -52q-6 -19 -8 -41.5t-2 -38t1 -35t1 -24.5z" />
    <glyph glyph-name="ampersand" unicode="&#x26;" horiz-adv-x="1429" 
d="M1339 115q51 -53 16 -101q-32 -46 -109 -50q-107 -7 -199 77q-61 58 -125 143q-111 -157 -220.5 -228t-234.5 -71q-139 0 -228 64.5t-117 169t1 231.5q18 76 49 146.5t65.5 123.5t84.5 110t89.5 95t96.5 88q-66 183 -49 295q20 126 98 194t197 68q98 0 151 -63.5
t53 -183.5q0 -87 -45.5 -170t-128.5 -172q59 -103 140 -219q45 115 51 133q24 66 85.5 100.5t127.5 9.5q50 -19 52 -70t-34 -124q-70 -155 -131 -269q171 -229 264 -327zM743 1352q-52 -44 -65.5 -123t10.5 -152l21 21q57 60 66 131.5t-32 122.5zM451 68q74 0 160 79.5
t173 229.5q-114 178 -182 317q-94 -94 -156.5 -177t-93.5 -173q-41 -118 -13.5 -197t112.5 -79z" />
    <glyph glyph-name="quotesingle" unicode="'" horiz-adv-x="409" 
d="M227 1040q-47 0 -72.5 32.5t-23.5 74.5q1 41 6.5 104.5t13 144t11.5 126.5q4 58 29.5 78.5t80.5 23.5q36 2 67 -17t34 -57q11 -128 -19 -282q-28 -138 -51 -183t-76 -45z" />
    <glyph glyph-name="parenleft" unicode="(" horiz-adv-x="737" 
d="M584 1554q68 38 130 -2q48 -31 52 -79q4 -49 -47 -76q-108 -57 -193 -176t-130.5 -268t-58 -307.5t23.5 -310.5t116 -259q44 -3 67 -37t15 -73t-43 -54q-97 -43 -203 63q-91 91 -141 240t-54.5 309t23 319.5t82.5 284.5q37 85 85 158t97.5 124t93 85.5t85.5 58.5z" />
    <glyph glyph-name="parenright" unicode=")" horiz-adv-x="813" 
d="M88 -193q-37 21 -54.5 71t5.5 85q15 20 32.5 41t40 46t33.5 38q141 179 216.5 337.5t91.5 358.5q11 158 -31 298.5t-103 220.5q-40 54 -51.5 115t5.5 104.5t55 54.5q25 7 47 -5t49 -46q289 -358 238 -817q-48 -433 -408 -832q-101 -110 -166 -70z" />
    <glyph glyph-name="asterisk" unicode="*" horiz-adv-x="962" 
d="M831 1214q38 3 73.5 -26.5t35.5 -57.5q0 -15 -9.5 -22t-31.5 -10q-112 -13 -274 -29q6 -15 28 -44.5t56.5 -73.5t54.5 -72q12 -17 10.5 -35.5t-18.5 -30.5q-87 -65 -113 -29q-18 25 -49.5 71.5t-48.5 70.5q0 -54 -19 -195q-3 -22 -28 -22q-52 0 -56 16q-10 44 -23 95.5
t-21 84t-11 51.5q-15 -16 -59 -63t-77.5 -80.5t-60.5 -56.5q-17 -14 -32 12l-27 43q-10 16 20.5 62.5t81.5 112t70 99.5q-148 32 -184 41q-19 5 -24 28t5.5 44t30.5 21q17 0 47 -2t73 -5t68 -4q-23 36 -55 76l-84 111q-8 9 -6 20t12 17q40 30 99 -13q14 -10 46.5 -43
t61.5 -59q-4 93 -16 153q-3 29 26 35l39 6q19 4 27 -10q17 -28 36.5 -80.5t26.5 -83.5q15 18 60.5 76.5t69.5 85.5q30 34 57 31q18 -3 43 -17q14 -9 18.5 -24.5t-2.5 -30.5q-72 -148 -151 -256z" />
    <glyph glyph-name="plus" unicode="+" horiz-adv-x="1085" 
d="M883 817q79 -3 111.5 -52.5t13.5 -133.5q-8 -35 -64 -39q-37 -1 -102 1.5t-92 2.5l-115 -2q-8 -54 -25.5 -155.5t-25.5 -149.5q-6 -36 -32 -60.5t-65 -23.5q-69 2 -91 17t-13 67q27 165 29 182l14 119l-111 -2q-27 -1 -63 -2.5t-55 -2.5t-41.5 0.5t-40.5 6.5
q-21 6 -34.5 50.5t-7 88t35.5 47.5q218 27 340 31q3 30 9.5 85.5t8.5 78.5l12 106q3 31 47 31q31 0 58 -5t51 -22.5t27 -44.5q9 -92 2 -221q173 4 219 2z" />
    <glyph glyph-name="comma" unicode="," horiz-adv-x="532" 
d="M193 -276q-40 0 -63.5 24.5t-23.5 65.5q0 26 10 55t18 43.5t26 44.5q43 69 43 106q0 49 -31 105q-25 48 -25 76q0 38 25.5 61t65.5 23q66 0 117 -82t51 -187q0 -73 -34 -152t-84 -131t-95 -52z" />
    <glyph glyph-name="hyphen" unicode="-" horiz-adv-x="858" 
d="M711 598q-195 6 -500 6q-57 0 -93 35t-38 76q-1 46 42 72t109 26q184 0 340 -6q42 -2 68.5 -7.5t53.5 -22t42.5 -50.5t22.5 -86q2 -15 -11.5 -29t-35.5 -14z" />
    <glyph glyph-name="period" unicode="." horiz-adv-x="512" 
d="M276 20q-26 0 -42.5 1.5t-37 7.5t-36 20t-25.5 37q-16 36 -3 95t46 95q19 21 42.5 25t41.5 -3t43 -22q42 -26 61 -55t19 -82q0 -56 -28.5 -87.5t-80.5 -31.5z" />
    <glyph glyph-name="slash" unicode="/" horiz-adv-x="937" 
d="M166 -94q-63 26 -90 76.5t-17 99.5q9 41 50 133q116 241 200 406q176 352 252 512q49 98 139 294l48 99q5 12 16.5 18t23.5 0q101 -41 115 -123t-57 -223l-90 -180q-118 -224 -199 -400q-33 -69 -106.5 -224t-88.5 -187q-52 -117 -102 -219q-48 -102 -94 -82z" />
    <glyph glyph-name="zero" unicode="0" horiz-adv-x="1097" 
d="M614 1434q167 0 276 -185t109 -485q0 -416 -125.5 -635t-373.5 -219q-83 0 -154 30.5t-127.5 93t-88.5 169t-32 246.5q0 270 66.5 494.5t185 356.5t264.5 134zM506 135q120 0 182 162t62 469t-144 477q-132 -153 -196 -368t-64 -445q0 -295 160 -295z" />
    <glyph glyph-name="one" unicode="1" horiz-adv-x="659" 
d="M530 70q3 -53 -10.5 -76.5t-48.5 -26.5q-60 -7 -120 44t-70 147q-10 106 -9.5 400.5t9.5 549.5q-23 -21 -45 -37q-30 -26 -74.5 -2t-71.5 86q-18 42 30 105.5t119.5 109t118.5 45.5q62 0 111.5 -43.5t46.5 -109.5q-10 -247 -9.5 -571.5t11.5 -479.5q2 -33 6.5 -79
t5.5 -62z" />
    <glyph glyph-name="two" unicode="2" horiz-adv-x="1257" 
d="M1094 178q44 -44 64 -100t7.5 -94.5t-53.5 -38.5t-68 13t-42 31t-47.5 47.5t-73.5 53.5q-126 73 -295 66q-115 -185 -232 -185q-82 0 -120.5 38.5t-38.5 88.5q0 127 145 191q115 157 190.5 354.5t75.5 376.5q0 71 -29.5 105t-93.5 34q-65 0 -147 -39q-24 -11 -56.5 -9.5
t-60 13.5t-48.5 31.5t-21.5 45t20.5 54.5q45 55 135 79t162 24q358 0 358 -359q0 -141 -39 -318t-104 -335q121 -6 229.5 -50t182.5 -118z" />
    <glyph glyph-name="three" unicode="3" horiz-adv-x="1179" 
d="M444 35q-65 0 -123 9.5t-108 29.5t-79.5 55.5t-29.5 83.5q0 36 29 60.5t78 11.5q105 -27 238 -27q190 0 289.5 58t99.5 165q0 114 -97 165.5t-276 37.5q-90 -7 -128 20.5t-38 83.5q0 103 295 390q-156 15 -350 -9q-154 -19 -154 80q0 41 34 70t93.5 44.5t127.5 22.5
t149 7q130 0 225 -37.5t120 -102.5t-51 -151q-16 -17 -92.5 -96t-115.5 -123q221 6 361 -108.5t140 -289.5q0 -99 -38 -178.5t-99.5 -129t-146.5 -82.5t-171.5 -46.5t-181.5 -13.5z" />
    <glyph glyph-name="four" unicode="4" horiz-adv-x="1030" 
d="M872 725q60 -477 60 -578q0 -116 -88 -116q-57 0 -100.5 47t-49.5 117q-3 34 -10.5 123t-9.5 116q-198 -31 -299 -31q-277 0 -277 291q0 241 133 690q14 44 38 64t65 20q20 0 41.5 -10t41.5 -32t25 -58t-8 -88q-33 -113 -69 -306t-35 -288q0 -52 8 -88q190 15 321 35
q-14 191 -14 244q0 41 24 67.5t62 26.5q54 0 89 -46.5t44 -131.5q1 -4 2 -13.5t2.5 -25.5t3.5 -29z" />
    <glyph glyph-name="five" unicode="5" horiz-adv-x="1191" 
d="M328 1339l587 9q48 2 90.5 0t75 -8t51.5 -25.5t19 -52.5q0 -51 -49.5 -87.5t-134.5 -33.5q-57 2 -122.5 2.5t-113.5 0.5t-159 -1t-187 -2q-9 -47 -25.5 -159t-27.5 -173q114 21 233 18q68 -1 137 -19.5t131.5 -53t102 -95t39.5 -135.5q0 -74 -42.5 -151t-114.5 -140
t-177 -103t-219 -40q-182 0 -270 68q-37 29 -41 89t30 97t90 8q70 -37 193 -37q48 0 97 12.5t98.5 37.5t90.5 72t62 108q-81 60 -192.5 75t-270.5 -12q-53 -9 -96.5 11t-67 55t-35 73t-8.5 68q19 187 80 428q23 96 146 96z" />
    <glyph glyph-name="six" unicode="6" horiz-adv-x="882" 
d="M471 782q132 0 220.5 -106t88.5 -264q0 -53 -8 -108t-29.5 -118t-54.5 -111t-89.5 -80t-127.5 -32q-63 0 -116.5 22t-91.5 59t-68 88.5t-49 107.5t-31.5 119.5t-17.5 121t-5 115.5q0 134 1.5 195t10 186.5t31.5 248t62 261.5q12 44 46 70t79 26q65 0 91.5 -46t4.5 -122
q-67 -241 -88 -665q68 32 141 32zM465 166q94 86 94 237q0 109 -63 201q-97 -41 -168 -131q5 -101 35 -177t102 -130z" />
    <glyph glyph-name="seven" unicode="7" horiz-adv-x="856" 
d="M551 1444q83 0 147 -54t64 -124q0 -108 -42.5 -409.5t-109.5 -666.5q-16 -81 -36.5 -113t-65.5 -32q-62 0 -100 64.5t-21 140.5q1 4 88 586q8 55 57 395q-124 -4 -309 -29q-64 -9 -113 28.5t-49 94.5q0 33 25.5 55.5t67.5 28.5q88 12 215.5 23.5t181.5 11.5z" />
    <glyph glyph-name="eight" unicode="8" horiz-adv-x="1019" 
d="M670 731q112 -76 173.5 -160t61.5 -194q0 -105 -73.5 -195.5t-197 -143t-265.5 -52.5q-122 0 -197.5 67t-75.5 176q0 92 65 222t165 245q-64 38 -103 67t-75 67.5t-52 85t-16 104.5q0 81 66 176.5t167 167.5t195 88q130 20 160 -53q23 10 55 10q92 0 151.5 -65t59.5 -166
q0 -122 -64 -220t-200 -227zM584 1264q-89 -15 -183 -100.5t-94 -151.5q0 -31 9 -47.5t44 -42.5t121 -76q109 101 169.5 192t60.5 152q0 15 -21 27q-50 30 -63 61q-23 -12 -43 -14zM393 180q94 0 191.5 70t97.5 137q0 49 -35 91.5t-129 103.5q-86 -95 -138 -192t-52 -163
q0 -26 14 -36.5t51 -10.5z" />
    <glyph glyph-name="nine" unicode="9" horiz-adv-x="903" 
d="M635 1380q50 -32 79.5 -66t54 -101.5t34.5 -177.5t10 -281q0 -160 -33 -291.5t-85 -215.5t-119 -141.5t-132 -81.5t-127 -24q-116 0 -195 61.5t-79 145.5q0 33 31 61.5t65 28.5q88 0 158 -100q91 15 160.5 103t104 216t32.5 270q-112 -112 -246 -112q-109 0 -182.5 90.5
t-73.5 226.5q0 105 51 206t135 165.5t175 69.5q98 0 182 -52zM381 874q74 52 118 117t44 127q0 99 -78 146q-64 -46 -99.5 -117t-35.5 -143q0 -79 51 -130z" />
    <glyph glyph-name="colon" unicode=":" horiz-adv-x="514" 
d="M242 647q-66 2 -96.5 30t-30.5 91t42 100.5t111 36.5q32 -1 55.5 -21t34.5 -50.5t16 -57.5t5 -51q-10 -43 -25 -60t-42 -18.5t-70 0.5zM313 109q-52 -25 -126.5 23.5t-82.5 105.5q-7 55 35.5 99t104.5 44q63 0 106 -35.5t58 -95.5q14 -54 -9.5 -82.5t-85.5 -58.5z" />
    <glyph glyph-name="semicolon" unicode=";" horiz-adv-x="464" 
d="M270 639q-62 0 -104.5 35.5t-56.5 93.5q-12 53 10 81t82 58q51 25 124 -23t81 -104q8 -53 -35 -97t-101 -44zM172 -270q-44 8 -67.5 39t-16.5 75q4 24 25 94.5t32 135.5q11 70 -6 151l-5 20t-4.5 20.5t-2.5 21t2 22.5q9 42 46 65t79 15q68 -12 103.5 -113t13.5 -215
q-19 -97 -45 -171t-66.5 -121.5t-87.5 -38.5z" />
    <glyph glyph-name="less" unicode="&#x3c;" horiz-adv-x="901" 
d="M344 614l334 -295q51 -15 76 -51q18 -24 23 -49.5t-3 -46.5t-23 -39t-38 -28t-48.5 -13t-54.5 5.5t-55 27.5q-111 84 -274 218.5t-175 143.5q-57 46 -59.5 101t57.5 106q7 6 121 96.5t210 175t165 160.5q38 41 79.5 51t70.5 -9t47 -49.5t11.5 -72t-38.5 -75.5
q-73 -77 -196 -183t-230 -174z" />
    <glyph glyph-name="equal" unicode="=" horiz-adv-x="1085" 
d="M252 799q-90 0 -131 94q-9 19 0 41.5t29 26.5q131 28 326.5 43t273.5 0q59 -11 102 -76q38 -58 25 -94q-9 -23 -39 -23q-100 0 -294.5 -6t-291.5 -6zM213 416q-20 -1 -37.5 11.5t-23.5 31.5l-31 69q-14 36 1 68t48 33q341 21 684 18q58 -1 95 -49t20.5 -97t-88.5 -52
q-113 -5 -336.5 -16.5t-331.5 -16.5z" />
    <glyph glyph-name="greater" unicode="&#x3e;" horiz-adv-x="843" 
d="M694 770q43 -45 53.5 -94t-6 -91t-55.5 -81q-231 -236 -354 -342q-60 -50 -152 -46q-75 4 -101 40q-24 34 19 77q72 72 227 214t189 174l-336 256q-44 34 -60.5 74.5t-4.5 70.5t38.5 50.5t69 18t84.5 -29.5q91 -59 223 -157.5t166 -133.5z" />
    <glyph glyph-name="question" unicode="?" horiz-adv-x="755" 
d="M305 383q-118 0 -135 174q-11 113 38 205.5t177 187.5q83 62 111.5 144.5t13.5 203.5q-22 31 -70.5 40.5t-88 4t-70.5 -15.5q-56 -18 -82 -18q-35 0 -55.5 26.5t-20.5 65.5q0 56 68.5 89.5t199.5 33.5q144 0 233 -76.5t89 -230.5q0 -105 -54.5 -197.5t-191.5 -204.5
q-78 -63 -99 -134t3 -153q7 -30 9 -51.5t-1.5 -45t-22 -36t-51.5 -12.5zM338 -18q-52 -13 -100 24t-48 84q0 53 38 83t75 30q54 0 92.5 -26t38.5 -64q0 -54 -21.5 -86t-74.5 -45z" />
    <glyph glyph-name="at" unicode="@" horiz-adv-x="1665" 
d="M1249 -156q-124 -59 -256.5 -81.5t-256.5 -9t-235.5 67t-194 138.5t-131 213.5t-48.5 284.5q0 178 50 333t133.5 264.5t193 189t229 117.5t240.5 38q171 0 308 -63t219.5 -188.5t82.5 -293.5q0 -151 -62.5 -278.5t-161.5 -199t-208 -71.5q-54 0 -90.5 38.5t-48.5 111.5
q-90 -97 -174 -150q-109 -68 -204.5 -25t-109.5 162q-18 150 40.5 275.5t168.5 197.5q52 33 125.5 41.5t116.5 -12.5q41 -18 69 -35q60 -38 66 -100q17 -208 76 -340q90 40 137 129t47 221q0 177 -98 282t-301 105q-79 0 -156 -22.5t-146.5 -64t-129 -104t-103 -139
t-68 -173.5t-24.5 -203q0 -127 36 -228t96.5 -163t139 -100t164.5 -45t172 8.5t162 54.5q82 41 142 -7q45 -37 45 -93q0 -58 -52 -83zM729 430q86 41 147.5 139t61.5 191q0 34 -10 61q-49 -3 -96.5 -44t-76 -100t-39.5 -126t13 -121z" />
    <glyph glyph-name="A" unicode="A" horiz-adv-x="1062" 
d="M850 1178q78 -481 63 -1129q-1 -69 -17 -96t-54 -27q-16 0 -35.5 5.5t-43.5 21t-42.5 38.5t-30.5 62t-10 88q5 120 2 271q-214 -53 -326 -90q-8 -98 -8 -191q0 -22 -0.5 -34.5t-4 -29.5t-10 -25.5t-19.5 -15t-31 -6.5q-61 0 -110.5 43t-49.5 125q0 43 4 84
q-25 7 -39 27.5t-14 48.5q0 67 69 101l7 30q28 148 59.5 280.5t74.5 264.5t89.5 227t104.5 154t118 59q98 0 166.5 -86t87.5 -200zM387 535q172 53 287 75q-17 357 -72 625q-133 -247 -215 -700z" />
    <glyph glyph-name="A" unicode="a" horiz-adv-x="1062" 
d="M850 1178q78 -481 63 -1129q-1 -69 -17 -96t-54 -27q-16 0 -35.5 5.5t-43.5 21t-42.5 38.5t-30.5 62t-10 88q5 120 2 271q-214 -53 -326 -90q-8 -98 -8 -191q0 -22 -0.5 -34.5t-4 -29.5t-10 -25.5t-19.5 -15t-31 -6.5q-61 0 -110.5 43t-49.5 125q0 43 4 84
q-25 7 -39 27.5t-14 48.5q0 67 69 101l7 30q28 148 59.5 280.5t74.5 264.5t89.5 227t104.5 154t118 59q98 0 166.5 -86t87.5 -200zM387 535q172 53 287 75q-17 357 -72 625q-133 -247 -215 -700z" />
    <glyph glyph-name="B" unicode="B" horiz-adv-x="1304" 
d="M786 831q230 20 334 -54t84 -242q-6 -52 -44.5 -121t-98 -139.5t-141.5 -136.5t-170 -115t-189 -73t-192 -11q-131 19 -190 136.5t-54 344.5q4 138 26 359t44 364q23 131 50.5 178.5t114.5 85.5q80 37 184 50t199 1q51 -7 96.5 -24.5t87 -48.5t62 -84t10.5 -121
q-17 -159 -213 -349zM709 1292q-49 5 -119 -11t-148 -64q-39 -233 -59 -457q177 119 279 234t114 208q6 40 -9.5 61.5t-57.5 28.5zM410 143q115 14 242 84.5t224.5 187t110.5 240.5q-63 12 -141.5 6.5t-155.5 -23.5t-162.5 -65.5t-162.5 -119.5q-3 -251 45 -310z" />
    <glyph glyph-name="B" unicode="b" horiz-adv-x="1304" 
d="M786 831q230 20 334 -54t84 -242q-6 -52 -44.5 -121t-98 -139.5t-141.5 -136.5t-170 -115t-189 -73t-192 -11q-131 19 -190 136.5t-54 344.5q4 138 26 359t44 364q23 131 50.5 178.5t114.5 85.5q80 37 184 50t199 1q51 -7 96.5 -24.5t87 -48.5t62 -84t10.5 -121
q-17 -159 -213 -349zM709 1292q-49 5 -119 -11t-148 -64q-39 -233 -59 -457q177 119 279 234t114 208q6 40 -9.5 61.5t-57.5 28.5zM410 143q115 14 242 84.5t224.5 187t110.5 240.5q-63 12 -141.5 6.5t-155.5 -23.5t-162.5 -65.5t-162.5 -119.5q-3 -251 45 -310z" />
    <glyph glyph-name="C" unicode="C" horiz-adv-x="1136" 
d="M483 -35q-179 3 -284 124.5t-105 344.5q0 194 49.5 380.5t132.5 327.5t198 227.5t239 86.5q95 0 142.5 -41t47.5 -102q0 -47 -31.5 -78t-83.5 -31q-77 0 -120 49q-130 -99 -228 -333.5t-98 -477.5q0 -119 29.5 -182.5t85.5 -99.5q127 19 223 89.5t180 231.5
q23 45 44.5 64.5t53.5 19.5q50 0 79.5 -64.5t6.5 -129.5q-61 -172 -217.5 -290.5t-343.5 -115.5z" />
    <glyph glyph-name="C" unicode="c" horiz-adv-x="1136" 
d="M483 -35q-179 3 -284 124.5t-105 344.5q0 194 49.5 380.5t132.5 327.5t198 227.5t239 86.5q95 0 142.5 -41t47.5 -102q0 -47 -31.5 -78t-83.5 -31q-77 0 -120 49q-130 -99 -228 -333.5t-98 -477.5q0 -119 29.5 -182.5t85.5 -99.5q127 19 223 89.5t180 231.5
q23 45 44.5 64.5t53.5 19.5q50 0 79.5 -64.5t6.5 -129.5q-61 -172 -217.5 -290.5t-343.5 -115.5z" />
    <glyph glyph-name="D" unicode="D" horiz-adv-x="1171" 
d="M666 1393q209 0 319.5 -108.5t110.5 -289.5q0 -93 -22 -186.5t-76 -200t-137.5 -208t-213.5 -210t-297 -206.5q-84 -48 -106 -55q-19 -5 -45 -5q-50 0 -96 25.5t-46 73.5q0 42 28.5 68.5t70.5 31.5l47 29q-22 24 -27 62.5t0.5 114t5.5 105.5q0 83 4 389.5t4 327.5
q0 88 82 119q75 59 177.5 91t216.5 32zM408 287q226 168 340 347.5t114 360.5q0 203 -207 203q-107 0 -233 -70v-2q8 -387 -14 -839z" />
    <glyph glyph-name="D" unicode="d" horiz-adv-x="1171" 
d="M666 1393q209 0 319.5 -108.5t110.5 -289.5q0 -93 -22 -186.5t-76 -200t-137.5 -208t-213.5 -210t-297 -206.5q-84 -48 -106 -55q-19 -5 -45 -5q-50 0 -96 25.5t-46 73.5q0 42 28.5 68.5t70.5 31.5l47 29q-22 24 -27 62.5t0.5 114t5.5 105.5q0 83 4 389.5t4 327.5
q0 88 82 119q75 59 177.5 91t216.5 32zM408 287q226 168 340 347.5t114 360.5q0 203 -207 203q-107 0 -233 -70v-2q8 -387 -14 -839z" />
    <glyph glyph-name="E" unicode="E" horiz-adv-x="1107" 
d="M1038 254q1 -22 -16 -38t-59 -34q-33 -14 -104.5 -44.5t-102 -43.5t-86 -35t-85.5 -32t-70 -22t-69.5 -16.5t-56.5 -4.5q-44 0 -81 17t-61.5 41.5t-44 64t-30 71.5t-19 77.5t-11 69t-5.5 58.5q-12 153 7 339t75 462q22 106 113 116q273 89 477 111q215 22 225 -82
q6 -67 -80 -82q-52 -10 -208 -47.5t-291 -75.5q-42 -137 -72 -387q109 29 268 60q88 19 146.5 3t64.5 -69q2 -31 -17.5 -52t-68.5 -32q-308 -79 -411 -108q-3 -100 2 -160q9 -111 30 -180q336 116 451 147q23 8 54.5 4t61 -14t51 -32t23.5 -50z" />
    <glyph glyph-name="E" unicode="e" horiz-adv-x="1107" 
d="M1038 254q1 -22 -16 -38t-59 -34q-33 -14 -104.5 -44.5t-102 -43.5t-86 -35t-85.5 -32t-70 -22t-69.5 -16.5t-56.5 -4.5q-44 0 -81 17t-61.5 41.5t-44 64t-30 71.5t-19 77.5t-11 69t-5.5 58.5q-12 153 7 339t75 462q22 106 113 116q273 89 477 111q215 22 225 -82
q6 -67 -80 -82q-52 -10 -208 -47.5t-291 -75.5q-42 -137 -72 -387q109 29 268 60q88 19 146.5 3t64.5 -69q2 -31 -17.5 -52t-68.5 -32q-308 -79 -411 -108q-3 -100 2 -160q9 -111 30 -180q336 116 451 147q23 8 54.5 4t61 -14t51 -32t23.5 -50z" />
    <glyph glyph-name="F" unicode="F" horiz-adv-x="1044" 
d="M889 1249q-347 -32 -496 -67q4 -180 4 -432q96 20 208 31t181 7q66 -4 108 -43t40 -79q0 -12 -3 -20.5t-10 -14t-12.5 -9t-18.5 -5t-19 -2t-24 -1t-24 -0.5q-250 -6 -426 -51q-4 -299 -10 -438q-3 -84 -63 -84q-67 0 -120.5 51t-53.5 135q0 50 5 276t7 392t-4 360
q-3 67 30 105.5t93 38.5q48 0 77 -29q226 53 428 60q80 3 140.5 -36t60.5 -87q0 -27 -22.5 -40t-75.5 -18z" />
    <glyph glyph-name="F" unicode="f" horiz-adv-x="1044" 
d="M889 1249q-347 -32 -496 -67q4 -180 4 -432q96 20 208 31t181 7q66 -4 108 -43t40 -79q0 -12 -3 -20.5t-10 -14t-12.5 -9t-18.5 -5t-19 -2t-24 -1t-24 -0.5q-250 -6 -426 -51q-4 -299 -10 -438q-3 -84 -63 -84q-67 0 -120.5 51t-53.5 135q0 50 5 276t7 392t-4 360
q-3 67 30 105.5t93 38.5q48 0 77 -29q226 53 428 60q80 3 140.5 -36t60.5 -87q0 -27 -22.5 -40t-75.5 -18z" />
    <glyph glyph-name="G" unicode="G" horiz-adv-x="1433" 
d="M1241 909q133 12 133 -51q0 -47 -36.5 -87t-96.5 -44l-104 -12q-15 -245 -12.5 -346t22.5 -291q6 -67 -8 -92t-56 -25q-54 0 -103 40.5t-56 113.5q-6 54 -9 153q-95 -96 -215 -149t-235 -53q-47 0 -93 12.5t-92 42t-80 73t-55.5 112.5t-21.5 153q0 140 36.5 282.5
t99.5 261t141.5 212t168 146t172.5 52.5q80 0 124 -31t44 -86q0 -51 -29 -79.5t-79 -28.5q-61 0 -113 24q-89 -77 -157.5 -179t-106 -201t-56 -185.5t-18.5 -154.5q0 -192 127 -224q115 7 234 88t202 232q0 55 2 84q-23 -5 -60 -15t-46 -12q-103 -27 -150 -27q-73 0 -73 62
q0 44 40.5 86t100.5 57q250 63 514 86z" />
    <glyph glyph-name="G" unicode="g" horiz-adv-x="1433" 
d="M1241 909q133 12 133 -51q0 -47 -36.5 -87t-96.5 -44l-104 -12q-15 -245 -12.5 -346t22.5 -291q6 -67 -8 -92t-56 -25q-54 0 -103 40.5t-56 113.5q-6 54 -9 153q-95 -96 -215 -149t-235 -53q-47 0 -93 12.5t-92 42t-80 73t-55.5 112.5t-21.5 153q0 140 36.5 282.5
t99.5 261t141.5 212t168 146t172.5 52.5q80 0 124 -31t44 -86q0 -51 -29 -79.5t-79 -28.5q-61 0 -113 24q-89 -77 -157.5 -179t-106 -201t-56 -185.5t-18.5 -154.5q0 -192 127 -224q115 7 234 88t202 232q0 55 2 84q-23 -5 -60 -15t-46 -12q-103 -27 -150 -27q-73 0 -73 62
q0 44 40.5 86t100.5 57q250 63 514 86z" />
    <glyph glyph-name="H" unicode="H" horiz-adv-x="1191" 
d="M899 1376q63 0 106 -40.5t37 -108.5q-49 -554 -22 -1000q5 -76 -10 -106.5t-60 -30.5q-62 0 -109 47t-53 139q-9 146 -6 340q-37 -7 -383 -79q-12 -282 -12 -357q0 -27 -0.5 -41.5t-4 -32t-11 -25.5t-20.5 -14t-32 -6q-61 0 -111 41t-50 117q0 49 8 291q-49 24 -49 78
q0 65 57 90q17 348 39 559q6 64 23.5 88.5t64.5 24.5q63 0 104.5 -43.5t34.5 -120.5q-16 -181 -30 -445q43 10 102 22.5t140 29.5t134 28q9 277 29 455q7 58 21 79t63 21z" />
    <glyph glyph-name="H" unicode="h" horiz-adv-x="1191" 
d="M899 1376q63 0 106 -40.5t37 -108.5q-49 -554 -22 -1000q5 -76 -10 -106.5t-60 -30.5q-62 0 -109 47t-53 139q-9 146 -6 340q-37 -7 -383 -79q-12 -282 -12 -357q0 -27 -0.5 -41.5t-4 -32t-11 -25.5t-20.5 -14t-32 -6q-61 0 -111 41t-50 117q0 49 8 291q-49 24 -49 78
q0 65 57 90q17 348 39 559q6 64 23.5 88.5t64.5 24.5q63 0 104.5 -43.5t34.5 -120.5q-16 -181 -30 -445q43 10 102 22.5t140 29.5t134 28q9 277 29 455q7 58 21 79t63 21z" />
    <glyph glyph-name="I" unicode="I" horiz-adv-x="546" 
d="M270 23q-61 0 -115.5 56.5t-54.5 153.5q0 106 37.5 427.5t75.5 566.5q13 80 29 107.5t59 27.5q22 0 47.5 -13t47.5 -36.5t33.5 -62.5t4.5 -85q-33 -216 -60.5 -485t-31.5 -420q-1 -31 -1 -77t-1 -64q-1 -52 -17.5 -74t-52.5 -22z" />
    <glyph glyph-name="I" unicode="i" horiz-adv-x="546" 
d="M270 23q-61 0 -115.5 56.5t-54.5 153.5q0 106 37.5 427.5t75.5 566.5q13 80 29 107.5t59 27.5q22 0 47.5 -13t47.5 -36.5t33.5 -62.5t4.5 -85q-33 -216 -60.5 -485t-31.5 -420q-1 -31 -1 -77t-1 -64q-1 -52 -17.5 -74t-52.5 -22z" />
    <glyph glyph-name="J" unicode="J" horiz-adv-x="1024" 
d="M872 1284q88 -637 -63.5 -962.5t-532.5 -325.5q-119 0 -187.5 39t-68.5 106q0 50 35 79.5t95 29.5q55 0 122 -31q234 8 321.5 236t43.5 716q-136 -38 -270 -38q-77 0 -129 44.5t-52 92.5q0 67 97 67q175 0 315 41q103 29 145 29q114 0 129 -123z" />
    <glyph glyph-name="J" unicode="j" horiz-adv-x="1024" 
d="M872 1284q88 -637 -63.5 -962.5t-532.5 -325.5q-119 0 -187.5 39t-68.5 106q0 50 35 79.5t95 29.5q55 0 122 -31q234 8 321.5 236t43.5 716q-136 -38 -270 -38q-77 0 -129 44.5t-52 92.5q0 67 97 67q175 0 315 41q103 29 145 29q114 0 129 -123z" />
    <glyph glyph-name="K" unicode="K" horiz-adv-x="1155" 
d="M1094 152q24 -36 29.5 -67.5t-10.5 -51t-50 -19.5q-150 0 -229 125q-169 270 -283 535l-19 -19q-80 -76 -143 -127q7 -215 29 -413q6 -48 6.5 -82t-15.5 -52t-53 -18q-70 0 -122.5 47t-61.5 121q-24 212 -26.5 465.5t7.5 425t25 313.5q7 69 29.5 94t64.5 25
q50 0 98.5 -59t41.5 -127q-27 -250 -27 -467q102 107 208.5 243.5t168.5 239.5q23 38 65.5 52t83.5 -3q40 -17 50 -59t-11 -96q-14 -36 -81 -130.5t-150 -193.5q88 -193 193 -391t182 -311z" />
    <glyph glyph-name="K" unicode="k" horiz-adv-x="1155" 
d="M1094 152q24 -36 29.5 -67.5t-10.5 -51t-50 -19.5q-150 0 -229 125q-169 270 -283 535l-19 -19q-80 -76 -143 -127q7 -215 29 -413q6 -48 6.5 -82t-15.5 -52t-53 -18q-70 0 -122.5 47t-61.5 121q-24 212 -26.5 465.5t7.5 425t25 313.5q7 69 29.5 94t64.5 25
q50 0 98.5 -59t41.5 -127q-27 -250 -27 -467q102 107 208.5 243.5t168.5 239.5q23 38 65.5 52t83.5 -3q40 -17 50 -59t-11 -96q-14 -36 -81 -130.5t-150 -193.5q88 -193 193 -391t182 -311z" />
    <glyph glyph-name="L" unicode="L" horiz-adv-x="948" 
d="M795 213q106 0 106 -98q0 -95 -141 -117q-201 -32 -324 -55q-149 -29 -232 27.5t-83 187.5q0 73 6.5 185t14.5 213.5t21.5 240.5t21.5 214.5t21 191.5t13 120q5 50 20 72t58 22q53 0 107 -49t47 -123q-4 -43 -28.5 -265.5t-41.5 -427t-25 -411.5q248 42 349 56
q53 16 90 16z" />
    <glyph glyph-name="L" unicode="l" horiz-adv-x="948" 
d="M795 213q106 0 106 -98q0 -95 -141 -117q-201 -32 -324 -55q-149 -29 -232 27.5t-83 187.5q0 73 6.5 185t14.5 213.5t21.5 240.5t21.5 214.5t21 191.5t13 120q5 50 20 72t58 22q53 0 107 -49t47 -123q-4 -43 -28.5 -265.5t-41.5 -427t-25 -411.5q248 42 349 56
q53 16 90 16z" />
    <glyph glyph-name="M" unicode="M" horiz-adv-x="1595" 
d="M1427 213q2 -39 0.5 -70t-7.5 -52t-21.5 -32.5t-42.5 -11.5q-71 -1 -117.5 52t-48.5 122q-2 127 4 445.5t2 545.5q-89 -152 -181.5 -383t-146.5 -469q1 -70 -7 -118t-25 -72.5t-36 -35t-44 -11.5q-54 -2 -86.5 29.5t-36.5 95.5q-5 62 18 192q-23 362 -69 662
q-97 -172 -180.5 -425t-100.5 -495q-3 -62 -19 -89t-53 -27q-78 0 -113.5 48.5t-35.5 116.5q-2 87 37.5 253t122 375.5t182.5 367.5q36 57 71 86.5t89 29.5q62 0 123 -43.5t75 -119.5q18 -88 35 -224q56 129 115 228.5t126 164.5t126 66q113 1 169.5 -45.5t59.5 -112.5
q16 -236 16 -1044z" />
    <glyph glyph-name="M" unicode="m" horiz-adv-x="1595" 
d="M1427 213q2 -39 0.5 -70t-7.5 -52t-21.5 -32.5t-42.5 -11.5q-71 -1 -117.5 52t-48.5 122q-2 127 4 445.5t2 545.5q-89 -152 -181.5 -383t-146.5 -469q1 -70 -7 -118t-25 -72.5t-36 -35t-44 -11.5q-54 -2 -86.5 29.5t-36.5 95.5q-5 62 18 192q-23 362 -69 662
q-97 -172 -180.5 -425t-100.5 -495q-3 -62 -19 -89t-53 -27q-78 0 -113.5 48.5t-35.5 116.5q-2 87 37.5 253t122 375.5t182.5 367.5q36 57 71 86.5t89 29.5q62 0 123 -43.5t75 -119.5q18 -88 35 -224q56 129 115 228.5t126 164.5t126 66q113 1 169.5 -45.5t59.5 -112.5
q16 -236 16 -1044z" />
    <glyph glyph-name="N" unicode="N" horiz-adv-x="1296" 
d="M1004 1419q51 0 106.5 -59t52.5 -123q-6 -161 -19 -328.5t-36.5 -424.5t-32.5 -369q-4 -55 -27.5 -84t-62.5 -29q-53 0 -101.5 36t-70.5 89q-79 194 -205.5 526.5t-185.5 466.5q-72 -525 -53 -860q6 -107 12 -174q8 -52 0.5 -80.5t-51.5 -28.5q-68 0 -128 63.5t-65 133.5
q-18 252 6.5 531.5t75.5 531.5q13 68 46 103.5t100 35.5q77 0 141 -39.5t104 -119.5q106 -205 269 -691q24 270 53 799q2 31 7 49t21 31.5t44 13.5z" />
    <glyph glyph-name="N" unicode="n" horiz-adv-x="1296" 
d="M1004 1419q51 0 106.5 -59t52.5 -123q-6 -161 -19 -328.5t-36.5 -424.5t-32.5 -369q-4 -55 -27.5 -84t-62.5 -29q-53 0 -101.5 36t-70.5 89q-79 194 -205.5 526.5t-185.5 466.5q-72 -525 -53 -860q6 -107 12 -174q8 -52 0.5 -80.5t-51.5 -28.5q-68 0 -128 63.5t-65 133.5
q-18 252 6.5 531.5t75.5 531.5q13 68 46 103.5t100 35.5q77 0 141 -39.5t104 -119.5q106 -205 269 -691q24 270 53 799q2 31 7 49t21 31.5t44 13.5z" />
    <glyph glyph-name="O" unicode="O" horiz-adv-x="1087" 
d="M616 1386q85 0 152 -27.5t109.5 -71.5t70.5 -104.5t39.5 -123t11.5 -129.5q0 -128 -19.5 -250t-60.5 -232.5t-99 -194t-141.5 -132.5t-182.5 -49q-192 0 -293.5 145t-96.5 395q4 261 51 402.5t128 156.5q44 108 135.5 161.5t195.5 53.5zM506 270q60 0 111 62t82.5 161.5
t49 218.5t17.5 238q0 240 -152 240q-50 0 -85 -27t-66 -82q-32 -56 -80 -69q-47 -234 -47 -383q0 -176 40 -267.5t130 -91.5z" />
    <glyph glyph-name="O" unicode="o" horiz-adv-x="1087" 
d="M616 1386q85 0 152 -27.5t109.5 -71.5t70.5 -104.5t39.5 -123t11.5 -129.5q0 -128 -19.5 -250t-60.5 -232.5t-99 -194t-141.5 -132.5t-182.5 -49q-192 0 -293.5 145t-96.5 395q4 261 51 402.5t128 156.5q44 108 135.5 161.5t195.5 53.5zM506 270q60 0 111 62t82.5 161.5
t49 218.5t17.5 238q0 240 -152 240q-50 0 -85 -27t-66 -82q-32 -56 -80 -69q-47 -234 -47 -383q0 -176 40 -267.5t130 -91.5z" />
    <glyph glyph-name="P" unicode="P" horiz-adv-x="1028" 
d="M979 1206q0 -137 -83 -250.5t-223.5 -184.5t-316.5 -95q20 -258 54 -549q13 -113 -68 -113q-35 0 -69.5 18t-65.5 66.5t-39 120.5q-66 549 -66 1002q0 165 111 165q26 0 49 -10q163 109 391 109q151 0 238.5 -73t87.5 -206zM342 895q172 28 286.5 111t114.5 186
q0 50 -30.5 76t-85.5 26q-161 0 -293 -110v-17q0 -141 8 -272z" />
    <glyph glyph-name="P" unicode="p" horiz-adv-x="1028" 
d="M979 1206q0 -137 -83 -250.5t-223.5 -184.5t-316.5 -95q20 -258 54 -549q13 -113 -68 -113q-35 0 -69.5 18t-65.5 66.5t-39 120.5q-66 549 -66 1002q0 165 111 165q26 0 49 -10q163 109 391 109q151 0 238.5 -73t87.5 -206zM342 895q172 28 286.5 111t114.5 186
q0 50 -30.5 76t-85.5 26q-161 0 -293 -110v-17q0 -141 8 -272z" />
    <glyph glyph-name="Q" unicode="Q" horiz-adv-x="1341" 
d="M1190 111q29 -57 29 -113q0 -36 -27.5 -64t-69.5 -28q-56 0 -89.5 35t-74.5 116q-19 39 -45 80q-163 -160 -378 -160q-214 0 -327.5 129t-113.5 355q0 204 81.5 417t219.5 355q41 41 72 57.5t70 16.5q29 0 49 -13q111 52 231 52q73 0 138.5 -23t123.5 -71.5t92.5 -136
t34.5 -204.5q0 -309 -141 -573q110 -198 125 -227zM551 180q66 0 131.5 40t120.5 112q-124 215 -150 256q-24 40 -24 76q0 34 26 56.5t66 22.5q49 0 88 -26t78 -84q10 -13 37 -58q49 155 49 330q0 122 -47 184t-133 62q-75 0 -152 -61q-40 -32 -86 -35l-27 -29
q-68 -72 -134 -237.5t-66 -313.5q0 -136 57 -215.5t166 -79.5z" />
    <glyph glyph-name="Q" unicode="q" horiz-adv-x="1341" 
d="M1190 111q29 -57 29 -113q0 -36 -27.5 -64t-69.5 -28q-56 0 -89.5 35t-74.5 116q-19 39 -45 80q-163 -160 -378 -160q-214 0 -327.5 129t-113.5 355q0 204 81.5 417t219.5 355q41 41 72 57.5t70 16.5q29 0 49 -13q111 52 231 52q73 0 138.5 -23t123.5 -71.5t92.5 -136
t34.5 -204.5q0 -309 -141 -573q110 -198 125 -227zM551 180q66 0 131.5 40t120.5 112q-124 215 -150 256q-24 40 -24 76q0 34 26 56.5t66 22.5q49 0 88 -26t78 -84q10 -13 37 -58q49 155 49 330q0 122 -47 184t-133 62q-75 0 -152 -61q-40 -32 -86 -35l-27 -29
q-68 -72 -134 -237.5t-66 -313.5q0 -136 57 -215.5t166 -79.5z" />
    <glyph glyph-name="R" unicode="R" horiz-adv-x="1222" 
d="M1075 266q91 -27 122.5 -46t31.5 -52q0 -52 -47 -90.5t-109 -38.5q-163 0 -361.5 107.5t-344.5 250.5q-4 -117 -2 -157q1 -31 5.5 -78t4.5 -64q0 -25 -2 -39.5t-8.5 -29t-21 -21t-38.5 -6.5q-66 0 -118.5 60.5t-55.5 146.5t17 367.5t45 517.5q-43 25 -43 77
q-4 81 66.5 142t176.5 90t225 29q180 0 271 -72.5t94 -198.5q3 -92 -39 -179.5t-115.5 -157.5t-160.5 -124.5t-185 -93.5q122 -130 263 -206.5t329 -133.5zM625 1243q-96 0 -191 -45q-4 -42 -12 -122.5t-15 -150.5t-12 -132q76 31 138.5 67.5t113.5 79.5t78.5 93.5
t26.5 103.5q-2 47 -34.5 76.5t-92.5 29.5z" />
    <glyph glyph-name="R" unicode="r" horiz-adv-x="1222" 
d="M1075 266q91 -27 122.5 -46t31.5 -52q0 -52 -47 -90.5t-109 -38.5q-163 0 -361.5 107.5t-344.5 250.5q-4 -117 -2 -157q1 -31 5.5 -78t4.5 -64q0 -25 -2 -39.5t-8.5 -29t-21 -21t-38.5 -6.5q-66 0 -118.5 60.5t-55.5 146.5t17 367.5t45 517.5q-43 25 -43 77
q-4 81 66.5 142t176.5 90t225 29q180 0 271 -72.5t94 -198.5q3 -92 -39 -179.5t-115.5 -157.5t-160.5 -124.5t-185 -93.5q122 -130 263 -206.5t329 -133.5zM625 1243q-96 0 -191 -45q-4 -42 -12 -122.5t-15 -150.5t-12 -132q76 31 138.5 67.5t113.5 79.5t78.5 93.5
t26.5 103.5q-2 47 -34.5 76.5t-92.5 29.5z" />
    <glyph glyph-name="S" unicode="S" horiz-adv-x="899" 
d="M412 946l190 -203q103 -109 147 -186.5t44 -167.5q0 -75 -28 -144.5t-70.5 -118.5t-92.5 -86.5t-94 -56t-74 -18.5q-56 0 -116 43.5t-60 89.5q0 26 18 45t68 45q98 52 142 98t44 105q0 48 -21.5 83.5t-82.5 96.5l-197 199q-147 147 -147 309q0 99 61.5 189t168 145
t229.5 55q61 0 98 -25t37 -69q0 -22 -7 -37t-30 -28t-39.5 -19.5t-62.5 -21.5q-73 -26 -139.5 -71t-94.5 -103q55 -91 109 -148z" />
    <glyph glyph-name="S" unicode="s" horiz-adv-x="899" 
d="M412 946l190 -203q103 -109 147 -186.5t44 -167.5q0 -75 -28 -144.5t-70.5 -118.5t-92.5 -86.5t-94 -56t-74 -18.5q-56 0 -116 43.5t-60 89.5q0 26 18 45t68 45q98 52 142 98t44 105q0 48 -21.5 83.5t-82.5 96.5l-197 199q-147 147 -147 309q0 99 61.5 189t168 145
t229.5 55q61 0 98 -25t37 -69q0 -22 -7 -37t-30 -28t-39.5 -19.5t-62.5 -21.5q-73 -26 -139.5 -71t-94.5 -103q55 -91 109 -148z" />
    <glyph glyph-name="T" unicode="T" horiz-adv-x="1216" 
d="M1034 1403q80 0 128 -45t40 -92q-6 -40 -31.5 -51t-91.5 -13q-134 -4 -350 -28q6 -191 -6 -516.5t-33 -438.5q-17 -100 -61.5 -150.5t-110.5 -50.5q-57 0 -85 38t-15 118q9 57 43 117q14 164 22.5 329t10 248t4.5 279q-147 -18 -260 -37q-68 -12 -124 34.5t-44 106.5
q6 33 34 50t89 26q478 76 841 76z" />
    <glyph glyph-name="T" unicode="t" horiz-adv-x="1216" 
d="M1034 1403q80 0 128 -45t40 -92q-6 -40 -31.5 -51t-91.5 -13q-134 -4 -350 -28q6 -191 -6 -516.5t-33 -438.5q-17 -100 -61.5 -150.5t-110.5 -50.5q-57 0 -85 38t-15 118q9 57 43 117q14 164 22.5 329t10 248t4.5 279q-147 -18 -260 -37q-68 -12 -124 34.5t-44 106.5
q6 33 34 50t89 26q478 76 841 76z" />
    <glyph glyph-name="U" unicode="U" horiz-adv-x="1286" 
d="M1161 94q12 -78 -1 -114.5t-58 -36.5q-54 0 -98.5 24t-63.5 80q-27 80 -45 266.5t-25 407.5q-71 -282 -183.5 -455.5t-237.5 -173.5q-82 0 -143.5 44.5t-97 125t-52.5 179.5t-19 221q-2 143 25 499q5 67 24 98t68 31q60 0 110.5 -42t43.5 -118q-18 -195 -24 -322t6 -264
t50 -227q109 129 187 340t153 541q7 34 12.5 50t16.5 34.5t29.5 25.5t46.5 7q65 0 131.5 -43t66.5 -115q0 -229 23.5 -559t54.5 -504z" />
    <glyph glyph-name="U" unicode="u" horiz-adv-x="1286" 
d="M1161 94q12 -78 -1 -114.5t-58 -36.5q-54 0 -98.5 24t-63.5 80q-27 80 -45 266.5t-25 407.5q-71 -282 -183.5 -455.5t-237.5 -173.5q-82 0 -143.5 44.5t-97 125t-52.5 179.5t-19 221q-2 143 25 499q5 67 24 98t68 31q60 0 110.5 -42t43.5 -118q-18 -195 -24 -322t6 -264
t50 -227q109 129 187 340t153 541q7 34 12.5 50t16.5 34.5t29.5 25.5t46.5 7q65 0 131.5 -43t66.5 -115q0 -229 23.5 -559t54.5 -504z" />
    <glyph glyph-name="V" unicode="V" horiz-adv-x="1286" 
d="M1114 1487q22 0 47 -13t48 -39.5t31 -67.5t-5 -97q-15 -56 -62 -190t-110.5 -302.5t-117 -309.5t-106 -276.5t-53.5 -138.5q-31 -80 -58.5 -112.5t-78.5 -32.5q-151 0 -207 145q-12 34 -150.5 486t-176.5 581q-17 57 2 90t71 33q92 0 147.5 -55.5t80.5 -169.5
q23 -105 84 -329.5t118 -409.5q158 405 320 874q5 14 25 67.5t28 77.5q35 99 45 127q12 36 29 49t49 13z" />
    <glyph glyph-name="V" unicode="v" horiz-adv-x="1286" 
d="M1114 1487q22 0 47 -13t48 -39.5t31 -67.5t-5 -97q-15 -56 -62 -190t-110.5 -302.5t-117 -309.5t-106 -276.5t-53.5 -138.5q-31 -80 -58.5 -112.5t-78.5 -32.5q-151 0 -207 145q-12 34 -150.5 486t-176.5 581q-17 57 2 90t71 33q92 0 147.5 -55.5t80.5 -169.5
q23 -105 84 -329.5t118 -409.5q158 405 320 874q5 14 25 67.5t28 77.5q35 99 45 127q12 36 29 49t49 13z" />
    <glyph glyph-name="W" unicode="W" horiz-adv-x="1540" 
d="M1419 1346q15 -203 -34 -529t-148 -586q-28 -77 -71 -114t-107 -37q-69 0 -116 31t-81 98q-35 66 -94 276q-91 -268 -190 -370q-41 -37 -74 -53.5t-82 -16.5q-245 0 -277 447q-8 140 14 369.5t50 365.5q17 72 37 98.5t55 26.5q25 0 51.5 -11t51 -32.5t36.5 -58.5t4 -83
q-26 -140 -49 -352.5t-14 -351.5q9 -120 35 -205q94 140 156 345t73 343q9 123 127 123q41 0 66 -24t28 -66q3 -28 0 -66q49 -270 162 -610q48 145 83.5 291t52 257t26.5 215.5t8.5 167t-2.5 112.5q-6 85 6.5 115t52.5 30q39 0 72.5 -12t60.5 -46t31 -87z" />
    <glyph glyph-name="W" unicode="w" horiz-adv-x="1540" 
d="M1419 1346q15 -203 -34 -529t-148 -586q-28 -77 -71 -114t-107 -37q-69 0 -116 31t-81 98q-35 66 -94 276q-91 -268 -190 -370q-41 -37 -74 -53.5t-82 -16.5q-245 0 -277 447q-8 140 14 369.5t50 365.5q17 72 37 98.5t55 26.5q25 0 51.5 -11t51 -32.5t36.5 -58.5t4 -83
q-26 -140 -49 -352.5t-14 -351.5q9 -120 35 -205q94 140 156 345t73 343q9 123 127 123q41 0 66 -24t28 -66q3 -28 0 -66q49 -270 162 -610q48 145 83.5 291t52 257t26.5 215.5t8.5 167t-2.5 112.5q-6 85 6.5 115t52.5 30q39 0 72.5 -12t60.5 -46t31 -87z" />
    <glyph glyph-name="X" unicode="X" horiz-adv-x="1036" 
d="M987 98q32 -74 14.5 -116.5t-79.5 -42.5q-52 0 -100.5 41t-82.5 112q-126 256 -243 486q-103 -228 -222 -500q-19 -42 -38.5 -59t-49.5 -17q-37 0 -71.5 38t-46 101t25.5 146q12 25 55.5 116t69.5 146l141 293q-77 155 -98 194q-143 280 -147 291q-28 61 -8.5 101
t79.5 40q115 0 181 -137q91 -178 118 -229q105 223 154 330q19 43 41 60t57 17q41 0 73 -31t39.5 -83t-24.5 -121q-126 -257 -207 -430q308 -597 369 -746z" />
    <glyph glyph-name="X" unicode="x" horiz-adv-x="1036" 
d="M987 98q32 -74 14.5 -116.5t-79.5 -42.5q-52 0 -100.5 41t-82.5 112q-126 256 -243 486q-103 -228 -222 -500q-19 -42 -38.5 -59t-49.5 -17q-37 0 -71.5 38t-46 101t25.5 146q12 25 55.5 116t69.5 146l141 293q-77 155 -98 194q-143 280 -147 291q-28 61 -8.5 101
t79.5 40q115 0 181 -137q91 -178 118 -229q105 223 154 330q19 43 41 60t57 17q41 0 73 -31t39.5 -83t-24.5 -121q-126 -257 -207 -430q308 -597 369 -746z" />
    <glyph glyph-name="Y" unicode="Y" horiz-adv-x="870" 
d="M780 1507q63 0 97 -55t14 -127q-46 -157 -504 -1325q-27 -70 -102 -70q-66 0 -91 61t7 144q15 40 161 408q-140 240 -223.5 478t-83.5 320q0 74 68 74q65 0 119 -47.5t71 -120.5q21 -87 52 -175.5t102 -256.5l-2 -14q131 338 233 635q12 37 31 54t51 17z" />
    <glyph glyph-name="Y" unicode="y" horiz-adv-x="870" 
d="M780 1507q63 0 97 -55t14 -127q-46 -157 -504 -1325q-27 -70 -102 -70q-66 0 -91 61t7 144q15 40 161 408q-140 240 -223.5 478t-83.5 320q0 74 68 74q65 0 119 -47.5t71 -120.5q21 -87 52 -175.5t102 -256.5l-2 -14q131 338 233 635q12 37 31 54t51 17z" />
    <glyph glyph-name="Z" unicode="Z" horiz-adv-x="1077" 
d="M819 299q89 1 143 -43t54 -102q0 -36 -20.5 -52t-67.5 -22q-96 -13 -266 -42t-294 -49t-163 -20q-61 0 -101.5 37t-40.5 115q0 137 152 328q99 127 244.5 338t259.5 391q-51 -1 -96 -4t-94.5 -10.5t-77 -12t-88.5 -17t-84 -16.5q-181 -35 -181 76q0 115 135 154
q70 19 228 36t248 17q128 0 201 -64.5t73 -132.5q0 -10 -1 -19.5t-4 -20.5t-5.5 -19t-8.5 -19.5t-8.5 -18t-10.5 -19.5t-10.5 -18t-12 -19.5t-11.5 -18.5q-52 -86 -271 -386.5t-296 -414.5q317 68 475 68z" />
    <glyph glyph-name="Z" unicode="z" horiz-adv-x="1077" 
d="M819 299q89 1 143 -43t54 -102q0 -36 -20.5 -52t-67.5 -22q-96 -13 -266 -42t-294 -49t-163 -20q-61 0 -101.5 37t-40.5 115q0 137 152 328q99 127 244.5 338t259.5 391q-51 -1 -96 -4t-94.5 -10.5t-77 -12t-88.5 -17t-84 -16.5q-181 -35 -181 76q0 115 135 154
q70 19 228 36t248 17q128 0 201 -64.5t73 -132.5q0 -10 -1 -19.5t-4 -20.5t-5.5 -19t-8.5 -19.5t-8.5 -18t-10.5 -19.5t-10.5 -18t-12 -19.5t-11.5 -18.5q-52 -86 -271 -386.5t-296 -414.5q317 68 475 68z" />
    <glyph glyph-name="bracketleft" unicode="[" horiz-adv-x="778" 
d="M721 -266q-15 0 -171 2.5t-239 -0.5q-33 1 -56 14t-34 34t-15 38t-5 35q-4 101 -10.5 303.5t-10.5 304.5q-41 520 -71 860q-7 87 26.5 118t116.5 19q43 2 162.5 14.5t187.5 12.5q55 0 91 -47t22.5 -97t-80.5 -57q-251 -29 -293 -39q21 -270 56.5 -684.5t52.5 -617.5
q15 0 111.5 2.5t119.5 -0.5q71 -3 105 -67q28 -55 7 -103q-20 -45 -73 -45z" />
    <glyph glyph-name="backslash" unicode="\" horiz-adv-x="880" 
d="M854 37q9 -20 0.5 -38t-29.5 -26q-44 -14 -86 -12t-83 33t-68 88q-125 263 -189 398t-175 380.5t-197 452.5q-27 65 19 115q39 43 95 37q67 -7 94 -84q6 -15 9 -33q34 -57 90 -183q291 -611 403 -850q22 -50 62 -146.5t55 -131.5z" />
    <glyph glyph-name="bracketright" unicode="]" horiz-adv-x="1038" 
d="M281 -307q-24 0 -46 15.5t-22 39.5q0 61 27.5 109.5t78.5 52.5q39 3 149.5 8.5t160.5 11.5q-42 620 -68 916q-31 351 -72 450q-46 5 -156 17t-171 20q-37 5 -58.5 31.5t-17.5 65.5q6 56 42.5 84.5t88.5 23.5q84 -8 322 2q43 2 95 -18t60 -54q85 -349 109 -641
q3 -41 18 -230t21.5 -261t23 -209.5t35.5 -251.5q24 -142 -135 -151q-53 -3 -152 -13t-181 -15.5t-152 -2.5z" />
    <glyph glyph-name="asciicircum" unicode="^" horiz-adv-x="884" 
d="M172 705q-38 24 -54.5 45.5t-14 55.5t23.5 76t66 113q54 92 94 207q6 17 15.5 46.5t14 43t13 35t15.5 31.5t19 23t25.5 18.5t32 9.5t41.5 4q19 0 32.5 -0.5t28 -5.5t23.5 -8.5t21.5 -17t20 -23t20.5 -34.5t21.5 -44t25 -58.5t28.5 -71t34 -88.5q3 -9 5 -13
q52 -134 58 -181q11 -87 -65 -116q-5 -2 -11 -4q-79 -24 -133.5 79.5t-102.5 360.5q-30 -117 -64 -212.5t-72 -167.5t-80 -100t-81 -3z" />
    <glyph glyph-name="underscore" unicode="_" horiz-adv-x="1003" 
d="M739 -193l-563 -36q-69 -4 -113 51q-39 49 -24 96q18 55 102 59q12 1 178.5 13.5t337 24.5t207.5 12q64 0 84.5 -21t20.5 -59q0 -68 -56 -100t-174 -40z" />
    <glyph glyph-name="grave" unicode="`" horiz-adv-x="665" 
d="M535 1270q-34 -26 -74 -21.5t-107 37.5q-68 35 -156.5 95t-93.5 94q-5 32 8 50t50 44q22 14 45.5 15.5t44.5 -6.5t51.5 -29t58.5 -43t74.5 -56.5t89.5 -63.5q36 -24 36.5 -59t-27.5 -57z" />
    <glyph glyph-name="braceleft" unicode="{" horiz-adv-x="880" 
d="M598 -96l170 12q106 8 174 -50q50 -42 41 -86q-10 -42 -74 -52q-327 -52 -401 -54q-63 -1 -104.5 43.5t-41.5 106.5l-2 536q0 67 -26 91t-74 10l-35 -10q-53 -16 -90 27q-35 41 -19 92q19 61 103 85q109 33 107 160q-2 91 -18 229t-42 250q-7 29 -7.5 53t4.5 41
t15.5 30.5t23 22t31 15t35 10.5t38.5 7q234 36 325 32q92 -3 146 -71q41 -51 29 -94q-9 -29 -44 -35q-16 -2 -83 -9.5t-148 -18t-144 -22.5l48 -452q9 -81 -27 -142t-98 -73q88 0 131 -41.5t45 -114.5z" />
    <glyph glyph-name="bar" unicode="|" horiz-adv-x="600" 
d="M322 -240q-59 0 -106.5 56.5t-47.5 154.5q0 162 21.5 702t43.5 734q9 78 27.5 106.5t61.5 28.5q51 0 97 -53.5t36 -142.5q-30 -280 -62 -1348q-1 -31 -1 -77.5t-1 -63.5q-3 -53 -18.5 -75t-50.5 -22z" />
    <glyph glyph-name="braceright" unicode="}" horiz-adv-x="899" 
d="M694 713l35 2q56 3 86.5 -45t8 -101.5t-96.5 -62.5q-111 -14 -113 -146q-5 -65 -2 -209t23 -247q10 -50 -8 -91t-54.5 -66t-79 -39t-87.5 -17q-114 -9 -193 -4q-67 4 -95 56t5 103.5t115 53.5q63 2 184 28l-14 514q-2 53 34.5 96.5t96.5 53.5q-83 3 -122.5 46t-39.5 116
l2 522q-100 -9 -191 -6q-79 3 -121 67q-33 50 -15 94q17 42 75 39q159 -10 350 37q62 15 102 -31.5t37 -121.5l-18 -537q-3 -65 21 -86t75 -18z" />
    <glyph glyph-name="asciitilde" unicode="~" horiz-adv-x="1247" 
d="M1044 915q83 0 97.5 -69t-45.5 -178q-89 -164 -279 -164q-56 0 -102.5 14t-88 46t-63.5 53.5t-61 66.5q-40 46 -80 86q-42 -58 -84 -147q-15 -32 -23.5 -47.5t-22.5 -35.5t-30 -28t-37 -8q-85 0 -114 70.5t22 156.5q82 141 142 186.5t165 45.5q65 0 124 -31t116 -87
t143 -161q53 68 82 119q36 59 65 85.5t74 26.5z" />
    <glyph glyph-name="uni00A0" unicode="&#xa0;" horiz-adv-x="471" 
 />
    <glyph glyph-name="exclamdown" unicode="&#xa1;" horiz-adv-x="593" 
d="M279 827q-54 13 -75.5 45.5t-21.5 88.5q0 43 38.5 74.5t90.5 27.5q60 -5 95.5 -47.5t25.5 -97.5q-10 -49 -49.5 -75.5t-103.5 -15.5zM229 -489q-62 0 -80.5 30t-9.5 113q14 125 23 263.5t17.5 304.5t15.5 267q11 173 112 173q51 0 71.5 -36.5t22.5 -123.5
q4 -254 -7.5 -443t-39.5 -444q-6 -50 -40.5 -77t-84.5 -27z" />
    <glyph glyph-name="cent" unicode="&#xa2;" horiz-adv-x="989" 
d="M635 39q90 -47 90 -129q0 -37 -21.5 -58.5t-58.5 -21.5q-101 0 -147.5 72t-55.5 245q-9 61 -1.5 402.5t32.5 712.5q3 40 18 57.5t46 17.5q66 0 96.5 -60t21.5 -171q-21 -250 -25.5 -566t5.5 -501z" />
    <glyph glyph-name="sterling" unicode="&#xa3;" horiz-adv-x="1165" 
d="M926 1200q-86 55 -150 66q-95 -142 -153 -475q94 2 251 2q66 0 109.5 -23.5t42.5 -64.5q-2 -38 -38 -69.5t-93 -31.5h-297q-6 -56 -12 -117q-4 -61 -25 -163q27 -18 82.5 -56.5t84 -56.5t67 -34t67.5 -15q46 2 90 22q86 37 103 -24q10 -31 -7.5 -73.5t-54.5 -66.5
q-84 -55 -205 -55q-67 0 -155 42.5t-150 115.5q-47 -77 -107 -118.5t-124 -41.5q-81 0 -137 59.5t-56 143.5q0 119 67.5 187.5t174.5 68.5q33 0 78 -10q3 98 12 190q-26 -1 -77.5 -2t-75.5 -2q-21 0 -32 12.5t-9 26.5q6 47 21.5 78t42.5 45.5t54 19.5t68 6h25q12 126 22 189
q46 271 182 403.5t297 89.5q75 -21 119.5 -77.5t42.5 -114.5q-2 -63 -40.5 -87.5t-104.5 11.5zM240 180q0 -46 30 -96q61 70 86 164q-29 16 -51 16q-31 0 -48 -23t-17 -61z" />
    <glyph glyph-name="currency" unicode="&#xa4;" horiz-adv-x="1136" 
d="M981 240q32 -74 14 -117t-80 -43q-96 0 -172 133q-74 -41 -161 -41q-75 0 -142 23q-4 -8 -11.5 -24.5t-10.5 -23.5q-21 -42 -39.5 -58.5t-48.5 -16.5q-37 0 -71.5 37.5t-46 100.5t25.5 146q1 2 4.5 10t5.5 11q-66 138 -66 358q0 91 27 146.5t78 64.5q4 9 26 53
q-95 183 -102 203q-28 62 -8 101.5t80 39.5q55 0 97.5 -33.5t82.5 -103.5q12 -24 14 -30q61 28 127 28q36 0 78 -10q39 80 53 113q19 42 41 59.5t58 17.5q41 0 73.5 -31t40 -83t-25.5 -121l-45 -92q96 -140 96 -352q0 -164 -70 -310q48 -91 78 -155zM571 365q49 0 86.5 31.5
t58 83t30.5 108.5t10 117q0 259 -152 337q-48 -52 -108 -174q-54 -107 -99 -147q5 -180 46.5 -268t127.5 -88z" />
    <glyph glyph-name="yen" unicode="&#xa5;" horiz-adv-x="1054" 
d="M874 346q58 -1 95 -49.5t20.5 -97.5t-88.5 -52l-250 -12q-1 -40 -2.5 -91.5t-2.5 -84t-2.5 -66t-3.5 -55t-5 -33.5q-18 -69 -92 -69q-64 0 -93 56.5t-24 148.5q1 23 4.5 88t5.5 96q-34 -2 -101.5 -5t-101.5 -5q-20 -1 -37.5 11.5t-23.5 31.5l-31 69q-14 36 1 68t48 33
q128 9 261 12q2 21 7 75.5t7 86.5q-126 -4 -193 -4q-90 0 -131 94q-9 19 0 41t29 26q103 22 213 33q-104 205 -164.5 393.5t-60.5 255.5q0 74 67 74q65 0 118.5 -47.5t72.5 -120.5q34 -142 133 -383q51 198 94 461q6 37 23 54.5t49 17.5q63 0 105 -55.5t32 -127.5
q-23 -153 -119 -507q12 0 37 -5q58 -11 101 -75q39 -58 26 -94q-10 -22 -39 -23q-30 0 -88 -1t-86 -1q-12 -82 -18 -162h208z" />
    <glyph glyph-name="brokenbar" unicode="&#xa6;" horiz-adv-x="600" 
d="M383 856q-17 -63 -63 -79.5t-85.5 14.5t-39.5 88q4 51 11.5 176t14 212t12.5 140q9 78 27.5 106.5t61.5 28.5q51 0 97 -53.5t36 -142.5q0 -2 -8.5 -81t-12.5 -110.5t-13 -97t-18 -114t-20 -87.5zM322 -240q-59 0 -106.5 56.5t-47.5 154.5q0 188 29 607q5 75 60.5 87.5
t108.5 -28.5t50 -96q-5 -96 -10 -207.5t-8.5 -211.5t-4.5 -124q-1 -31 -1 -77.5t-1 -63.5q-3 -53 -18.5 -75t-50.5 -22z" />
    <glyph glyph-name="section" unicode="&#xa7;" horiz-adv-x="1091" 
d="M985 532q7 -125 -57.5 -224t-157.5 -154q53 -82 59 -179q4 -75 -20 -144.5t-64 -118.5t-87.5 -86.5t-90.5 -56t-73 -18.5q-56 0 -119 44t-66 90q0 26 17 45t65 45q96 52 137.5 97.5t38.5 104.5q-3 48 -26.5 84t-87.5 97l-207 198q-155 149 -164 310q-6 105 58.5 198.5
t174.5 145.5q-71 102 -77 213q-5 99 51.5 189t160 145t226.5 55q61 0 99.5 -25t41.5 -69q1 -42 -26.5 -61t-106.5 -46q-72 -26 -136.5 -71t-88.5 -103q54 -85 116 -147l201 -203q108 -110 156.5 -187.5t52.5 -167.5zM420 532l172 -174q71 41 102.5 82.5t28.5 94.5
q-3 47 -26.5 82.5t-88.5 97.5l-127 121q-140 -64 -178 -156q54 -85 117 -148z" />
    <glyph glyph-name="dieresis" unicode="&#xa8;" horiz-adv-x="739" 
d="M145 1296q-28 30 -38 80t4 80q9 19 21.5 30.5t30.5 16t30.5 5.5t35.5 1q45 0 69 -25.5t24 -74.5q0 -44 -16.5 -67t-53.5 -46q-21 -13 -35 -18.5t-34.5 -2.5t-37.5 21zM573 1292q-26 -15 -64.5 -6t-66.5 37t-32.5 63.5t10.5 61.5q17 34 49.5 43.5t79.5 9.5q42 0 65 -25.5
t23 -70.5q0 -44 -15 -68.5t-49 -44.5z" />
    <glyph glyph-name="copyright" unicode="&#xa9;" horiz-adv-x="1656" 
d="M967 1640q274 0 430.5 -185.5t156.5 -498.5q0 -173 -36.5 -332t-107 -290.5t-168.5 -229t-228 -152t-277 -54.5q-305 0 -470 179t-165 509q0 157 35 300.5t88.5 242t115.5 161.5t120 76q32 102 185.5 188t320.5 86zM758 86q165 0 299.5 117t211.5 323.5t77 458.5
q0 217 -100 336t-281 119q-207 0 -328 -148q-32 -40 -84 -47q-11 -23 -25 -39q-200 -264 -200 -618q0 -244 110.5 -373t319.5 -129zM1051 674q51 0 77.5 -54.5t6.5 -111.5q-46 -124 -153 -202t-228 -75q-129 3 -203 91t-74 237q0 177 57 332t154.5 246.5t208.5 91.5
q68 0 110 -33t42 -88q0 -43 -30.5 -71.5t-74.5 -28.5q-46 0 -76 18q-72 -69 -122 -202.5t-50 -260.5q0 -102 47 -143q71 14 122 56t96 126q34 72 90 72z" />
    <glyph glyph-name="ordfeminine" unicode="&#xaa;" horiz-adv-x="774" 
d="M645 926q3 -52 -13.5 -75.5t-56.5 -23.5q-45 0 -73 29t-31 80v2q-67 -104 -170 -104q-86 0 -135 69t-49 191q0 186 78.5 309t197.5 123q39 0 68 -13q18 15 49 15q50 0 83.5 -39.5t33.5 -97.5q0 -94 12 -344zM315 993q101 116 129 307l-6 74q-4 2 -14 2q-46 0 -84.5 -86.5
t-38.5 -193.5q0 -71 14 -103z" />
    <glyph glyph-name="guillemotleft" unicode="&#xab;" horiz-adv-x="1228" 
d="M332 629l180 -217q34 -12 57 -41q23 -35 24 -71t-21.5 -63t-52.5 -41.5t-68 -7.5t-68 39q-78 80 -146 148.5t-90 91.5q-120 128 -67 192q41 48 88 93.5t118.5 110t129.5 120.5q59 57 123 43.5t77 -67.5t-30 -111q-133 -144 -254 -219zM1087 367q50 -53 30.5 -111.5
t-77 -67.5t-122.5 43q-58 56 -129.5 120.5t-118.5 110t-88 93.5q-54 64 67 193q21 22 89.5 90.5t146.5 148.5q30 32 68 39.5t68 -7.5t52.5 -41.5t21.5 -62.5t-24 -71q-23 -29 -57 -41l-180 -217q119 -74 253 -219z" />
    <glyph glyph-name="logicalnot" unicode="&#xac;" horiz-adv-x="1167" 
d="M883 1022q69 -3 102.5 -42t28.5 -106q-2 -149 -37 -360q-6 -36 -31.5 -60.5t-64.5 -23.5q-65 3 -87.5 25t-15.5 77l8 48t15.5 100.5t15.5 118.5q-23 2 -67 2l-435 -8q-27 -1 -63 -2.5t-55 -2.5t-41.5 0.5t-40.5 6.5q-21 6 -34.5 50.5t-7 88t35.5 47.5q219 28 374 33
q51 2 135.5 4.5t107.5 3t86 1.5t71 -1z" />
    <glyph glyph-name="uni00AD" unicode="&#xad;" horiz-adv-x="858" 
d="M711 598q-195 6 -500 6q-57 0 -93 35t-38 76q-1 46 42 72t109 26q184 0 340 -6q42 -2 68.5 -7.5t53.5 -22t42.5 -50.5t22.5 -86q2 -15 -11.5 -29t-35.5 -14z" />
    <glyph glyph-name="registered" unicode="&#xae;" horiz-adv-x="1656" 
d="M967 1640q274 0 430.5 -185.5t156.5 -498.5q0 -173 -36.5 -332t-107 -290.5t-168.5 -229t-228 -152t-277 -54.5q-305 0 -470 179t-165 509q0 157 35 300.5t88.5 242t115.5 161.5t120 76q32 102 185.5 188t320.5 86zM758 86q165 0 299.5 117t211.5 323.5t77 458.5
q0 217 -100 336t-281 119q-202 0 -328 -148q-32 -40 -84 -47q-11 -23 -25 -39q-200 -257 -200 -618q0 -244 110.5 -373t319.5 -129zM1026 551q63 -18 88 -35.5t25 -48.5q0 -41 -36 -71.5t-83 -30.5q-137 0 -270 122v-26q0 -19 4 -47q0 -8 1 -23t1 -20q0 -42 -15 -62t-51 -20
q-52 0 -90.5 44.5t-40.5 106.5q-3 96 39 543q-24 24 -27 57q-4 81 87 134t229 53q117 0 182 -50t68 -143q4 -112 -86 -206t-222 -154q38 -49 77 -74t120 -49zM891 1063q-45 0 -98 -21l-13 -131l-6 -69q172 82 172 178q0 43 -55 43z" />
    <glyph glyph-name="macron" unicode="&#xaf;" horiz-adv-x="872" 
d="M422 1309q-70 -3 -128.5 -1t-101 8.5t-66.5 25.5t-24 51q0 33 22 58.5t66 29.5q53 5 227 12t240 6q57 1 85 -20.5t28 -57.5q0 -26 -19.5 -51t-58.5 -33q-111 -25 -270 -28z" />
    <glyph glyph-name="degree" unicode="&#xb0;" horiz-adv-x="870" 
d="M545 1432q108 -67 155.5 -150t47.5 -205q0 -53 -19 -105t-55 -96.5t-96 -72t-134 -27.5q-125 0 -223 103t-98 235q0 130 141 252q47 38 105 31q8 40 61 55t115 -20zM444 961q24 0 44.5 23t30 61t8.5 82t-22 91t-61 82q-8 -47 -61 -100q-17 -17 -25 -26t-16 -26t-8 -34
q0 -60 33.5 -106.5t76.5 -46.5z" />
    <glyph glyph-name="plusminus" unicode="&#xb1;" horiz-adv-x="1167" 
d="M924 1110q79 -3 111.5 -52.5t13.5 -133.5q-8 -35 -64 -39q-37 -1 -102 1.5t-92 2.5l-115 -2q-8 -54 -25.5 -155.5t-25.5 -149.5q-6 -36 -32 -60.5t-65 -23.5q-69 2 -91 17t-13 67q27 164 29 182l14 119l-111 -2q-27 -1 -63 -2.5t-55 -2.5t-41.5 0.5t-40.5 6.5
q-21 6 -34.5 50.5t-7 88t35.5 47.5q219 27 339 31q3 31 10 86.5t9 77.5l12 106q3 31 47 31q31 0 58 -5t50.5 -22.5t26.5 -44.5q10 -98 3 -221q173 4 219 2zM926 395q45 -3 67 -43q43 -72 43 -123q0 -21 -20 -28q-43 -15 -64 -15q-285 0 -686 7q-79 2 -99.5 29.5t-10.5 123.5
q2 19 13 31.5t30 13.5q329 27 727 4z" />
    <glyph glyph-name="uni00B2" unicode="&#xb2;" horiz-adv-x="913" 
d="M735 874q41 -6 65.5 -30.5t24.5 -61.5q0 -36 -29.5 -59.5t-88.5 -22.5q-182 6 -424 -24q-48 -5 -69 12.5t-21 46.5q0 21 11 48t24 46.5t38.5 56t38.5 56.5q62 94 100.5 200t38.5 195q0 72 -65 72q-22 0 -80 -23q-34 -14 -69 -6t-54.5 30t-25 51.5t19.5 58.5q27 33 83 53
t116 20q119 0 186.5 -65.5t67.5 -188.5q0 -198 -162 -473q160 26 274 8z" />
    <glyph glyph-name="uni00B3" unicode="&#xb3;" horiz-adv-x="851" 
d="M420 1225q334 -3 334 -254q0 -132 -120 -222t-302 -90q-107 0 -170.5 36.5t-63.5 97.5q0 35 23.5 53.5t58.5 11.5q80 -18 154 -18q95 0 161 42t66 95q0 37 -21.5 62t-62.5 37t-86 17t-106 5q-105 0 -105 69q0 18 6 35t20.5 35t26.5 31t37.5 32.5t38 29t44.5 31t42 28.5
h-190q-49 0 -82 18.5t-33 58.5q0 45 49.5 64.5t155.5 19.5q152 0 262 -18q37 -6 63.5 -37.5t26.5 -71.5t-35 -65q-6 -5 -76.5 -52.5t-115.5 -80.5z" />
    <glyph glyph-name="acute" unicode="&#xb4;" horiz-adv-x="665" 
d="M131 1270q-28 25 -28 59t36 57q43 29 89.5 63.5t74.5 56.5t58.5 43t52 29t45 6.5t45.5 -15.5q25 -18 36 -27.5t18 -27t3 -39.5q-5 -34 -93.5 -94t-156.5 -95q-67 -33 -106.5 -37.5t-73.5 21.5z" />
    <glyph glyph-name="uni00B5" unicode="&#xb5;" horiz-adv-x="1034" 
d="M903 154q48 -65 57 -89q16 -44 -12 -83q-30 -43 -84.5 -45t-83.5 28q-68 62 -100 160q-46 -59 -108.5 -93t-127.5 -34q-40 0 -75 6q0 -168 6 -291q90 -52 90 -139q0 -45 -28 -70.5t-68 -25.5q-111 0 -160.5 78t-58.5 256q-11 152 -0.5 493.5t30.5 620.5q6 92 80 92
q71 0 107 -55.5t30 -149.5q-18 -279 -18 -453q0 -126 18 -176q63 26 96.5 81t45.5 151q13 99 26 281.5t13 263.5q0 96 73 96q55 0 107.5 -68t52.5 -137v-33q-6 -290 16.5 -441.5t75.5 -223.5z" />
    <glyph glyph-name="paragraph" unicode="&#xb6;" horiz-adv-x="997" 
d="M553 -246q-41 0 -58.5 29.5t-9.5 83.5q68 496 82 737q-69 -16 -151 -16q-144 0 -221.5 78.5t-77.5 203.5q0 90 37.5 166t99.5 127t142 87t164 52.5t167 16.5q60 0 82 -16t22 -68q0 -160 -13 -360.5t-23 -306t-38 -348t-30 -261.5q-6 -55 -25 -96.5t-45 -64t-52 -33.5
t-52 -11z" />
    <glyph glyph-name="periodcentered" unicode="&#xb7;" horiz-adv-x="512" 
d="M276 594q-26 0 -42 1.5t-37 7t-36.5 19.5t-25.5 37q-16 36 -3 95.5t46 95.5q19 21 42.5 25t41.5 -3t43 -22q42 -26 61 -55t19 -82q0 -56 -28.5 -87.5t-80.5 -31.5z" />
    <glyph glyph-name="cedilla" unicode="&#xb8;" horiz-adv-x="751" 
d="M309 4l-22 -84q93 15 173.5 4.5t134.5 -55t54 -111.5q0 -49 -23.5 -97t-68 -89.5t-119.5 -67.5t-168 -26q-85 0 -126.5 26.5t-41.5 71.5t37.5 68.5t128.5 23.5q124 0 168 92q-42 17 -94.5 17t-136.5 -19q-50 -10 -73 13.5t-15 62.5l39 199q11 55 57 75t80 -9.5t16 -94.5z
" />
    <glyph glyph-name="uni00B9" unicode="&#xb9;" horiz-adv-x="552" 
d="M424 719q6 -87 -66 -96q-56 -6 -100 37t-51 110q-14 131 -2 537q-31 -9 -63.5 12.5t-51.5 64.5q-15 34 15 83t82.5 85.5t97.5 36.5q54 0 92.5 -38t36.5 -91q-12 -423 2 -653q4 -40 4 -53q4 -24 4 -35z" />
    <glyph glyph-name="ordmasculine" unicode="&#xba;" horiz-adv-x="716" 
d="M383 1516q112 0 182 -93t70 -239q0 -41 -8.5 -86.5t-28.5 -94t-49.5 -87t-75.5 -63t-102 -24.5q-133 0 -202 95.5t-69 277.5q0 61 18.5 100.5t53.5 49.5q75 164 211 164zM362 991q43 0 70 53t27 140q0 136 -70 184q-24 -28 -55 -92q-29 -59 -60 -90q3 -101 24.5 -148
t63.5 -47z" />
    <glyph glyph-name="guillemotright" unicode="&#xbb;" horiz-adv-x="1187" 
d="M338 963q59 -60 114.5 -115t77.5 -78q44 -46 56.5 -94t3.5 -77.5t-27 -53.5q-9 -13 -37 -50.5t-41.5 -55.5t-38.5 -51t-41 -53t-36.5 -43.5t-36.5 -39.5q-55 -55 -147 -58q-74 -2 -102 32q-25 32 15 77q179 204 262 303l-170 193q-66 74 -44 144q15 50 64 64
q64 20 126 -42zM1036 662q13 -17 21 -38.5t10 -51t-13.5 -65.5t-49.5 -71q-20 -21 -76 -75t-117 -117q-59 -60 -121.5 -46t-72 75t46.5 135l170 192q-65 78 -263 303q-49 56 -2 88q44 31 123 17q70 -11 113 -54q14 -14 29.5 -31.5t34 -40t32 -39.5t35.5 -46.5t33 -44
t35 -47.5t32 -43z" />
    <glyph glyph-name="onequarter" unicode="&#xbc;" horiz-adv-x="1228" 
d="M313 623q-56 -6 -100 37t-51 110q-14 131 -2 537q-31 -9 -63.5 12.5t-51.5 64.5q-15 34 15 83t82.5 85.5t97.5 36.5q54 0 92 -38t37 -91q-12 -423 2 -653q4 -40 4 -53q4 -24 4 -35q6 -87 -66 -96zM1026 1198l-90 -180q-118 -224 -199 -400q-32 -66 -100.5 -212.5
t-93.5 -198.5q-40 -90 -103 -219q-48 -102 -94 -82q-63 26 -89.5 76.5t-16.5 99.5q10 45 49 133q116 241 200 406q176 352 252 512q61 122 140 294q8 17 23.5 50t23.5 49q5 12 17 18t24 0q101 -41 114.5 -123t-57.5 -223zM1395 348q37 -277 37 -364q0 -43 -19.5 -69
t-54.5 -26q-44 0 -77 35t-38 86l-10 129q-122 -16 -170 -16q-95 0 -144 51.5t-49 151.5q0 166 84 436q20 67 84 67q50 0 74.5 -42.5t7.5 -100.5q-21 -72 -42.5 -190t-20.5 -177q0 -22 2 -32q76 6 160 18q-7 103 -7 135q0 34 21 56t53 22q42 0 69.5 -34t35.5 -95q0 -10 2 -20
q0 -3 1 -10t1 -11z" />
    <glyph glyph-name="onehalf" unicode="&#xbd;" horiz-adv-x="1726" 
d="M293 623q-56 -6 -100.5 37t-51.5 110q-14 131 -2 537q-31 -9 -63 12.5t-51 64.5q-15 34 15 83t82 85.5t97 36.5q54 0 92.5 -38t36.5 -91q-13 -392 10 -717q3 -61 -12.5 -88t-52.5 -32zM969 1544q101 -41 114.5 -123t-57.5 -223l-90 -180q-118 -224 -199 -400
q-32 -66 -100.5 -212.5t-93.5 -198.5q-40 -90 -103 -219q-48 -102 -94 -82q-63 26 -89.5 76.5t-16.5 99.5q10 45 49 133q116 241 200 406q176 352 252 512q61 122 140 294q8 17 23.5 50t23.5 49q5 12 17 18t24 0zM1552 199q41 -6 65.5 -30.5t24.5 -62.5q0 -35 -29.5 -58.5
t-88.5 -22.5q-175 5 -424 -25q-48 -5 -69 12.5t-21 46.5q0 27 15.5 57.5t48 76.5t48.5 73q63 95 101.5 201t38.5 195q0 71 -66 71q-25 0 -80 -22q-34 -14 -69 -6.5t-54.5 29.5t-25 51.5t19.5 58.5q27 33 83 53.5t116 20.5q119 0 186.5 -65.5t67.5 -188.5q0 -199 -162 -474
q164 27 274 9z" />
    <glyph glyph-name="threequarters" unicode="&#xbe;" horiz-adv-x="1781" 
d="M733 971q0 -132 -120.5 -222t-301.5 -90q-107 0 -170 36t-63 98q0 35 23.5 53.5t58.5 11.5q79 -18 153 -18q95 0 161.5 42t66.5 95q0 37 -21.5 62t-62.5 37t-86.5 17t-106.5 5q-104 0 -104 69q0 18 6 35t20.5 35t26.5 31t37.5 32.5t38 29t44.5 31t42 28.5h-191
q-49 0 -81.5 18.5t-32.5 58.5q0 45 49 64.5t155 19.5q153 0 263 -18q37 -6 63.5 -37.5t26.5 -71.5t-35 -65q-6 -5 -77 -52.5t-116 -80.5q334 -3 334 -254zM1313 1198q-73 -149 -90 -180q-39 -74 -108 -215.5t-91 -184.5q-121 -248 -195 -411q-53 -117 -102 -219
q-48 -102 -94 -82q-64 28 -91 78t-16 98q15 66 49 133q6 13 82 167.5t119 238.5q40 81 124.5 254.5t127.5 257.5q23 46 68 145t71 149q8 17 23.5 50t23.5 49q5 12 17 18t24 0q101 -41 114 -122.5t-56 -223.5zM1743 348q37 -277 37 -364q0 -43 -19.5 -69t-54.5 -26
q-44 0 -77 35t-38 86l-10 129q-122 -16 -170 -16q-192 0 -192 203q0 166 84 436q20 67 83 67q50 0 74.5 -42.5t7.5 -100.5q-21 -72 -42.5 -190t-20.5 -177q0 -22 2 -32q76 6 160 18q-6 88 -6 135q0 34 20.5 56t52.5 22q42 0 69.5 -34t35.5 -95q0 -10 2 -20q0 -3 1 -10t1 -11
z" />
    <glyph glyph-name="questiondown" unicode="&#xbf;" horiz-adv-x="716" 
d="M453 934q-45 -2 -85.5 15.5t-62.5 51.5q-25 46 -6 88.5t64 72.5t88 30q41 -11 93 -63.5t36 -86.5q-19 -40 -57.5 -73.5t-69.5 -34.5zM618 -190q41 -26 50.5 -59.5t-15.5 -65.5q-46 -61 -120 -92t-146 -31q-115 0 -198.5 57.5t-120.5 147.5q-38 84 -13 185t115 200
q117 128 152.5 257t19.5 298q-4 35 25 45q96 32 133 -23q82 -131 44 -286t-186 -324q-55 -63 -72.5 -127t0 -114t63 -85t110.5 -45q32 54 72 71.5t87 -9.5z" />
    <glyph glyph-name="Agrave" unicode="&#xc0;" horiz-adv-x="1062" 
d="M618 1696q-69 35 -156.5 94.5t-92.5 93.5q-5 32 8 50t49 44q22 14 45.5 15.5t45 -6.5t52 -28.5t58.5 -42.5t74.5 -56.5t89.5 -63.5q36 -23 36 -57.5t-28 -59.5q-35 -26 -74.5 -21t-106.5 38zM850 1178q78 -481 63 -1129q-1 -69 -17 -96t-54 -27q-16 0 -35.5 5.5t-43.5 21
t-42.5 38.5t-30.5 62t-10 88q5 120 2 271q-214 -53 -326 -90q-8 -98 -8 -191q0 -22 -0.5 -34.5t-4 -29.5t-10 -25.5t-19.5 -15t-31 -6.5q-61 0 -110.5 43t-49.5 125q0 43 4 84q-25 7 -39 27.5t-14 48.5q0 67 69 101l7 30q28 148 59.5 280.5t74.5 264.5t89.5 227t104.5 154
t118 59q98 0 166.5 -86t87.5 -200zM387 535q172 53 287 75q-17 357 -72 625q-133 -247 -215 -700z" />
    <glyph glyph-name="Agrave" unicode="&#xe0;" horiz-adv-x="1062" 
d="M618 1696q-69 35 -156.5 94.5t-92.5 93.5q-5 32 8 50t49 44q22 14 45.5 15.5t45 -6.5t52 -28.5t58.5 -42.5t74.5 -56.5t89.5 -63.5q36 -23 36 -57.5t-28 -59.5q-35 -26 -74.5 -21t-106.5 38zM850 1178q78 -481 63 -1129q-1 -69 -17 -96t-54 -27q-16 0 -35.5 5.5t-43.5 21
t-42.5 38.5t-30.5 62t-10 88q5 120 2 271q-214 -53 -326 -90q-8 -98 -8 -191q0 -22 -0.5 -34.5t-4 -29.5t-10 -25.5t-19.5 -15t-31 -6.5q-61 0 -110.5 43t-49.5 125q0 43 4 84q-25 7 -39 27.5t-14 48.5q0 67 69 101l7 30q28 148 59.5 280.5t74.5 264.5t89.5 227t104.5 154
t118 59q98 0 166.5 -86t87.5 -200zM387 535q172 53 287 75q-17 357 -72 625q-133 -247 -215 -700z" />
    <glyph glyph-name="Aacute" unicode="&#xc1;" horiz-adv-x="1062" 
d="M393 1679q-28 25 -28 59.5t36 57.5q43 29 89.5 63.5t74.5 56.5t58.5 42.5t52 28.5t45 6.5t45.5 -15.5q25 -18 36 -27.5t18 -27t3 -39.5q-5 -34 -93 -93.5t-157 -94.5q-67 -33 -106 -38t-74 21zM850 1178q78 -481 63 -1129q-1 -69 -17 -96t-54 -27q-16 0 -35.5 5.5
t-43.5 21t-42.5 38.5t-30.5 62t-10 88q5 120 2 271q-214 -53 -326 -90q-8 -98 -8 -191q0 -22 -0.5 -34.5t-4 -29.5t-10 -25.5t-19.5 -15t-31 -6.5q-61 0 -110.5 43t-49.5 125q0 43 4 84q-25 7 -39 27.5t-14 48.5q0 67 69 101l7 30q28 148 59.5 280.5t74.5 264.5t89.5 227
t104.5 154t118 59q98 0 166.5 -86t87.5 -200zM387 535q172 53 287 75q-17 357 -72 625q-133 -247 -215 -700z" />
    <glyph glyph-name="Aacute" unicode="&#xe1;" horiz-adv-x="1062" 
d="M393 1679q-28 25 -28 59.5t36 57.5q43 29 89.5 63.5t74.5 56.5t58.5 42.5t52 28.5t45 6.5t45.5 -15.5q25 -18 36 -27.5t18 -27t3 -39.5q-5 -34 -93 -93.5t-157 -94.5q-67 -33 -106 -38t-74 21zM850 1178q78 -481 63 -1129q-1 -69 -17 -96t-54 -27q-16 0 -35.5 5.5
t-43.5 21t-42.5 38.5t-30.5 62t-10 88q5 120 2 271q-214 -53 -326 -90q-8 -98 -8 -191q0 -22 -0.5 -34.5t-4 -29.5t-10 -25.5t-19.5 -15t-31 -6.5q-61 0 -110.5 43t-49.5 125q0 43 4 84q-25 7 -39 27.5t-14 48.5q0 67 69 101l7 30q28 148 59.5 280.5t74.5 264.5t89.5 227
t104.5 154t118 59q98 0 166.5 -86t87.5 -200zM387 535q172 53 287 75q-17 357 -72 625q-133 -247 -215 -700z" />
    <glyph glyph-name="Acircumflex" unicode="&#xc2;" horiz-adv-x="1062" 
d="M358 1606q-27 0 -45.5 13.5t-24 35.5t7.5 54t46 65q32 32 74.5 95t78.5 90.5t95 27.5q20 0 35.5 -1.5t31.5 -8.5t25.5 -11t24.5 -20t23 -24.5t25.5 -35.5t26.5 -41t33 -53q39 -60 28 -114t-69 -54q-61 0 -101 53t-77 170q-47 -116 -104.5 -178.5t-133.5 -62.5zM850 1178
q78 -481 63 -1129q-1 -69 -17 -96t-54 -27q-16 0 -35.5 5.5t-43.5 21t-42.5 38.5t-30.5 62t-10 88q5 120 2 271q-214 -53 -326 -90q-8 -98 -8 -191q0 -22 -0.5 -34.5t-4 -29.5t-10 -25.5t-19.5 -15t-31 -6.5q-61 0 -110.5 43t-49.5 125q0 43 4 84q-25 7 -39 27.5t-14 48.5
q0 67 69 101l7 30q28 148 59.5 280.5t74.5 264.5t89.5 227t104.5 154t118 59q98 0 166.5 -86t87.5 -200zM387 535q172 53 287 75q-17 357 -72 625q-133 -247 -215 -700z" />
    <glyph glyph-name="Acircumflex" unicode="&#xe2;" horiz-adv-x="1062" 
d="M358 1606q-27 0 -45.5 13.5t-24 35.5t7.5 54t46 65q32 32 74.5 95t78.5 90.5t95 27.5q20 0 35.5 -1.5t31.5 -8.5t25.5 -11t24.5 -20t23 -24.5t25.5 -35.5t26.5 -41t33 -53q39 -60 28 -114t-69 -54q-61 0 -101 53t-77 170q-47 -116 -104.5 -178.5t-133.5 -62.5zM850 1178
q78 -481 63 -1129q-1 -69 -17 -96t-54 -27q-16 0 -35.5 5.5t-43.5 21t-42.5 38.5t-30.5 62t-10 88q5 120 2 271q-214 -53 -326 -90q-8 -98 -8 -191q0 -22 -0.5 -34.5t-4 -29.5t-10 -25.5t-19.5 -15t-31 -6.5q-61 0 -110.5 43t-49.5 125q0 43 4 84q-25 7 -39 27.5t-14 48.5
q0 67 69 101l7 30q28 148 59.5 280.5t74.5 264.5t89.5 227t104.5 154t118 59q98 0 166.5 -86t87.5 -200zM387 535q172 53 287 75q-17 357 -72 625q-133 -247 -215 -700z" />
    <glyph glyph-name="Atilde" unicode="&#xc3;" horiz-adv-x="1062" 
d="M371 1659q-43 0 -66 24.5t-23 60.5t13 77q25 65 76.5 101t122.5 36q121 0 190 -127q25 54 56 83.5t79 29.5q64 0 85.5 -53.5t-17.5 -125.5q-59 -106 -180 -106q-129 0 -215 119q-19 -62 -48 -90.5t-73 -28.5zM850 1178q78 -481 63 -1129q-1 -69 -17 -96t-54 -27
q-16 0 -35.5 5.5t-43.5 21t-42.5 38.5t-30.5 62t-10 88q5 120 2 271q-214 -53 -326 -90q-8 -98 -8 -191q0 -22 -0.5 -34.5t-4 -29.5t-10 -25.5t-19.5 -15t-31 -6.5q-61 0 -110.5 43t-49.5 125q0 43 4 84q-25 7 -39 27.5t-14 48.5q0 67 69 101l7 30q28 148 59.5 280.5
t74.5 264.5t89.5 227t104.5 154t118 59q98 0 166.5 -86t87.5 -200zM387 535q172 53 287 75q-17 357 -72 625q-133 -247 -215 -700z" />
    <glyph glyph-name="Atilde" unicode="&#xe3;" horiz-adv-x="1062" 
d="M371 1659q-43 0 -66 24.5t-23 60.5t13 77q25 65 76.5 101t122.5 36q121 0 190 -127q25 54 56 83.5t79 29.5q64 0 85.5 -53.5t-17.5 -125.5q-59 -106 -180 -106q-129 0 -215 119q-19 -62 -48 -90.5t-73 -28.5zM850 1178q78 -481 63 -1129q-1 -69 -17 -96t-54 -27
q-16 0 -35.5 5.5t-43.5 21t-42.5 38.5t-30.5 62t-10 88q5 120 2 271q-214 -53 -326 -90q-8 -98 -8 -191q0 -22 -0.5 -34.5t-4 -29.5t-10 -25.5t-19.5 -15t-31 -6.5q-61 0 -110.5 43t-49.5 125q0 43 4 84q-25 7 -39 27.5t-14 48.5q0 67 69 101l7 30q28 148 59.5 280.5
t74.5 264.5t89.5 227t104.5 154t118 59q98 0 166.5 -86t87.5 -200zM387 535q172 53 287 75q-17 357 -72 625q-133 -247 -215 -700z" />
    <glyph glyph-name="Adieresis" unicode="&#xc4;" horiz-adv-x="1062" 
d="M477 1706q-21 -13 -34.5 -18.5t-34 -2.5t-37.5 21q-29 30 -39 80t4 80q9 19 21.5 30.5t31 16t31 5.5t35.5 1q92 0 92 -100q0 -44 -16.5 -67t-53.5 -46zM799 1702q-26 -15 -64.5 -6t-66.5 37t-33 63.5t10 61.5q17 34 49.5 43.5t79.5 9.5q42 0 65 -25.5t23 -70.5
q0 -44 -14.5 -68.5t-48.5 -44.5zM850 1178q78 -481 63 -1129q-1 -69 -17 -96t-54 -27q-16 0 -35.5 5.5t-43.5 21t-42.5 38.5t-30.5 62t-10 88q5 120 2 271q-214 -53 -326 -90q-8 -98 -8 -191q0 -22 -0.5 -34.5t-4 -29.5t-10 -25.5t-19.5 -15t-31 -6.5q-61 0 -110.5 43
t-49.5 125q0 43 4 84q-25 7 -39 27.5t-14 48.5q0 67 69 101l7 30q28 148 59.5 280.5t74.5 264.5t89.5 227t104.5 154t118 59q98 0 166.5 -86t87.5 -200zM387 535q172 53 287 75q-17 357 -72 625q-133 -247 -215 -700z" />
    <glyph glyph-name="Adieresis" unicode="&#xe4;" horiz-adv-x="1062" 
d="M477 1706q-21 -13 -34.5 -18.5t-34 -2.5t-37.5 21q-29 30 -39 80t4 80q9 19 21.5 30.5t31 16t31 5.5t35.5 1q92 0 92 -100q0 -44 -16.5 -67t-53.5 -46zM799 1702q-26 -15 -64.5 -6t-66.5 37t-33 63.5t10 61.5q17 34 49.5 43.5t79.5 9.5q42 0 65 -25.5t23 -70.5
q0 -44 -14.5 -68.5t-48.5 -44.5zM850 1178q78 -481 63 -1129q-1 -69 -17 -96t-54 -27q-16 0 -35.5 5.5t-43.5 21t-42.5 38.5t-30.5 62t-10 88q5 120 2 271q-214 -53 -326 -90q-8 -98 -8 -191q0 -22 -0.5 -34.5t-4 -29.5t-10 -25.5t-19.5 -15t-31 -6.5q-61 0 -110.5 43
t-49.5 125q0 43 4 84q-25 7 -39 27.5t-14 48.5q0 67 69 101l7 30q28 148 59.5 280.5t74.5 264.5t89.5 227t104.5 154t118 59q98 0 166.5 -86t87.5 -200zM387 535q172 53 287 75q-17 357 -72 625q-133 -247 -215 -700z" />
    <glyph glyph-name="Aring" unicode="&#xc5;" horiz-adv-x="1062" 
d="M590 1599q-102 0 -159.5 67t-57.5 149q0 80 30.5 139t112.5 110q44 25 81.5 16t49.5 -38q43 3 72 -23q100 -83 100 -180q0 -95 -70.5 -167.5t-158.5 -72.5zM584 1952q-23 -23 -34.5 -52.5t-11.5 -56t6.5 -49.5t19 -37t26.5 -14q23 0 45 27.5t22 68.5q0 21 -32 54.5
t-41 58.5zM850 1178q78 -481 63 -1129q-1 -69 -17 -96t-54 -27q-16 0 -35.5 5.5t-43.5 21t-42.5 38.5t-30.5 62t-10 88q5 120 2 271q-214 -53 -326 -90q-8 -98 -8 -191q0 -22 -0.5 -34.5t-4 -29.5t-10 -25.5t-19.5 -15t-31 -6.5q-61 0 -110.5 43t-49.5 125q0 43 4 84
q-25 7 -39 27.5t-14 48.5q0 67 69 101l7 30q28 148 59.5 280.5t74.5 264.5t89.5 227t104.5 154t118 59q98 0 166.5 -86t87.5 -200zM387 535q172 53 287 75q-17 357 -72 625q-133 -247 -215 -700z" />
    <glyph glyph-name="Aring" unicode="&#xe5;" horiz-adv-x="1062" 
d="M590 1599q-102 0 -159.5 67t-57.5 149q0 80 30.5 139t112.5 110q44 25 81.5 16t49.5 -38q43 3 72 -23q100 -83 100 -180q0 -95 -70.5 -167.5t-158.5 -72.5zM584 1952q-23 -23 -34.5 -52.5t-11.5 -56t6.5 -49.5t19 -37t26.5 -14q23 0 45 27.5t22 68.5q0 21 -32 54.5
t-41 58.5zM850 1178q78 -481 63 -1129q-1 -69 -17 -96t-54 -27q-16 0 -35.5 5.5t-43.5 21t-42.5 38.5t-30.5 62t-10 88q5 120 2 271q-214 -53 -326 -90q-8 -98 -8 -191q0 -22 -0.5 -34.5t-4 -29.5t-10 -25.5t-19.5 -15t-31 -6.5q-61 0 -110.5 43t-49.5 125q0 43 4 84
q-25 7 -39 27.5t-14 48.5q0 67 69 101l7 30q28 148 59.5 280.5t74.5 264.5t89.5 227t104.5 154t118 59q98 0 166.5 -86t87.5 -200zM387 535q172 53 287 75q-17 357 -72 625q-133 -247 -215 -700z" />
    <glyph glyph-name="AE" unicode="&#xc6;" horiz-adv-x="1658" 
d="M1589 254q1 -22 -16.5 -38t-59.5 -34q-35 -15 -104.5 -44.5t-101.5 -43t-86 -35.5t-85 -32t-70.5 -22t-69 -16.5t-56.5 -4.5q-166 0 -225 229q-104 -23 -234 -57q-12 -106 -12 -230q0 -21 -1 -34.5t-4.5 -29.5t-10 -25t-19.5 -15t-31 -6q-61 0 -110 43t-49 125l4 98
q-4 -2 -13.5 -5t-13.5 -5q-65 -22 -106 -1t-41 72q0 43 23.5 67.5t68.5 41.5q75 28 106 39q29 161 80.5 328.5t115.5 312t140.5 236.5t147.5 92q22 0 43 -9q27 43 84 49q273 89 477 111q215 22 225 -82q6 -67 -80 -82q-52 -10 -208 -47.5t-291 -75.5q-42 -137 -72 -387
q109 29 268 60q88 19 146.5 3t64.5 -69q2 -31 -17.5 -52t-68.5 -32q-318 -81 -412 -108q-3 -92 3 -160q9 -111 30 -180q336 116 451 147q23 8 54.5 4t61 -14t51 -32t23.5 -50zM731 973q-147 -256 -215 -604q136 33 170 39q-14 221 45 565z" />
    <glyph glyph-name="AE" unicode="&#xe6;" horiz-adv-x="1658" 
d="M1589 254q1 -22 -16.5 -38t-59.5 -34q-35 -15 -104.5 -44.5t-101.5 -43t-86 -35.5t-85 -32t-70.5 -22t-69 -16.5t-56.5 -4.5q-166 0 -225 229q-104 -23 -234 -57q-12 -106 -12 -230q0 -21 -1 -34.5t-4.5 -29.5t-10 -25t-19.5 -15t-31 -6q-61 0 -110 43t-49 125l4 98
q-4 -2 -13.5 -5t-13.5 -5q-65 -22 -106 -1t-41 72q0 43 23.5 67.5t68.5 41.5q75 28 106 39q29 161 80.5 328.5t115.5 312t140.5 236.5t147.5 92q22 0 43 -9q27 43 84 49q273 89 477 111q215 22 225 -82q6 -67 -80 -82q-52 -10 -208 -47.5t-291 -75.5q-42 -137 -72 -387
q109 29 268 60q88 19 146.5 3t64.5 -69q2 -31 -17.5 -52t-68.5 -32q-318 -81 -412 -108q-3 -92 3 -160q9 -111 30 -180q336 116 451 147q23 8 54.5 4t61 -14t51 -32t23.5 -50zM731 973q-147 -256 -215 -604q136 33 170 39q-14 221 45 565z" />
    <glyph glyph-name="Ccedilla" unicode="&#xc7;" horiz-adv-x="1136" 
d="M958 565q50 0 79.5 -64.5t6.5 -129.5q-57 -162 -200 -278t-318 -126q-2 -6 -10 -14l-57 -68q84 10 157 -5.5t119.5 -58t46.5 -104.5q0 -49 -23.5 -97t-68 -89.5t-119.5 -67.5t-168 -26q-85 0 -126 26.5t-41 71.5t37 68.5t128 23.5q124 0 168 92q-41 17 -89.5 17
t-121.5 -15q-66 -13 -90 26.5t11 90.5l94 144q-131 36 -205 151.5t-74 300.5q0 194 49.5 380.5t132.5 327.5t198 227.5t239 86.5q95 0 142.5 -41t47.5 -102q0 -47 -31.5 -78t-83.5 -31q-77 0 -120 49q-130 -99 -228 -333.5t-98 -477.5q0 -119 29.5 -182.5t85.5 -99.5
q127 19 223 89.5t180 231.5q23 45 44.5 64.5t53.5 19.5z" />
    <glyph glyph-name="Ccedilla" unicode="&#xe7;" horiz-adv-x="1136" 
d="M958 565q50 0 79.5 -64.5t6.5 -129.5q-57 -162 -200 -278t-318 -126q-2 -6 -10 -14l-57 -68q84 10 157 -5.5t119.5 -58t46.5 -104.5q0 -49 -23.5 -97t-68 -89.5t-119.5 -67.5t-168 -26q-85 0 -126 26.5t-41 71.5t37 68.5t128 23.5q124 0 168 92q-41 17 -89.5 17
t-121.5 -15q-66 -13 -90 26.5t11 90.5l94 144q-131 36 -205 151.5t-74 300.5q0 194 49.5 380.5t132.5 327.5t198 227.5t239 86.5q95 0 142.5 -41t47.5 -102q0 -47 -31.5 -78t-83.5 -31q-77 0 -120 49q-130 -99 -228 -333.5t-98 -477.5q0 -119 29.5 -182.5t85.5 -99.5
q127 19 223 89.5t180 231.5q23 45 44.5 64.5t53.5 19.5z" />
    <glyph glyph-name="Egrave" unicode="&#xc8;" horiz-adv-x="1107" 
d="M641 1573q-69 35 -157 94.5t-93 93.5q-5 32 8 50t50 44q22 14 45.5 15.5t44.5 -6.5t51.5 -28.5t58.5 -42.5t74.5 -56.5t89.5 -63.5q36 -23 36 -57.5t-28 -59.5q-35 -26 -74 -21t-106 38zM1038 254q1 -22 -16 -38t-59 -34q-33 -14 -104.5 -44.5t-102 -43.5t-86 -35
t-85.5 -32t-70 -22t-69.5 -16.5t-56.5 -4.5q-44 0 -81 17t-61.5 41.5t-44 64t-30 71.5t-19 77.5t-11 69t-5.5 58.5q-12 153 7 339t75 462q22 106 113 116q273 89 477 111q215 22 225 -82q6 -67 -80 -82q-52 -10 -208 -47.5t-291 -75.5q-42 -137 -72 -387q109 29 268 60
q88 19 146.5 3t64.5 -69q2 -31 -17.5 -52t-68.5 -32q-308 -79 -411 -108q-3 -100 2 -160q9 -111 30 -180q336 116 451 147q23 8 54.5 4t61 -14t51 -32t23.5 -50z" />
    <glyph glyph-name="Egrave" unicode="&#xe8;" horiz-adv-x="1107" 
d="M641 1573q-69 35 -157 94.5t-93 93.5q-5 32 8 50t50 44q22 14 45.5 15.5t44.5 -6.5t51.5 -28.5t58.5 -42.5t74.5 -56.5t89.5 -63.5q36 -23 36 -57.5t-28 -59.5q-35 -26 -74 -21t-106 38zM1038 254q1 -22 -16 -38t-59 -34q-33 -14 -104.5 -44.5t-102 -43.5t-86 -35
t-85.5 -32t-70 -22t-69.5 -16.5t-56.5 -4.5q-44 0 -81 17t-61.5 41.5t-44 64t-30 71.5t-19 77.5t-11 69t-5.5 58.5q-12 153 7 339t75 462q22 106 113 116q273 89 477 111q215 22 225 -82q6 -67 -80 -82q-52 -10 -208 -47.5t-291 -75.5q-42 -137 -72 -387q109 29 268 60
q88 19 146.5 3t64.5 -69q2 -31 -17.5 -52t-68.5 -32q-308 -79 -411 -108q-3 -100 2 -160q9 -111 30 -180q336 116 451 147q23 8 54.5 4t61 -14t51 -32t23.5 -50z" />
    <glyph glyph-name="Eacute" unicode="&#xc9;" horiz-adv-x="1107" 
d="M416 1556q-28 25 -28 59.5t36 57.5q43 29 89.5 63.5t74.5 56.5t58.5 42.5t51.5 28.5t44.5 6.5t45.5 -15.5q25 -18 36 -27.5t18.5 -27t3.5 -39.5q-5 -34 -93 -93.5t-157 -94.5q-67 -33 -106 -38t-74 21zM1038 254q1 -22 -16 -38t-59 -34q-33 -14 -104.5 -44.5t-102 -43.5
t-86 -35t-85.5 -32t-70 -22t-69.5 -16.5t-56.5 -4.5q-44 0 -81 17t-61.5 41.5t-44 64t-30 71.5t-19 77.5t-11 69t-5.5 58.5q-12 153 7 339t75 462q22 106 113 116q273 89 477 111q215 22 225 -82q6 -67 -80 -82q-52 -10 -208 -47.5t-291 -75.5q-42 -137 -72 -387
q109 29 268 60q88 19 146.5 3t64.5 -69q2 -31 -17.5 -52t-68.5 -32q-308 -79 -411 -108q-3 -100 2 -160q9 -111 30 -180q336 116 451 147q23 8 54.5 4t61 -14t51 -32t23.5 -50z" />
    <glyph glyph-name="Eacute" unicode="&#xe9;" horiz-adv-x="1107" 
d="M416 1556q-28 25 -28 59.5t36 57.5q43 29 89.5 63.5t74.5 56.5t58.5 42.5t51.5 28.5t44.5 6.5t45.5 -15.5q25 -18 36 -27.5t18.5 -27t3.5 -39.5q-5 -34 -93 -93.5t-157 -94.5q-67 -33 -106 -38t-74 21zM1038 254q1 -22 -16 -38t-59 -34q-33 -14 -104.5 -44.5t-102 -43.5
t-86 -35t-85.5 -32t-70 -22t-69.5 -16.5t-56.5 -4.5q-44 0 -81 17t-61.5 41.5t-44 64t-30 71.5t-19 77.5t-11 69t-5.5 58.5q-12 153 7 339t75 462q22 106 113 116q273 89 477 111q215 22 225 -82q6 -67 -80 -82q-52 -10 -208 -47.5t-291 -75.5q-42 -137 -72 -387
q109 29 268 60q88 19 146.5 3t64.5 -69q2 -31 -17.5 -52t-68.5 -32q-308 -79 -411 -108q-3 -100 2 -160q9 -111 30 -180q336 116 451 147q23 8 54.5 4t61 -14t51 -32t23.5 -50z" />
    <glyph glyph-name="Ecircumflex" unicode="&#xca;" horiz-adv-x="1107" 
d="M381 1483q-27 0 -45.5 13.5t-24 35.5t7.5 54t46 65q29 30 61.5 75t51.5 71t53.5 46.5t80.5 20.5q27 0 46.5 -3t39 -15t31.5 -21.5t33 -38.5t33.5 -49l42.5 -68q39 -60 28 -114t-69 -54q-61 0 -101.5 53t-77.5 170q-47 -117 -104.5 -179t-132.5 -62zM1038 254
q1 -22 -16 -38t-59 -34q-33 -14 -104.5 -44.5t-102 -43.5t-86 -35t-85.5 -32t-70 -22t-69.5 -16.5t-56.5 -4.5q-44 0 -81 17t-61.5 41.5t-44 64t-30 71.5t-19 77.5t-11 69t-5.5 58.5q-12 153 7 339t75 462q22 106 113 116q273 89 477 111q215 22 225 -82q6 -67 -80 -82
q-52 -10 -208 -47.5t-291 -75.5q-42 -137 -72 -387q109 29 268 60q88 19 146.5 3t64.5 -69q2 -31 -17.5 -52t-68.5 -32q-308 -79 -411 -108q-3 -100 2 -160q9 -111 30 -180q336 116 451 147q23 8 54.5 4t61 -14t51 -32t23.5 -50z" />
    <glyph glyph-name="Ecircumflex" unicode="&#xea;" horiz-adv-x="1107" 
d="M381 1483q-27 0 -45.5 13.5t-24 35.5t7.5 54t46 65q29 30 61.5 75t51.5 71t53.5 46.5t80.5 20.5q27 0 46.5 -3t39 -15t31.5 -21.5t33 -38.5t33.5 -49l42.5 -68q39 -60 28 -114t-69 -54q-61 0 -101.5 53t-77.5 170q-47 -117 -104.5 -179t-132.5 -62zM1038 254
q1 -22 -16 -38t-59 -34q-33 -14 -104.5 -44.5t-102 -43.5t-86 -35t-85.5 -32t-70 -22t-69.5 -16.5t-56.5 -4.5q-44 0 -81 17t-61.5 41.5t-44 64t-30 71.5t-19 77.5t-11 69t-5.5 58.5q-12 153 7 339t75 462q22 106 113 116q273 89 477 111q215 22 225 -82q6 -67 -80 -82
q-52 -10 -208 -47.5t-291 -75.5q-42 -137 -72 -387q109 29 268 60q88 19 146.5 3t64.5 -69q2 -31 -17.5 -52t-68.5 -32q-308 -79 -411 -108q-3 -100 2 -160q9 -111 30 -180q336 116 451 147q23 8 54.5 4t61 -14t51 -32t23.5 -50z" />
    <glyph glyph-name="Edieresis" unicode="&#xcb;" horiz-adv-x="1107" 
d="M500 1583q-21 -13 -35 -18.5t-34.5 -2.5t-37.5 21q-29 30 -39 80t4 80q9 19 21.5 30.5t31 16t31 5.5t35.5 1q92 0 92 -100q0 -44 -16 -67t-53 -46zM821 1579q-26 -15 -64.5 -6t-66.5 37t-32.5 63.5t10.5 61.5q17 34 49.5 43.5t79.5 9.5q42 0 65 -25.5t23 -70.5
q0 -44 -15 -68.5t-49 -44.5zM1038 254q1 -22 -16 -38t-59 -34q-33 -14 -104.5 -44.5t-102 -43.5t-86 -35t-85.5 -32t-70 -22t-69.5 -16.5t-56.5 -4.5q-44 0 -81 17t-61.5 41.5t-44 64t-30 71.5t-19 77.5t-11 69t-5.5 58.5q-12 153 7 339t75 462q22 106 113 116
q273 89 477 111q215 22 225 -82q6 -67 -80 -82q-52 -10 -208 -47.5t-291 -75.5q-42 -137 -72 -387q109 29 268 60q88 19 146.5 3t64.5 -69q2 -31 -17.5 -52t-68.5 -32q-308 -79 -411 -108q-3 -100 2 -160q9 -111 30 -180q336 116 451 147q23 8 54.5 4t61 -14t51 -32
t23.5 -50z" />
    <glyph glyph-name="Edieresis" unicode="&#xeb;" horiz-adv-x="1107" 
d="M500 1583q-21 -13 -35 -18.5t-34.5 -2.5t-37.5 21q-29 30 -39 80t4 80q9 19 21.5 30.5t31 16t31 5.5t35.5 1q92 0 92 -100q0 -44 -16 -67t-53 -46zM821 1579q-26 -15 -64.5 -6t-66.5 37t-32.5 63.5t10.5 61.5q17 34 49.5 43.5t79.5 9.5q42 0 65 -25.5t23 -70.5
q0 -44 -15 -68.5t-49 -44.5zM1038 254q1 -22 -16 -38t-59 -34q-33 -14 -104.5 -44.5t-102 -43.5t-86 -35t-85.5 -32t-70 -22t-69.5 -16.5t-56.5 -4.5q-44 0 -81 17t-61.5 41.5t-44 64t-30 71.5t-19 77.5t-11 69t-5.5 58.5q-12 153 7 339t75 462q22 106 113 116
q273 89 477 111q215 22 225 -82q6 -67 -80 -82q-52 -10 -208 -47.5t-291 -75.5q-42 -137 -72 -387q109 29 268 60q88 19 146.5 3t64.5 -69q2 -31 -17.5 -52t-68.5 -32q-308 -79 -411 -108q-3 -100 2 -160q9 -111 30 -180q336 116 451 147q23 8 54.5 4t61 -14t51 -32
t23.5 -50z" />
    <glyph glyph-name="Igrave" unicode="&#xcc;" horiz-adv-x="546" 
d="M520 1585q-35 -26 -74 -21t-106 38q-69 35 -157 94.5t-93 93.5q-5 32 8 50t49 44q22 14 45.5 15.5t45 -6.5t52 -28.5t58.5 -42.5t74.5 -56.5t89.5 -63.5q36 -23 36 -57.5t-28 -59.5zM270 23q-61 0 -115.5 56.5t-54.5 153.5q0 106 37.5 427.5t75.5 566.5q13 80 29 107.5
t59 27.5q22 0 47.5 -13t47.5 -36.5t33.5 -62.5t4.5 -85q-33 -216 -60.5 -485t-31.5 -420q-1 -31 -1 -77t-1 -64q-1 -52 -17.5 -74t-52.5 -22z" />
    <glyph glyph-name="Igrave" unicode="&#xec;" horiz-adv-x="546" 
d="M520 1585q-35 -26 -74 -21t-106 38q-69 35 -157 94.5t-93 93.5q-5 32 8 50t49 44q22 14 45.5 15.5t45 -6.5t52 -28.5t58.5 -42.5t74.5 -56.5t89.5 -63.5q36 -23 36 -57.5t-28 -59.5zM270 23q-61 0 -115.5 56.5t-54.5 153.5q0 106 37.5 427.5t75.5 566.5q13 80 29 107.5
t59 27.5q22 0 47.5 -13t47.5 -36.5t33.5 -62.5t4.5 -85q-33 -216 -60.5 -485t-31.5 -420q-1 -31 -1 -77t-1 -64q-1 -52 -17.5 -74t-52.5 -22z" />
    <glyph glyph-name="Iacute" unicode="&#xcd;" horiz-adv-x="546" 
d="M115 1585q-28 25 -28 59.5t36 57.5q43 29 89.5 63.5t74.5 56.5t58.5 42.5t51.5 28.5t44.5 6.5t45.5 -15.5q25 -18 36 -27.5t18.5 -27t3.5 -39.5q-5 -34 -93 -93.5t-157 -94.5q-67 -33 -106 -38t-74 21zM270 23q-61 0 -115.5 56.5t-54.5 153.5q0 106 37.5 427.5
t75.5 566.5q13 80 29 107.5t59 27.5q22 0 47.5 -13t47.5 -36.5t33.5 -62.5t4.5 -85q-33 -216 -60.5 -485t-31.5 -420q-1 -31 -1 -77t-1 -64q-1 -52 -17.5 -74t-52.5 -22z" />
    <glyph glyph-name="Iacute" unicode="&#xed;" horiz-adv-x="546" 
d="M115 1585q-28 25 -28 59.5t36 57.5q43 29 89.5 63.5t74.5 56.5t58.5 42.5t51.5 28.5t44.5 6.5t45.5 -15.5q25 -18 36 -27.5t18.5 -27t3.5 -39.5q-5 -34 -93 -93.5t-157 -94.5q-67 -33 -106 -38t-74 21zM270 23q-61 0 -115.5 56.5t-54.5 153.5q0 106 37.5 427.5
t75.5 566.5q13 80 29 107.5t59 27.5q22 0 47.5 -13t47.5 -36.5t33.5 -62.5t4.5 -85q-33 -216 -60.5 -485t-31.5 -420q-1 -31 -1 -77t-1 -64q-1 -52 -17.5 -74t-52.5 -22z" />
    <glyph glyph-name="Icircumflex" unicode="&#xce;" horiz-adv-x="546" 
d="M537 1698q39 -60 28 -114t-69 -54q-61 0 -101.5 53t-77.5 170q-48 -117 -105 -179.5t-132 -62.5q-27 0 -45.5 13.5t-24.5 35.5t7 54t46 65q32 32 74.5 95t78.5 90.5t95 27.5q27 0 46.5 -3t39 -14.5t31.5 -21.5t32.5 -38t34 -48.5t42.5 -68.5zM301 1362q22 0 47.5 -13
t47.5 -36.5t33.5 -62.5t4.5 -85q-33 -216 -60.5 -485t-31.5 -420q-1 -31 -1 -77t-1 -64q-1 -52 -17.5 -74t-52.5 -22q-61 0 -115.5 56.5t-54.5 153.5q0 106 37.5 427.5t75.5 566.5q13 80 29 107.5t59 27.5z" />
    <glyph glyph-name="Icircumflex" unicode="&#xee;" horiz-adv-x="546" 
d="M537 1698q39 -60 28 -114t-69 -54q-61 0 -101.5 53t-77.5 170q-48 -117 -105 -179.5t-132 -62.5q-27 0 -45.5 13.5t-24.5 35.5t7 54t46 65q32 32 74.5 95t78.5 90.5t95 27.5q27 0 46.5 -3t39 -14.5t31.5 -21.5t32.5 -38t34 -48.5t42.5 -68.5zM301 1362q22 0 47.5 -13
t47.5 -36.5t33.5 -62.5t4.5 -85q-33 -216 -60.5 -485t-31.5 -420q-1 -31 -1 -77t-1 -64q-1 -52 -17.5 -74t-52.5 -22q-61 0 -115.5 56.5t-54.5 153.5q0 106 37.5 427.5t75.5 566.5q13 80 29 107.5t59 27.5z" />
    <glyph glyph-name="Idieresis" unicode="&#xcf;" horiz-adv-x="546" 
d="M92 1612q-29 30 -39 80t4 80q9 19 21.5 30.5t31 16t30.5 5.5t36 1q44 0 68 -26t24 -75q0 -44 -16 -66.5t-53 -45.5q-21 -13 -35 -18.5t-34.5 -2.5t-37.5 21zM520 1608q-26 -15 -64.5 -6.5t-66.5 36.5t-32.5 63.5t10.5 61.5q26 54 129 54q42 0 65 -26t23 -71
q0 -44 -15 -68t-49 -44zM270 23q-61 0 -115.5 56.5t-54.5 153.5q0 106 37.5 427.5t75.5 566.5q13 80 29 107.5t59 27.5q22 0 47.5 -13t47.5 -36.5t33.5 -62.5t4.5 -85q-33 -216 -60.5 -485t-31.5 -420q-1 -31 -1 -77t-1 -64q-1 -52 -17.5 -74t-52.5 -22z" />
    <glyph glyph-name="Idieresis" unicode="&#xef;" horiz-adv-x="546" 
d="M92 1612q-29 30 -39 80t4 80q9 19 21.5 30.5t31 16t30.5 5.5t36 1q44 0 68 -26t24 -75q0 -44 -16 -66.5t-53 -45.5q-21 -13 -35 -18.5t-34.5 -2.5t-37.5 21zM520 1608q-26 -15 -64.5 -6.5t-66.5 36.5t-32.5 63.5t10.5 61.5q26 54 129 54q42 0 65 -26t23 -71
q0 -44 -15 -68t-49 -44zM270 23q-61 0 -115.5 56.5t-54.5 153.5q0 106 37.5 427.5t75.5 566.5q13 80 29 107.5t59 27.5q22 0 47.5 -13t47.5 -36.5t33.5 -62.5t4.5 -85q-33 -216 -60.5 -485t-31.5 -420q-1 -31 -1 -77t-1 -64q-1 -52 -17.5 -74t-52.5 -22z" />
    <glyph glyph-name="Eth" unicode="&#xd0;" horiz-adv-x="1171" 
d="M666 1393q209 0 319.5 -108.5t110.5 -289.5q0 -93 -22 -186.5t-76 -200t-137.5 -208t-213.5 -210t-297 -206.5q-84 -48 -106 -55q-19 -5 -45 -5q-50 0 -96 25.5t-46 73.5q0 42 28.5 68.5t70.5 31.5q3 2 21 12.5t26 16.5q-22 23 -27 61.5t0.5 114.5t5.5 106q0 85 2 144
q-18 -4 -53.5 -13t-40.5 -10q-45 -16 -92 -6t-55 53q-16 85 133 137q64 22 110 35l4 377q0 88 82 119q75 59 177.5 91t216.5 32zM408 287q226 167 340 347t114 361q0 203 -207 203q-107 0 -233 -70v-2q3 -155 0 -313q181 14 199 -68q15 -73 -74 -94q-55 -11 -127 -24
q-7 -242 -12 -340z" />
    <glyph glyph-name="Eth" unicode="&#xf0;" horiz-adv-x="1171" 
d="M666 1393q209 0 319.5 -108.5t110.5 -289.5q0 -93 -22 -186.5t-76 -200t-137.5 -208t-213.5 -210t-297 -206.5q-84 -48 -106 -55q-19 -5 -45 -5q-50 0 -96 25.5t-46 73.5q0 42 28.5 68.5t70.5 31.5q3 2 21 12.5t26 16.5q-22 23 -27 61.5t0.5 114.5t5.5 106q0 85 2 144
q-18 -4 -53.5 -13t-40.5 -10q-45 -16 -92 -6t-55 53q-16 85 133 137q64 22 110 35l4 377q0 88 82 119q75 59 177.5 91t216.5 32zM408 287q226 167 340 347t114 361q0 203 -207 203q-107 0 -233 -70v-2q3 -155 0 -313q181 14 199 -68q15 -73 -74 -94q-55 -11 -127 -24
q-7 -242 -12 -340z" />
    <glyph glyph-name="Ntilde" unicode="&#xd1;" horiz-adv-x="1296" 
d="M475 1567q-43 0 -66 24.5t-23 60.5t13 77q25 65 76.5 101t122.5 36q121 0 190 -127q25 54 56 83t80 29q64 0 85 -53t-18 -125q-59 -106 -180 -106q-129 0 -215 119q-19 -62 -48 -90.5t-73 -28.5zM1004 1419q51 0 106.5 -59t52.5 -123q-6 -161 -19 -328.5t-36.5 -424.5
t-32.5 -369q-4 -55 -27.5 -84t-62.5 -29q-53 0 -101.5 36t-70.5 89q-79 194 -205.5 526.5t-185.5 466.5q-72 -525 -53 -860q6 -107 12 -174q8 -52 0.5 -80.5t-51.5 -28.5q-68 0 -128 63.5t-65 133.5q-18 252 6.5 531.5t75.5 531.5q13 68 46 103.5t100 35.5q77 0 141 -39.5
t104 -119.5q106 -205 269 -691q24 270 53 799q2 31 7 49t21 31.5t44 13.5z" />
    <glyph glyph-name="Ntilde" unicode="&#xf1;" horiz-adv-x="1296" 
d="M475 1567q-43 0 -66 24.5t-23 60.5t13 77q25 65 76.5 101t122.5 36q121 0 190 -127q25 54 56 83t80 29q64 0 85 -53t-18 -125q-59 -106 -180 -106q-129 0 -215 119q-19 -62 -48 -90.5t-73 -28.5zM1004 1419q51 0 106.5 -59t52.5 -123q-6 -161 -19 -328.5t-36.5 -424.5
t-32.5 -369q-4 -55 -27.5 -84t-62.5 -29q-53 0 -101.5 36t-70.5 89q-79 194 -205.5 526.5t-185.5 466.5q-72 -525 -53 -860q6 -107 12 -174q8 -52 0.5 -80.5t-51.5 -28.5q-68 0 -128 63.5t-65 133.5q-18 252 6.5 531.5t75.5 531.5q13 68 46 103.5t100 35.5q77 0 141 -39.5
t104 -119.5q106 -205 269 -691q24 270 53 799q2 31 7 49t21 31.5t44 13.5z" />
    <glyph glyph-name="Ograve" unicode="&#xd2;" horiz-adv-x="1087" 
d="M610 1622q-69 35 -157 94.5t-93 93.5q-5 32 8 50.5t50 44.5q22 14 45.5 15.5t44.5 -6.5t51.5 -29t58.5 -43t74.5 -56.5t89.5 -63.5q36 -24 36.5 -59t-27.5 -57q-34 -26 -74 -21.5t-107 37.5zM616 1386q85 0 152 -27.5t109.5 -71.5t70.5 -104.5t39.5 -123t11.5 -129.5
q0 -128 -19.5 -250t-60.5 -232.5t-99 -194t-141.5 -132.5t-182.5 -49q-192 0 -293.5 145t-96.5 395q4 261 51 402.5t128 156.5q44 108 135.5 161.5t195.5 53.5zM506 270q60 0 111 62t82.5 161.5t49 218.5t17.5 238q0 240 -152 240q-50 0 -85 -27t-66 -82q-32 -56 -80 -69
q-47 -234 -47 -383q0 -176 40 -267.5t130 -91.5z" />
    <glyph glyph-name="Ograve" unicode="&#xf2;" horiz-adv-x="1087" 
d="M610 1622q-69 35 -157 94.5t-93 93.5q-5 32 8 50.5t50 44.5q22 14 45.5 15.5t44.5 -6.5t51.5 -29t58.5 -43t74.5 -56.5t89.5 -63.5q36 -24 36.5 -59t-27.5 -57q-34 -26 -74 -21.5t-107 37.5zM616 1386q85 0 152 -27.5t109.5 -71.5t70.5 -104.5t39.5 -123t11.5 -129.5
q0 -128 -19.5 -250t-60.5 -232.5t-99 -194t-141.5 -132.5t-182.5 -49q-192 0 -293.5 145t-96.5 395q4 261 51 402.5t128 156.5q44 108 135.5 161.5t195.5 53.5zM506 270q60 0 111 62t82.5 161.5t49 218.5t17.5 238q0 240 -152 240q-50 0 -85 -27t-66 -82q-32 -56 -80 -69
q-47 -234 -47 -383q0 -176 40 -267.5t130 -91.5z" />
    <glyph glyph-name="Oacute" unicode="&#xd3;" horiz-adv-x="1087" 
d="M385 1606q-28 25 -28 59t36 57q43 29 89.5 63.5t74.5 56.5t58.5 43t52 29t45 6.5t45.5 -15.5q36 -25 49 -44t8 -51q-5 -34 -93 -93.5t-157 -94.5q-67 -33 -106.5 -37.5t-73.5 21.5zM616 1386q85 0 152 -27.5t109.5 -71.5t70.5 -104.5t39.5 -123t11.5 -129.5
q0 -128 -19.5 -250t-60.5 -232.5t-99 -194t-141.5 -132.5t-182.5 -49q-192 0 -293.5 145t-96.5 395q4 261 51 402.5t128 156.5q44 108 135.5 161.5t195.5 53.5zM506 270q60 0 111 62t82.5 161.5t49 218.5t17.5 238q0 240 -152 240q-50 0 -85 -27t-66 -82q-32 -56 -80 -69
q-47 -234 -47 -383q0 -176 40 -267.5t130 -91.5z" />
    <glyph glyph-name="Oacute" unicode="&#xf3;" horiz-adv-x="1087" 
d="M385 1606q-28 25 -28 59t36 57q43 29 89.5 63.5t74.5 56.5t58.5 43t52 29t45 6.5t45.5 -15.5q36 -25 49 -44t8 -51q-5 -34 -93 -93.5t-157 -94.5q-67 -33 -106.5 -37.5t-73.5 21.5zM616 1386q85 0 152 -27.5t109.5 -71.5t70.5 -104.5t39.5 -123t11.5 -129.5
q0 -128 -19.5 -250t-60.5 -232.5t-99 -194t-141.5 -132.5t-182.5 -49q-192 0 -293.5 145t-96.5 395q4 261 51 402.5t128 156.5q44 108 135.5 161.5t195.5 53.5zM506 270q60 0 111 62t82.5 161.5t49 218.5t17.5 238q0 240 -152 240q-50 0 -85 -27t-66 -82q-32 -56 -80 -69
q-47 -234 -47 -383q0 -176 40 -267.5t130 -91.5z" />
    <glyph glyph-name="Ocircumflex" unicode="&#xd4;" horiz-adv-x="1087" 
d="M350 1532q-27 0 -45.5 13.5t-24 35.5t7.5 54t46 65q32 32 74.5 95t78.5 90.5t95 27.5q20 0 35.5 -1.5t31.5 -8.5t25.5 -11t24.5 -20t23 -24.5t25.5 -35.5t26.5 -41t33 -53q39 -60 28 -114t-69 -54q-61 0 -101 53t-77 171q-47 -117 -104.5 -179.5t-133.5 -62.5zM616 1386
q85 0 152 -27.5t109.5 -71.5t70.5 -104.5t39.5 -123t11.5 -129.5q0 -128 -19.5 -250t-60.5 -232.5t-99 -194t-141.5 -132.5t-182.5 -49q-192 0 -293.5 145t-96.5 395q4 261 51 402.5t128 156.5q44 108 135.5 161.5t195.5 53.5zM506 270q60 0 111 62t82.5 161.5t49 218.5
t17.5 238q0 240 -152 240q-50 0 -85 -27t-66 -82q-32 -56 -80 -69q-47 -234 -47 -383q0 -176 40 -267.5t130 -91.5z" />
    <glyph glyph-name="Ocircumflex" unicode="&#xf4;" horiz-adv-x="1087" 
d="M350 1532q-27 0 -45.5 13.5t-24 35.5t7.5 54t46 65q32 32 74.5 95t78.5 90.5t95 27.5q20 0 35.5 -1.5t31.5 -8.5t25.5 -11t24.5 -20t23 -24.5t25.5 -35.5t26.5 -41t33 -53q39 -60 28 -114t-69 -54q-61 0 -101 53t-77 171q-47 -117 -104.5 -179.5t-133.5 -62.5zM616 1386
q85 0 152 -27.5t109.5 -71.5t70.5 -104.5t39.5 -123t11.5 -129.5q0 -128 -19.5 -250t-60.5 -232.5t-99 -194t-141.5 -132.5t-182.5 -49q-192 0 -293.5 145t-96.5 395q4 261 51 402.5t128 156.5q44 108 135.5 161.5t195.5 53.5zM506 270q60 0 111 62t82.5 161.5t49 218.5
t17.5 238q0 240 -152 240q-50 0 -85 -27t-66 -82q-32 -56 -80 -69q-47 -234 -47 -383q0 -176 40 -267.5t130 -91.5z" />
    <glyph glyph-name="Otilde" unicode="&#xd5;" horiz-adv-x="1087" 
d="M362 1585q-43 0 -66 24.5t-22.5 60.5t13.5 77q25 65 76 101t122 36q122 0 191 -127q25 54 56 83.5t79 29.5q64 0 85.5 -53t-17.5 -125q-60 -107 -181 -107q-129 0 -215 119q-19 -62 -48 -90.5t-73 -28.5zM616 1386q85 0 152 -27.5t109.5 -71.5t70.5 -104.5t39.5 -123
t11.5 -129.5q0 -128 -19.5 -250t-60.5 -232.5t-99 -194t-141.5 -132.5t-182.5 -49q-192 0 -293.5 145t-96.5 395q4 261 51 402.5t128 156.5q44 108 135.5 161.5t195.5 53.5zM506 270q60 0 111 62t82.5 161.5t49 218.5t17.5 238q0 240 -152 240q-50 0 -85 -27t-66 -82
q-32 -56 -80 -69q-47 -234 -47 -383q0 -176 40 -267.5t130 -91.5z" />
    <glyph glyph-name="Otilde" unicode="&#xf5;" horiz-adv-x="1087" 
d="M362 1585q-43 0 -66 24.5t-22.5 60.5t13.5 77q25 65 76 101t122 36q122 0 191 -127q25 54 56 83.5t79 29.5q64 0 85.5 -53t-17.5 -125q-60 -107 -181 -107q-129 0 -215 119q-19 -62 -48 -90.5t-73 -28.5zM616 1386q85 0 152 -27.5t109.5 -71.5t70.5 -104.5t39.5 -123
t11.5 -129.5q0 -128 -19.5 -250t-60.5 -232.5t-99 -194t-141.5 -132.5t-182.5 -49q-192 0 -293.5 145t-96.5 395q4 261 51 402.5t128 156.5q44 108 135.5 161.5t195.5 53.5zM506 270q60 0 111 62t82.5 161.5t49 218.5t17.5 238q0 240 -152 240q-50 0 -85 -27t-66 -82
q-32 -56 -80 -69q-47 -234 -47 -383q0 -176 40 -267.5t130 -91.5z" />
    <glyph glyph-name="Odieresis" unicode="&#xd6;" horiz-adv-x="1087" 
d="M469 1632q-21 -13 -35 -18.5t-34.5 -2.5t-37.5 21q-28 30 -38 80t4 80q9 19 21.5 30.5t30.5 16t30.5 5.5t35.5 1q45 0 69 -25.5t24 -74.5q0 -44 -16.5 -67t-53.5 -46zM791 1628q-26 -15 -65 -6t-67 37t-32.5 63.5t10.5 61.5q17 34 49.5 43.5t79.5 9.5q42 0 65 -25.5
t23 -70.5q0 -44 -14.5 -68.5t-48.5 -44.5zM616 1386q85 0 152 -27.5t109.5 -71.5t70.5 -104.5t39.5 -123t11.5 -129.5q0 -128 -19.5 -250t-60.5 -232.5t-99 -194t-141.5 -132.5t-182.5 -49q-192 0 -293.5 145t-96.5 395q4 261 51 402.5t128 156.5q44 108 135.5 161.5
t195.5 53.5zM506 270q60 0 111 62t82.5 161.5t49 218.5t17.5 238q0 240 -152 240q-50 0 -85 -27t-66 -82q-32 -56 -80 -69q-47 -234 -47 -383q0 -176 40 -267.5t130 -91.5z" />
    <glyph glyph-name="Odieresis" unicode="&#xf6;" horiz-adv-x="1087" 
d="M469 1632q-21 -13 -35 -18.5t-34.5 -2.5t-37.5 21q-28 30 -38 80t4 80q9 19 21.5 30.5t30.5 16t30.5 5.5t35.5 1q45 0 69 -25.5t24 -74.5q0 -44 -16.5 -67t-53.5 -46zM791 1628q-26 -15 -65 -6t-67 37t-32.5 63.5t10.5 61.5q17 34 49.5 43.5t79.5 9.5q42 0 65 -25.5
t23 -70.5q0 -44 -14.5 -68.5t-48.5 -44.5zM616 1386q85 0 152 -27.5t109.5 -71.5t70.5 -104.5t39.5 -123t11.5 -129.5q0 -128 -19.5 -250t-60.5 -232.5t-99 -194t-141.5 -132.5t-182.5 -49q-192 0 -293.5 145t-96.5 395q4 261 51 402.5t128 156.5q44 108 135.5 161.5
t195.5 53.5zM506 270q60 0 111 62t82.5 161.5t49 218.5t17.5 238q0 240 -152 240q-50 0 -85 -27t-66 -82q-32 -56 -80 -69q-47 -234 -47 -383q0 -176 40 -267.5t130 -91.5z" />
    <glyph glyph-name="multiply" unicode="&#xd7;" horiz-adv-x="1112" 
d="M934 829q-113 -122 -232 -223q123 -116 179 -186q37 -47 34 -84q-1 -8 -9.5 -22t-24.5 -35t-17 -23q-9 -12 -21.5 -15.5t-23.5 3.5q-166 119 -270 235q-104 -87 -115 -96q-38 -30 -89.5 -66t-86.5 -63q-42 -33 -87.5 -8.5t-51.5 74.5t39 102q33 32 147 127q15 13 50 40
t51 40q-34 31 -100.5 87.5t-88.5 78.5t-23 47t11.5 47.5t38.5 54.5q29 37 67 10q110 -82 115 -86q54 -41 129 -116q148 122 262 223q38 34 85 14.5t58 -65.5t-26 -95z" />
    <glyph glyph-name="Oslash" unicode="&#xd8;" horiz-adv-x="1087" 
d="M891 1274q108 -124 108 -344q0 -128 -19.5 -250t-60.5 -232.5t-99 -194t-141.5 -132.5t-182.5 -49q-96 0 -166 37q-10 -19 -23.5 -47t-17.5 -35q-15 -30 -28.5 -41t-35.5 -11q-41 0 -61.5 25t-18.5 56t7 59q19 61 41 118q-90 140 -87 379q4 261 51 402.5t128 156.5
q44 108 135.5 161.5t195.5 53.5q79 0 132 -20l43 80q28 48 63.5 64.5t65.5 2.5q19 -9 29.5 -19t13.5 -25.5t1.5 -29.5t-13.5 -42.5t-24 -52.5t-36 -70zM463 1081q-32 -56 -80 -69q-47 -234 -47 -383q0 -37 4 -99l57 117q50 100 137 279t115 235q9 17 10 23q-18 6 -45 6
q-50 0 -85 -27t-66 -82zM506 270q60 0 111 62t82.5 161.5t49 218.5t17.5 238q0 42 -2 62q-32 -69 -86.5 -189.5t-69.5 -150.5l-44.5 -89t-72.5 -146t-69 -140q39 -27 84 -27z" />
    <glyph glyph-name="Oslash" unicode="&#xf8;" horiz-adv-x="1087" 
d="M891 1274q108 -124 108 -344q0 -128 -19.5 -250t-60.5 -232.5t-99 -194t-141.5 -132.5t-182.5 -49q-96 0 -166 37q-10 -19 -23.5 -47t-17.5 -35q-15 -30 -28.5 -41t-35.5 -11q-41 0 -61.5 25t-18.5 56t7 59q19 61 41 118q-90 140 -87 379q4 261 51 402.5t128 156.5
q44 108 135.5 161.5t195.5 53.5q79 0 132 -20l43 80q28 48 63.5 64.5t65.5 2.5q19 -9 29.5 -19t13.5 -25.5t1.5 -29.5t-13.5 -42.5t-24 -52.5t-36 -70zM463 1081q-32 -56 -80 -69q-47 -234 -47 -383q0 -37 4 -99l57 117q50 100 137 279t115 235q9 17 10 23q-18 6 -45 6
q-50 0 -85 -27t-66 -82zM506 270q60 0 111 62t82.5 161.5t49 218.5t17.5 238q0 42 -2 62q-32 -69 -86.5 -189.5t-69.5 -150.5l-44.5 -89t-72.5 -146t-69 -140q39 -27 84 -27z" />
    <glyph glyph-name="Ugrave" unicode="&#xd9;" horiz-adv-x="1286" 
d="M645 1530q-69 35 -157 94.5t-93 93.5q-5 32 8 50t50 44q22 14 45.5 15.5t44.5 -6.5t51.5 -28.5t58.5 -42.5t74.5 -56.5t89.5 -63.5q36 -23 36 -57.5t-28 -59.5q-35 -26 -74 -21t-106 38zM1161 94q12 -78 -1 -114.5t-58 -36.5q-54 0 -98.5 24t-63.5 80q-27 80 -45 266.5
t-25 407.5q-71 -282 -183.5 -455.5t-237.5 -173.5q-82 0 -143.5 44.5t-97 125t-52.5 179.5t-19 221q-2 143 25 499q5 67 24 98t68 31q60 0 110.5 -42t43.5 -118q-18 -195 -24 -322t6 -264t50 -227q109 129 187 340t153 541q7 34 12.5 50t16.5 34.5t29.5 25.5t46.5 7
q65 0 131.5 -43t66.5 -115q0 -229 23.5 -559t54.5 -504z" />
    <glyph glyph-name="Ugrave" unicode="&#xf9;" horiz-adv-x="1286" 
d="M645 1530q-69 35 -157 94.5t-93 93.5q-5 32 8 50t50 44q22 14 45.5 15.5t44.5 -6.5t51.5 -28.5t58.5 -42.5t74.5 -56.5t89.5 -63.5q36 -23 36 -57.5t-28 -59.5q-35 -26 -74 -21t-106 38zM1161 94q12 -78 -1 -114.5t-58 -36.5q-54 0 -98.5 24t-63.5 80q-27 80 -45 266.5
t-25 407.5q-71 -282 -183.5 -455.5t-237.5 -173.5q-82 0 -143.5 44.5t-97 125t-52.5 179.5t-19 221q-2 143 25 499q5 67 24 98t68 31q60 0 110.5 -42t43.5 -118q-18 -195 -24 -322t6 -264t50 -227q109 129 187 340t153 541q7 34 12.5 50t16.5 34.5t29.5 25.5t46.5 7
q65 0 131.5 -43t66.5 -115q0 -229 23.5 -559t54.5 -504z" />
    <glyph glyph-name="Uacute" unicode="&#xda;" horiz-adv-x="1286" 
d="M420 1513q-28 25 -28 59.5t36 57.5q43 29 89.5 63.5t74.5 56.5t58.5 42.5t52 28.5t45 6.5t45.5 -15.5q25 -18 36 -27.5t18 -27t3 -39.5q-5 -34 -93 -93.5t-157 -94.5q-67 -33 -106 -38t-74 21zM1161 94q12 -78 -1 -114.5t-58 -36.5q-54 0 -98.5 24t-63.5 80
q-27 80 -45 266.5t-25 407.5q-71 -282 -183.5 -455.5t-237.5 -173.5q-82 0 -143.5 44.5t-97 125t-52.5 179.5t-19 221q-2 143 25 499q5 67 24 98t68 31q60 0 110.5 -42t43.5 -118q-18 -195 -24 -322t6 -264t50 -227q109 129 187 340t153 541q7 34 12.5 50t16.5 34.5
t29.5 25.5t46.5 7q65 0 131.5 -43t66.5 -115q0 -229 23.5 -559t54.5 -504z" />
    <glyph glyph-name="Uacute" unicode="&#xfa;" horiz-adv-x="1286" 
d="M420 1513q-28 25 -28 59.5t36 57.5q43 29 89.5 63.5t74.5 56.5t58.5 42.5t52 28.5t45 6.5t45.5 -15.5q25 -18 36 -27.5t18 -27t3 -39.5q-5 -34 -93 -93.5t-157 -94.5q-67 -33 -106 -38t-74 21zM1161 94q12 -78 -1 -114.5t-58 -36.5q-54 0 -98.5 24t-63.5 80
q-27 80 -45 266.5t-25 407.5q-71 -282 -183.5 -455.5t-237.5 -173.5q-82 0 -143.5 44.5t-97 125t-52.5 179.5t-19 221q-2 143 25 499q5 67 24 98t68 31q60 0 110.5 -42t43.5 -118q-18 -195 -24 -322t6 -264t50 -227q109 129 187 340t153 541q7 34 12.5 50t16.5 34.5
t29.5 25.5t46.5 7q65 0 131.5 -43t66.5 -115q0 -229 23.5 -559t54.5 -504z" />
    <glyph glyph-name="Ucircumflex" unicode="&#xdb;" horiz-adv-x="1286" 
d="M385 1440q-27 0 -45.5 13.5t-24 35.5t7.5 54t46 65q29 30 61.5 75t51.5 71t53.5 46.5t80.5 20.5q27 0 46.5 -3t39 -15t31.5 -21.5t33 -38.5t33.5 -49l42.5 -68q39 -60 28 -114t-69 -54q-61 0 -101 53t-77 170q-47 -116 -104.5 -178.5t-133.5 -62.5zM1161 94
q12 -78 -1 -114.5t-58 -36.5q-54 0 -98.5 24t-63.5 80q-27 80 -45 266.5t-25 407.5q-71 -282 -183.5 -455.5t-237.5 -173.5q-82 0 -143.5 44.5t-97 125t-52.5 179.5t-19 221q-2 143 25 499q5 67 24 98t68 31q60 0 110.5 -42t43.5 -118q-18 -195 -24 -322t6 -264t50 -227
q109 129 187 340t153 541q7 34 12.5 50t16.5 34.5t29.5 25.5t46.5 7q65 0 131.5 -43t66.5 -115q0 -229 23.5 -559t54.5 -504z" />
    <glyph glyph-name="Ucircumflex" unicode="&#xfb;" horiz-adv-x="1286" 
d="M385 1440q-27 0 -45.5 13.5t-24 35.5t7.5 54t46 65q29 30 61.5 75t51.5 71t53.5 46.5t80.5 20.5q27 0 46.5 -3t39 -15t31.5 -21.5t33 -38.5t33.5 -49l42.5 -68q39 -60 28 -114t-69 -54q-61 0 -101 53t-77 170q-47 -116 -104.5 -178.5t-133.5 -62.5zM1161 94
q12 -78 -1 -114.5t-58 -36.5q-54 0 -98.5 24t-63.5 80q-27 80 -45 266.5t-25 407.5q-71 -282 -183.5 -455.5t-237.5 -173.5q-82 0 -143.5 44.5t-97 125t-52.5 179.5t-19 221q-2 143 25 499q5 67 24 98t68 31q60 0 110.5 -42t43.5 -118q-18 -195 -24 -322t6 -264t50 -227
q109 129 187 340t153 541q7 34 12.5 50t16.5 34.5t29.5 25.5t46.5 7q65 0 131.5 -43t66.5 -115q0 -229 23.5 -559t54.5 -504z" />
    <glyph glyph-name="Udieresis" unicode="&#xdc;" horiz-adv-x="1286" 
d="M504 1540q-21 -13 -35 -18.5t-34.5 -2.5t-37.5 21q-29 30 -39 80t4 80q9 19 21.5 30.5t31 16t30.5 5.5t36 1q92 0 92 -100q0 -44 -16 -67t-53 -46zM825 1536q-26 -15 -64.5 -6t-66.5 37t-32.5 63.5t10.5 61.5q17 34 49.5 43.5t79.5 9.5q42 0 65 -25.5t23 -70.5
q0 -44 -15 -68.5t-49 -44.5zM1161 94q12 -78 -1 -114.5t-58 -36.5q-54 0 -98.5 24t-63.5 80q-27 80 -45 266.5t-25 407.5q-71 -282 -183.5 -455.5t-237.5 -173.5q-82 0 -143.5 44.5t-97 125t-52.5 179.5t-19 221q-2 143 25 499q5 67 24 98t68 31q60 0 110.5 -42t43.5 -118
q-18 -195 -24 -322t6 -264t50 -227q109 129 187 340t153 541q7 34 12.5 50t16.5 34.5t29.5 25.5t46.5 7q65 0 131.5 -43t66.5 -115q0 -229 23.5 -559t54.5 -504z" />
    <glyph glyph-name="Udieresis" unicode="&#xfc;" horiz-adv-x="1286" 
d="M504 1540q-21 -13 -35 -18.5t-34.5 -2.5t-37.5 21q-29 30 -39 80t4 80q9 19 21.5 30.5t31 16t30.5 5.5t36 1q92 0 92 -100q0 -44 -16 -67t-53 -46zM825 1536q-26 -15 -64.5 -6t-66.5 37t-32.5 63.5t10.5 61.5q17 34 49.5 43.5t79.5 9.5q42 0 65 -25.5t23 -70.5
q0 -44 -15 -68.5t-49 -44.5zM1161 94q12 -78 -1 -114.5t-58 -36.5q-54 0 -98.5 24t-63.5 80q-27 80 -45 266.5t-25 407.5q-71 -282 -183.5 -455.5t-237.5 -173.5q-82 0 -143.5 44.5t-97 125t-52.5 179.5t-19 221q-2 143 25 499q5 67 24 98t68 31q60 0 110.5 -42t43.5 -118
q-18 -195 -24 -322t6 -264t50 -227q109 129 187 340t153 541q7 34 12.5 50t16.5 34.5t29.5 25.5t46.5 7q65 0 131.5 -43t66.5 -115q0 -229 23.5 -559t54.5 -504z" />
    <glyph glyph-name="Yacute" unicode="&#xdd;" horiz-adv-x="870" 
d="M223 1661q-28 25 -28 59.5t36 57.5q43 29 89.5 63.5t74.5 56.5t58.5 42.5t52 28.5t45 6.5t45.5 -15.5q25 -18 36 -27.5t18 -27t3 -39.5q-5 -34 -93.5 -94t-156.5 -95q-67 -33 -106.5 -37.5t-73.5 21.5zM780 1507q63 0 97 -55t14 -127q-46 -157 -504 -1325
q-27 -70 -102 -70q-66 0 -91 61t7 144q15 40 161 408q-140 240 -223.5 478t-83.5 320q0 74 68 74q65 0 119 -47.5t71 -120.5q21 -87 52 -175.5t102 -256.5l-2 -14q131 338 233 635q12 37 31 54t51 17z" />
    <glyph glyph-name="Yacute" unicode="&#xfd;" horiz-adv-x="870" 
d="M223 1661q-28 25 -28 59.5t36 57.5q43 29 89.5 63.5t74.5 56.5t58.5 42.5t52 28.5t45 6.5t45.5 -15.5q25 -18 36 -27.5t18 -27t3 -39.5q-5 -34 -93.5 -94t-156.5 -95q-67 -33 -106.5 -37.5t-73.5 21.5zM780 1507q63 0 97 -55t14 -127q-46 -157 -504 -1325
q-27 -70 -102 -70q-66 0 -91 61t7 144q15 40 161 408q-140 240 -223.5 478t-83.5 320q0 74 68 74q65 0 119 -47.5t71 -120.5q21 -87 52 -175.5t102 -256.5l-2 -14q131 338 233 635q12 37 31 54t51 17z" />
    <glyph glyph-name="Thorn" unicode="&#xde;" horiz-adv-x="1028" 
d="M995 848q0 -134 -80 -246t-215.5 -183.5t-306.5 -96.5q1 -17 17 -144q16 -112 -68 -112q-57 0 -108.5 49.5t-65.5 154.5q-49 377 -49 813q0 166 110 166q63 0 90.5 -47.5t30.5 -142.5q144 67 320 67q151 0 238 -72.5t87 -205.5zM371 539q168 31 278.5 112.5t110.5 182.5
q0 50 -31 76t-86 26q-154 0 -289 -109q2 -104 17 -288z" />
    <glyph glyph-name="Thorn" unicode="&#xfe;" horiz-adv-x="1028" 
d="M995 848q0 -134 -80 -246t-215.5 -183.5t-306.5 -96.5q1 -17 17 -144q16 -112 -68 -112q-57 0 -108.5 49.5t-65.5 154.5q-49 377 -49 813q0 166 110 166q63 0 90.5 -47.5t30.5 -142.5q144 67 320 67q151 0 238 -72.5t87 -205.5zM371 539q168 31 278.5 112.5t110.5 182.5
q0 50 -31 76t-86 26q-154 0 -289 -109q2 -104 17 -288z" />
    <glyph glyph-name="divide" unicode="&#xf7;" horiz-adv-x="1107" 
d="M557 944q-66 2 -96.5 30t-30.5 91t42.5 101t111.5 36q32 -1 55.5 -21t34.5 -50.5t15.5 -57.5t4.5 -51q-10 -43 -25 -60t-42 -18.5t-70 0.5zM911 614q-285 0 -686 7q-79 2 -99.5 29.5t-10.5 123.5q2 19 13 31.5t30 13.5q329 27 727 4q45 -3 67 -43q43 -72 43 -123
q0 -21 -20 -28q-43 -15 -64 -15zM586 262q-52 -25 -126.5 23.5t-82.5 105.5q-8 56 35 100t104 44q63 0 106 -36t58 -96q14 -54 -9 -82.5t-85 -58.5z" />
    <glyph glyph-name="Ydieresis" unicode="&#xff;" horiz-adv-x="870" 
d="M307 1688q-21 -13 -34.5 -18.5t-34 -2.5t-37.5 21q-29 30 -39 79.5t4 79.5q9 19 21.5 30.5t30.5 16.5t31 6t36 1q44 0 68 -26t24 -75q0 -43 -16.5 -66t-53.5 -46zM629 1683q-26 -15 -64.5 -6t-66.5 37t-33 63.5t10 61.5q17 34 49.5 43.5t79.5 9.5q42 0 65 -25.5t23 -70.5
q0 -44 -14.5 -68.5t-48.5 -44.5zM780 1507q63 0 97 -55t14 -127q-46 -157 -504 -1325q-27 -70 -102 -70q-66 0 -91 61t7 144q15 40 161 408q-140 240 -223.5 478t-83.5 320q0 74 68 74q65 0 119 -47.5t71 -120.5q21 -87 52 -175.5t102 -256.5l-2 -14q131 338 233 635
q12 37 31 54t51 17z" />
    <glyph glyph-name="Ydieresis" unicode="&#x178;" horiz-adv-x="870" 
d="M307 1688q-21 -13 -34.5 -18.5t-34 -2.5t-37.5 21q-29 30 -39 79.5t4 79.5q9 19 21.5 30.5t30.5 16.5t31 6t36 1q44 0 68 -26t24 -75q0 -43 -16.5 -66t-53.5 -46zM629 1683q-26 -15 -64.5 -6t-66.5 37t-33 63.5t10 61.5q17 34 49.5 43.5t79.5 9.5q42 0 65 -25.5t23 -70.5
q0 -44 -14.5 -68.5t-48.5 -44.5zM780 1507q63 0 97 -55t14 -127q-46 -157 -504 -1325q-27 -70 -102 -70q-66 0 -91 61t7 144q15 40 161 408q-140 240 -223.5 478t-83.5 320q0 74 68 74q65 0 119 -47.5t71 -120.5q21 -87 52 -175.5t102 -256.5l-2 -14q131 338 233 635
q12 37 31 54t51 17z" />
    <glyph glyph-name="Lslash" unicode="&#x141;" horiz-adv-x="948" 
d="M795 213q106 0 106 -98q0 -95 -141 -117q-201 -32 -324 -55q-149 -29 -232 27.5t-83 187.5q0 103 14 315q-24 -18 -47 -26t-46.5 -3t-39.5 27q-50 70 66 178q45 43 90 78q18 201 61 596q5 50 20 72t58 22q53 0 107 -49t47 -123q-5 -55 -18.5 -183t-18.5 -175
q107 47 149 -10q43 -61 -28 -117q-9 -6 -57 -38.5t-87 -59.5q-24 -276 -35 -521q248 42 349 56q53 16 90 16z" />
    <glyph glyph-name="Lslash" unicode="&#x142;" horiz-adv-x="948" 
d="M795 213q106 0 106 -98q0 -95 -141 -117q-201 -32 -324 -55q-149 -29 -232 27.5t-83 187.5q0 103 14 315q-24 -18 -47 -26t-46.5 -3t-39.5 27q-50 70 66 178q45 43 90 78q18 201 61 596q5 50 20 72t58 22q53 0 107 -49t47 -123q-5 -55 -18.5 -183t-18.5 -175
q107 47 149 -10q43 -61 -28 -117q-9 -6 -57 -38.5t-87 -59.5q-24 -276 -35 -521q248 42 349 56q53 16 90 16z" />
    <glyph glyph-name="OE" unicode="&#x152;" horiz-adv-x="1726" 
d="M1657 371q1 -22 -16.5 -38t-59.5 -34q-38 -16 -105 -44.5t-101 -43t-86.5 -36t-84.5 -32t-70.5 -22.5t-68.5 -16.5t-57 -4.5q-130 0 -197 142q-131 -170 -315 -170q-192 0 -293.5 145t-96.5 395q4 261 51 402.5t128 156.5q44 108 135.5 161.5t195.5 53.5q136 0 226 -67
q25 88 108 98q273 89 477 111q216 22 226 -82q6 -67 -80 -82q-53 -10 -209 -47.5t-291 -75.5q-42 -137 -72 -387q92 24 269 59q200 39 211 -65q2 -31 -17.5 -52t-68.5 -32q-284 -72 -412 -109q-3 -100 2 -159q9 -108 31 -181q353 122 450 148q23 8 55 4t61.5 -14t51 -32
t23.5 -50zM506 270q51 0 95.5 44.5t75.5 120t52 168.5t31 196v6q6 73 6 145q0 240 -152 240q-50 0 -85 -27t-66 -82q-32 -56 -80 -69q-47 -234 -47 -383q0 -176 40 -267.5t130 -91.5z" />
    <glyph glyph-name="OE" unicode="&#x153;" horiz-adv-x="1726" 
d="M1657 371q1 -22 -16.5 -38t-59.5 -34q-38 -16 -105 -44.5t-101 -43t-86.5 -36t-84.5 -32t-70.5 -22.5t-68.5 -16.5t-57 -4.5q-130 0 -197 142q-131 -170 -315 -170q-192 0 -293.5 145t-96.5 395q4 261 51 402.5t128 156.5q44 108 135.5 161.5t195.5 53.5q136 0 226 -67
q25 88 108 98q273 89 477 111q216 22 226 -82q6 -67 -80 -82q-53 -10 -209 -47.5t-291 -75.5q-42 -137 -72 -387q92 24 269 59q200 39 211 -65q2 -31 -17.5 -52t-68.5 -32q-284 -72 -412 -109q-3 -100 2 -159q9 -108 31 -181q353 122 450 148q23 8 55 4t61.5 -14t51 -32
t23.5 -50zM506 270q51 0 95.5 44.5t75.5 120t52 168.5t31 196v6q6 73 6 145q0 240 -152 240q-50 0 -85 -27t-66 -82q-32 -56 -80 -69q-47 -234 -47 -383q0 -176 40 -267.5t130 -91.5z" />
    <glyph glyph-name="Scaron" unicode="&#x160;" horiz-adv-x="899" 
d="M455 1606q-27 0 -46.5 3t-39 14.5t-31.5 21.5t-32.5 38t-34 48.5t-42.5 68.5q-39 60 -28 114t69 54q61 0 101.5 -53t77.5 -170q48 117 105 179.5t132 62.5q27 0 45.5 -13.5t24 -35.5t-7.5 -54t-46 -65q-29 -30 -61.5 -75t-51.5 -71t-53.5 -46.5t-80.5 -20.5zM412 946
l190 -203q103 -109 147 -186.5t44 -167.5q0 -75 -28 -144.5t-70.5 -118.5t-92.5 -86.5t-94 -56t-74 -18.5q-56 0 -116 43.5t-60 89.5q0 26 18 45t68 45q98 52 142 98t44 105q0 48 -21.5 83.5t-82.5 96.5l-197 199q-147 147 -147 309q0 99 61.5 189t168 145t229.5 55
q61 0 98 -25t37 -69q0 -22 -7 -37t-30 -28t-39.5 -19.5t-62.5 -21.5q-73 -26 -139.5 -71t-94.5 -103q55 -91 109 -148z" />
    <glyph glyph-name="Scaron" unicode="&#x161;" horiz-adv-x="899" 
d="M455 1606q-27 0 -46.5 3t-39 14.5t-31.5 21.5t-32.5 38t-34 48.5t-42.5 68.5q-39 60 -28 114t69 54q61 0 101.5 -53t77.5 -170q48 117 105 179.5t132 62.5q27 0 45.5 -13.5t24 -35.5t-7.5 -54t-46 -65q-29 -30 -61.5 -75t-51.5 -71t-53.5 -46.5t-80.5 -20.5zM412 946
l190 -203q103 -109 147 -186.5t44 -167.5q0 -75 -28 -144.5t-70.5 -118.5t-92.5 -86.5t-94 -56t-74 -18.5q-56 0 -116 43.5t-60 89.5q0 26 18 45t68 45q98 52 142 98t44 105q0 48 -21.5 83.5t-82.5 96.5l-197 199q-147 147 -147 309q0 99 61.5 189t168 145t229.5 55
q61 0 98 -25t37 -69q0 -22 -7 -37t-30 -28t-39.5 -19.5t-62.5 -21.5q-73 -26 -139.5 -71t-94.5 -103q55 -91 109 -148z" />
    <glyph glyph-name="Zcaron" unicode="&#x17d;" horiz-adv-x="1077" 
d="M543 1606q-27 0 -46.5 3t-39 14.5t-31.5 21.5t-32.5 38t-34 48.5t-42.5 68.5q-39 60 -28 114t69 54q61 0 101.5 -53t77.5 -170q48 117 105 179.5t132 62.5q27 0 45.5 -13.5t24.5 -35.5t-7 -54t-46 -65q-32 -32 -74.5 -95t-78.5 -90.5t-95 -27.5zM819 299q89 1 143 -43
t54 -102q0 -36 -20.5 -52t-67.5 -22q-96 -13 -266 -42t-294 -49t-163 -20q-61 0 -101.5 37t-40.5 115q0 137 152 328q99 127 244.5 338t259.5 391q-51 -1 -96 -4t-94.5 -10.5t-77 -12t-88.5 -17t-84 -16.5q-181 -35 -181 76q0 115 135 154q70 19 228 36t248 17
q128 0 201 -64.5t73 -132.5q0 -10 -1 -19.5t-4 -20.5t-5.5 -19t-8.5 -19.5t-8.5 -18t-10.5 -19.5t-10.5 -18t-12 -19.5t-11.5 -18.5q-52 -86 -271 -386.5t-296 -414.5q317 68 475 68z" />
    <glyph glyph-name="Zcaron" unicode="&#x17e;" horiz-adv-x="1077" 
d="M543 1606q-27 0 -46.5 3t-39 14.5t-31.5 21.5t-32.5 38t-34 48.5t-42.5 68.5q-39 60 -28 114t69 54q61 0 101.5 -53t77.5 -170q48 117 105 179.5t132 62.5q27 0 45.5 -13.5t24.5 -35.5t-7 -54t-46 -65q-32 -32 -74.5 -95t-78.5 -90.5t-95 -27.5zM819 299q89 1 143 -43
t54 -102q0 -36 -20.5 -52t-67.5 -22q-96 -13 -266 -42t-294 -49t-163 -20q-61 0 -101.5 37t-40.5 115q0 137 152 328q99 127 244.5 338t259.5 391q-51 -1 -96 -4t-94.5 -10.5t-77 -12t-88.5 -17t-84 -16.5q-181 -35 -181 76q0 115 135 154q70 19 228 36t248 17
q128 0 201 -64.5t73 -132.5q0 -10 -1 -19.5t-4 -20.5t-5.5 -19t-8.5 -19.5t-8.5 -18t-10.5 -19.5t-10.5 -18t-12 -19.5t-11.5 -18.5q-52 -86 -271 -386.5t-296 -414.5q317 68 475 68z" />
    <glyph glyph-name="florin" unicode="&#x192;" horiz-adv-x="845" 
d="M707 954q66 0 88 -16.5t22 -50.5q0 -67 -56 -96.5t-179 -42.5l-95 -11l9 -895q0 -66 -23.5 -105.5t-66.5 -39.5q-63 0 -108.5 39t-49.5 129q-3 108 6 850l-31 -4q-67 -7 -111 38t-26 96.5t102 59.5q14 0 66 6v88q-1 120 15.5 222t43.5 173.5t64 128t76 90.5t81 56
t76 30.5t64 8.5q86 0 123 -37t37 -86q0 -96 -99 -96q-43 0 -80 24q-173 -111 -170 -518v-59q173 18 222 18z" />
    <glyph glyph-name="circumflex" unicode="&#x2c6;" horiz-adv-x="763" 
d="M631 1382q39 -60 28 -114t-69 -54q-61 0 -101 53t-77 171q-47 -117 -104.5 -179.5t-133.5 -62.5q-27 0 -45.5 13.5t-24 35.5t7.5 54t46 65q32 32 74.5 95t78.5 90.5t95 27.5q20 0 35.5 -1.5t31.5 -8.5t25.5 -11t24.5 -20t23 -24.5t25.5 -35.5t26.5 -41t33 -53z" />
    <glyph glyph-name="caron" unicode="&#x2c7;" horiz-adv-x="763" 
d="M590 1577q27 0 45.5 -13.5t24 -35.5t-7.5 -54t-46 -65q-32 -32 -74.5 -95t-78.5 -90.5t-95 -27.5q-20 0 -35.5 1.5t-31.5 8.5t-25.5 11t-24.5 20t-23 24.5t-25.5 35.5t-26.5 41t-33 53q-39 60 -28 114t69 54q61 0 101 -53t77 -171q47 117 104.5 179.5t133.5 62.5z" />
    <glyph glyph-name="uni02C9" unicode="&#x2c9;" horiz-adv-x="872" 
d="M422 1309q-70 -3 -128.5 -1t-101 8.5t-66.5 25.5t-24 51q0 33 22 58.5t66 29.5q53 5 227 12t240 6q57 1 85 -20.5t28 -57.5q0 -26 -19.5 -51t-58.5 -33q-111 -25 -270 -28z" />
    <glyph glyph-name="breve" unicode="&#x2d8;" horiz-adv-x="849" 
d="M399 1227q-75 0 -131.5 21.5t-88.5 57.5t-48.5 72t-24.5 76q-17 84 52 121q9 5 27 6.5t40 -1t41 -18t25 -42.5q15 -65 38 -92t83 -27q28 0 50.5 20t38.5 49.5t32.5 59.5t41 53t54.5 27q77 9 105.5 -39t-9.5 -137q-92 -207 -326 -207z" />
    <glyph glyph-name="dotaccent" unicode="&#x2d9;" horiz-adv-x="512" 
d="M276 1257q-26 0 -42.5 1.5t-37 7.5t-36 20t-25.5 37q-16 36 -3 95t46 95q19 21 42.5 25t41.5 -3t43 -22q42 -26 61 -55t19 -82q0 -56 -28.5 -87.5t-80.5 -31.5z" />
    <glyph glyph-name="ring" unicode="&#x2da;" horiz-adv-x="651" 
d="M449 1610q100 -83 100 -180q0 -94 -70.5 -167t-159.5 -73q-102 0 -159.5 67t-57.5 148q0 79 31 139t113 111q44 25 81.5 15.5t49.5 -38.5q44 3 72 -22zM319 1333q23 0 45.5 28t22.5 69q0 21 -32.5 54t-41.5 58q-23 -23 -34.5 -52.5t-11.5 -56t6.5 -49.5t19 -37t26.5 -14z
" />
    <glyph glyph-name="ogonek" unicode="&#x2db;" horiz-adv-x="1228" 
d="M696 -373q-125 0 -188.5 50t-63.5 141q0 68 44 130t130 103q85 40 134 10q28 -18 20 -43q-4 -11 -16 -18q-119 -65 -119 -139q0 -37 25 -52.5t77 -15.5q36 0 55 -2.5t36.5 -17.5t19.5 -45q3 -50 -32 -75.5t-122 -25.5z" />
    <glyph glyph-name="tilde" unicode="&#x2dc;" horiz-adv-x="833" 
d="M618 1534q64 0 85.5 -53t-17.5 -125q-60 -107 -180 -107q-129 0 -215 119q-19 -62 -48 -90.5t-73 -28.5q-43 0 -66 24.5t-23 60.5t13 77q25 65 76.5 101t122.5 36q121 0 190 -127q25 54 56 83.5t79 29.5z" />
    <glyph glyph-name="hungarumlaut" unicode="&#x2dd;" horiz-adv-x="1073" 
d="M131 1270q-28 25 -28 59t36 57q43 29 89.5 63.5t74.5 56.5t58.5 43t52 29t45 6.5t45.5 -15.5q25 -18 36 -27.5t18 -27t3 -39.5q-5 -34 -93.5 -94t-156.5 -95q-67 -33 -106.5 -37.5t-73.5 21.5zM539 1266q-28 25 -28 59t36 57q44 28 90.5 62t74.5 57t58.5 44t52 29.5t44 7
t44.5 -16.5q25 -18 36 -28t18.5 -27.5t3.5 -39.5q-6 -34 -94 -94t-156 -94q-67 -33 -106.5 -37.5t-73.5 21.5z" />
    <glyph glyph-name="gravecomb" unicode="&#x300;" 
d="M-29 1270q-34 -26 -73.5 -21.5t-106.5 37.5q-68 35 -156.5 95t-93.5 94q-5 32 8 50t50 44q22 14 45.5 15.5t44.5 -6.5t51.5 -29t58.5 -43t74.5 -56.5t89.5 -63.5q36 -23 36 -57t-28 -59z" />
    <glyph glyph-name="acutecomb" unicode="&#x301;" 
d="M-432 1270q-28 25 -28 59t36 57q43 29 89.5 63.5t74.5 56.5t58.5 43t52 29t45 6.5t45.5 -15.5q25 -18 36 -27.5t18 -27t3 -39.5q-5 -34 -93.5 -94t-156.5 -95q-67 -33 -106.5 -37.5t-73.5 21.5z" />
    <glyph glyph-name="uni0302" unicode="&#x302;" 
d="M-31 1382q39 -60 28 -114t-69 -54q-61 0 -101 53t-77 171q-48 -117 -105 -179.5t-132 -62.5q-27 0 -45.5 13.5t-24.5 35.5t7 54t46 65q32 32 74.5 95t78.5 90.5t95 27.5q20 0 35.5 -1.5t31.5 -8.5t25.5 -11t24.5 -20t23 -24.5t25.5 -35.5t26.5 -41t33 -53z" />
    <glyph glyph-name="tildecomb" unicode="&#x303;" 
d="M-92 1534q64 0 85 -53t-18 -125q-60 -107 -180 -107q-129 0 -215 119q-19 -62 -48 -90.5t-73 -28.5q-43 0 -66 24.5t-22.5 60.5t13.5 77q25 65 76 101t122 36q122 0 191 -127q25 54 56 83.5t79 29.5z" />
    <glyph glyph-name="uni0304" unicode="&#x304;" 
d="M-348 1309q-70 -3 -128.5 -1t-101 8.5t-66.5 25.5t-24 51q0 33 22 58.5t66 29.5q53 5 227 12t240 6q57 1 85 -20.5t28 -57.5q0 -26 -19.5 -51t-58.5 -33q-111 -25 -270 -28z" />
    <glyph glyph-name="uni0306" unicode="&#x306;" 
d="M-348 1227q-75 0 -131.5 21.5t-88.5 57.5t-48.5 72t-24.5 76q-17 85 51 121q9 5 27 6.5t40 -1t41 -18t25 -42.5q15 -65 38 -92t83 -27q28 0 50.5 20t38.5 49.5t32.5 59.5t41 53t54.5 27q77 9 105.5 -39t-9.5 -137q-92 -207 -325 -207z" />
    <glyph glyph-name="uni0307" unicode="&#x307;" 
d="M-109 1257q-26 0 -42.5 1.5t-37 7.5t-36 20t-25.5 37q-16 36 -3 95t46 95q19 21 42.5 25t41.5 -3t43 -22q42 -26 61 -55t19 -82q0 -56 -28.5 -87.5t-80.5 -31.5z" />
    <glyph glyph-name="uni0308" unicode="&#x308;" 
d="M-492 1296q-28 30 -38 80t4 80q9 19 21.5 30.5t30.5 16t30.5 5.5t35.5 1q45 0 69 -25.5t24 -74.5q0 -44 -16.5 -67t-53.5 -46q-21 -13 -35 -18.5t-34.5 -2.5t-37.5 21zM-63 1292q-26 -15 -65 -6t-67 37t-32.5 63.5t10.5 61.5q17 34 49.5 43.5t79.5 9.5q42 0 65 -25.5
t23 -70.5q0 -44 -14.5 -68.5t-48.5 -44.5z" />
    <glyph glyph-name="uni030A" unicode="&#x30a;" 
d="M-100 1610q100 -83 100 -180q0 -95 -70.5 -167.5t-158.5 -72.5q-102 0 -159.5 67t-57.5 148q0 80 30.5 140t112.5 110q44 25 81.5 15.5t49.5 -38.5q44 3 72 -22zM-229 1333q23 0 45 28t22 69q0 21 -32.5 54t-41.5 58q-23 -23 -34.5 -52.5t-11 -56t7 -49.5t19 -37
t26.5 -14z" />
    <glyph glyph-name="uni030B" unicode="&#x30b;" 
d="M-840 1270q-28 22 -27.5 57t36.5 59q43 29 89.5 63.5t74.5 56.5t58.5 43t51.5 29t44.5 6.5t45.5 -15.5q25 -18 36 -27.5t18 -27t3 -39.5q-5 -34 -93 -94.5t-156 -94.5q-67 -33 -107 -37.5t-74 21.5zM-432 1266q-28 25 -28 59t36 57q44 28 90.5 62t75 57t59 44t51.5 29.5
t44 7t45 -16.5q36 -25 49 -44t8 -51q-6 -34 -94 -94t-156 -94q-67 -33 -106.5 -37.5t-73.5 21.5z" />
    <glyph glyph-name="uni030C" unicode="&#x30c;" 
d="M-72 1577q27 0 45.5 -13.5t24.5 -35.5t-7 -54t-46 -65q-32 -32 -74.5 -95t-78.5 -90.5t-95 -27.5q-20 0 -35.5 1.5t-31.5 8.5t-25.5 11t-24.5 20t-23 24.5t-25.5 35.5t-26.5 41t-33 53q-39 60 -28 114t69 54q61 0 101 -53t77 -171q48 117 105 179.5t132 62.5z" />
    <glyph glyph-name="uni0327" unicode="&#x327;" 
d="M-266 -47l-58 -68q84 10 157.5 -5.5t120 -58t46.5 -104.5q0 -49 -23.5 -97t-68 -89.5t-119.5 -67.5t-168 -26q-85 0 -126.5 26.5t-41.5 71.5t37.5 68.5t128.5 23.5q124 0 168 92q-41 17 -89.5 17t-121.5 -15q-66 -13 -90.5 26.5t10.5 90.5l115 174q39 61 95 63
q43 2 56 -31q16 -38 -28 -91z" />
    <glyph glyph-name="uni0328" unicode="&#x328;" 
d="M-154 -373q-125 0 -188.5 50t-63.5 141q0 67 44.5 129.5t130.5 103.5q85 40 134 9q28 -18 19 -43q-4 -10 -16 -17q-119 -65 -119 -139q0 -37 25 -52.5t77 -15.5q36 0 55 -2.5t36.5 -17.5t19.5 -45q3 -50 -32 -75.5t-122 -25.5z" />
    <glyph glyph-name="pi" unicode="&#x3c0;" horiz-adv-x="1216" 
d="M1149 971q0 -40 -23.5 -51t-89.5 -13h-10q26 -143 41.5 -323.5t15.5 -302.5q0 -103 -28.5 -152t-91.5 -49q-52 0 -83.5 38.5t-33.5 100.5q-7 295 -53 670q-211 -20 -402 -47q26 -145 42 -323.5t16 -299.5q0 -99 -36 -150t-102 -51q-57 0 -92 38t-35 118q0 56 21 115
q-7 95 -11.5 179.5t-6.5 122t-7.5 93.5t-17.5 131q-57 9 -100.5 50.5t-43.5 90.5q0 33 25 50t84 26q465 76 829 76q80 0 136.5 -45t56.5 -92z" />
    <glyph glyph-name="endash" unicode="&#x2013;" horiz-adv-x="1062" 
d="M201 547q-47 -11 -90 20t-43 80q0 44 39 79.5t118 45.5q197 23 381 23q70 0 168 -4q83 -5 147 -36.5t64 -86.5q0 -73 -92 -76q-3 0 -59.5 -1.5t-104.5 -2.5t-126.5 -4.5t-143.5 -8t-136 -12t-122 -16.5z" />
    <glyph glyph-name="emdash" unicode="&#x2014;" horiz-adv-x="1413" 
d="M346 600q-145 -17 -213.5 2t-81.5 98q-3 20 2 36t20 27.5t29 20t39 14t40 9t42.5 5t34.5 2t27 1.5q553 19 889 25q43 11 86 8q102 -9 96 -107q-3 -50 -43 -81.5t-107 -32.5q-57 -1 -266.5 -4t-357.5 -8t-236 -15z" />
    <glyph glyph-name="quoteleft" unicode="&#x2018;" horiz-adv-x="339" 
d="M170 1075q-31 5 -52.5 28.5t-21.5 57.5q0 96 19 209t57 209q25 63 102 55q39 -5 61 -30.5t15 -65.5q-1 -4 -35.5 -163.5t-42.5 -231.5q-4 -37 -35 -55t-67 -13z" />
    <glyph glyph-name="quoteright" unicode="&#x2019;" horiz-adv-x="358" 
d="M129 1049q-37 10 -45 45t8 71q60 161 90 373q3 23 21.5 48.5t42.5 37.5q9 4 61 4q67 0 70 -94q2 -46 -5 -97.5t-14.5 -82t-23.5 -88.5q-27 -105 -94 -172q-59 -59 -111 -45z" />
    <glyph glyph-name="quotesinglbase" unicode="&#x201a;" horiz-adv-x="507" 
d="M193 -276q-40 0 -63.5 24.5t-23.5 65.5q0 26 10 55t18 43.5t26 44.5q43 69 43 106q0 49 -31 105q-25 48 -25 76q0 38 25.5 61t65.5 23q66 0 117 -82t51 -187q0 -73 -34 -152t-84 -131t-95 -52z" />
    <glyph glyph-name="quotedblleft" unicode="&#x201c;" horiz-adv-x="700" 
d="M176 1149q-26 42 -26 123q0 191 51 317q12 31 30 44t48 12q47 -2 74 -29t24 -72q-5 -79 -27 -213.5t-24 -150.5q-5 -34 -35 -51.5t-64.5 -11.5t-50.5 32zM500 1008q-56 6 -77.5 55t-12.5 108q33 216 71 363q13 53 55.5 60t92.5 -25q64 -36 53 -88q-43 -208 -68 -312
q-17 -71 -44.5 -118t-69.5 -43z" />
    <glyph glyph-name="quotedblright" unicode="&#x201d;" horiz-adv-x="659" 
d="M471 1030q-34 3 -45.5 31.5t-3.5 68.5q35 161 20 441q-5 52 47 86q14 9 56 12q30 2 57 -17t35 -55q34 -141 12 -340q-18 -102 -74 -172q-49 -60 -104 -55zM207 1083q-39 0 -68.5 17.5t-29.5 54.5q0 49 -7 200.5t-4 182.5q4 36 30.5 56.5t64.5 23.5q72 5 90 -72
q49 -205 6 -391q-7 -34 -30 -53t-52 -19z" />
    <glyph glyph-name="quotedblbase" unicode="&#x201e;" horiz-adv-x="847" 
d="M193 -276q-40 0 -63.5 24.5t-23.5 65.5q0 26 10 55t18 43.5t26 44.5q43 69 43 106q0 49 -31 105q-25 48 -25 76q0 38 25.5 61t65.5 23q66 0 117 -82t51 -187q0 -73 -34 -152t-84 -131t-95 -52zM532 -276q-40 0 -63 24.5t-23 65.5q0 26 10 55t18 43.5t26 44.5
q43 69 43 106q0 49 -31 105q-25 48 -25 76q0 38 25.5 61t65.5 23q66 0 116.5 -82t50.5 -187q0 -73 -34 -152t-84 -131t-95 -52z" />
    <glyph glyph-name="dagger" unicode="&#x2020;" horiz-adv-x="874" 
d="M887 1235q0 -51 -78.5 -76t-255.5 -29q-49 -373 -49 -581v-80q0 -43 -2 -61q-1 -46 -14 -64t-42 -18q-62 0 -108.5 57.5t-46.5 138.5q0 132 59 608l-121 3q-74 0 -118.5 27t-44.5 71q0 71 108 80q45 4 201 8l28 194q12 77 26 100t48 23q48 0 89.5 -49t29.5 -131l-18 -133
q53 20 120 20q87 0 138 -28.5t51 -79.5z" />
    <glyph glyph-name="daggerdbl" unicode="&#x2021;" horiz-adv-x="942" 
d="M893 1235q0 -42 -77.5 -63.5t-242.5 -26.5q-16 -133 -22 -203q110 -4 156 -4q71 0 94.5 -20t23.5 -60q0 -32 -24.5 -48.5t-85.5 -24.5t-178 -9q-13 -143 -13 -227v-80q0 -43 -2 -61q-2 -46 -14 -64t-41 -18q-62 0 -109 57.5t-47 138.5q0 41 19 256h-80q-68 0 -109 23.5
t-41 60.5q0 32 25 57t72 29q50 3 151 0l25 197l-123 2q-68 0 -109 23.5t-41 60.5q0 56 97 65q55 6 196 9q13 96 31 208q12 77 26 100t48 23q48 0 89 -49t29 -131q-2 -19 -9.5 -69t-10.5 -78q58 20 123 20q79 0 126.5 -25.5t47.5 -68.5z" />
    <glyph glyph-name="bullet" unicode="&#x2022;" horiz-adv-x="921" 
d="M440 379q-103 -46 -239 67q-61 56 -57.5 167.5t59.5 191.5q44 62 109.5 97.5t132 36.5t126.5 -22t101.5 -80t48.5 -135q15 -172 -72 -229q-113 -74 -209 -94z" />
    <glyph glyph-name="ellipsis" unicode="&#x2026;" horiz-adv-x="1228" 
d="M1016 10q-43 0 -81.5 28.5t-51.5 76.5q-23 81 43 153q30 33 89.5 35t78.5 -24q2 -2 11 -12.5t10 -12.5t7.5 -10.5t7 -11t5 -10.5t4.5 -13t2 -13.5t1.5 -17t-1 -19.5t-2.5 -24q-6 -57 -38.5 -91t-84.5 -34zM625 12q-50 0 -83.5 16.5t-56.5 59.5q-20 37 -8.5 90t45.5 90
q29 32 71.5 34t74.5 -19q37 -19 51 -55.5t14 -96.5q0 -56 -28 -87.5t-80 -31.5zM215 12q-26 0 -42.5 1.5t-37 7.5t-36 20t-25.5 37q-18 36 -8 97t43 97q49 54 137 0q41 -25 59.5 -56t18.5 -85q0 -56 -28.5 -87.5t-80.5 -31.5z" />
    <glyph glyph-name="perthousand" unicode="&#x2030;" horiz-adv-x="1818" 
d="M240 -322q-33 52 -45.5 116t8.5 130q64 163 137 325t159 329t154 294t175.5 321.5t168.5 309.5q56 103 95 88q54 -21 74 -61.5t-1 -93.5q-46 -105 -141 -291q-50 -95 -342.5 -742.5t-321.5 -701.5q-19 -34 -42.5 -47t-43.5 -5.5t-34 29.5zM457 897q-34 -29 -77.5 -43.5
t-86.5 -14t-84 18t-70.5 47.5t-44 79t-6.5 110q13 100 55 185t113.5 139.5t157.5 54.5q62 0 110.5 -38.5t69.5 -102t19 -137.5t-42 -154.5t-114 -143.5zM270 973q77 55 119.5 152.5t24.5 211.5q-64 -48 -110 -162.5t-34 -201.5zM1016 -76q-44 -18 -91.5 -11.5t-86.5 27.5
t-64.5 65t-25.5 99q0 92 43.5 189.5t119.5 159.5q52 42 117.5 49t120 -21.5t76.5 -83.5q34 -97 12.5 -193t-83.5 -174t-138 -106zM1589 -2q-46 -37 -103 -43t-104.5 19t-66.5 73q-29 84 -10.5 167.5t72 151t120.5 93.5q38 17 80 11t76.5 -24t57 -56t22.5 -87q0 -80 -38 -165
t-106 -140zM967 121q67 36 95 79t17 79q-12 39 -51.5 33t-52.5 -52q-6 -19 -8 -41.5t-2 -38t1 -35t1 -24.5zM1489 162q38 6 62.5 46.5t9.5 59.5q-11 17 -31.5 11t-34.5 -29q-25 -45 -6 -88z" />
    <glyph glyph-name="guilsinglleft" unicode="&#x2039;" horiz-adv-x="724" 
d="M332 629l180 -217q34 -12 57 -41q23 -35 24 -71t-21.5 -63t-52.5 -41.5t-68 -7.5t-68 39q-78 80 -146 148.5t-90 91.5q-120 128 -67 192q41 48 88 93.5t118.5 110t129.5 120.5q59 57 123 43.5t77 -67.5t-30 -111q-133 -144 -254 -219z" />
    <glyph glyph-name="guilsinglright" unicode="&#x203a;" horiz-adv-x="696" 
d="M530 770q44 -46 56.5 -94t3.5 -77.5t-27 -53.5q-9 -13 -37 -50.5t-41.5 -55.5t-38.5 -51t-41 -53t-36.5 -43.5t-36.5 -39.5q-55 -55 -147 -58q-74 -2 -102 32q-25 32 15 77q179 204 262 303l-170 193q-66 74 -44 144q15 50 64 64q64 20 126 -42l2 -2q59 -60 114.5 -115
t77.5 -78z" />
    <glyph glyph-name="fraction" unicode="&#x2044;" horiz-adv-x="937" 
d="M166 -94q-63 26 -90 76.5t-17 99.5q9 41 50 133q116 241 200 406q176 352 252 512q49 98 139 294l48 99q5 12 16.5 18t23.5 0q101 -41 115 -123t-57 -223l-90 -180q-118 -224 -199 -400q-33 -69 -106.5 -224t-88.5 -187q-52 -117 -102 -219q-48 -102 -94 -82z" />
    <glyph glyph-name="Euro" unicode="&#x20ac;" horiz-adv-x="1136" 
d="M1020 313q33 -13 46 -49.5t-5.5 -84.5t-67.5 -85q-172 -129 -407 -129q-175 0 -280 118.5t-109 334.5q-8 -2 -25 -2q-20 -1 -37.5 11.5t-23.5 31.5l-31 69q-14 36 1 68t48 33q54 4 82 4q6 54 31 166h-31q-90 0 -131 94q-9 19 0 41.5t29 26.5q78 17 198 30
q91 211 233.5 338t307.5 127q78 0 118 -27.5t40 -76.5q0 -38 -30 -61t-73 -23q-40 0 -64 -2.5t-68 -22.5t-85 -59q-48 -45 -108 -174q87 3 131 -6q59 -11 102 -76q38 -58 25 -94q-9 -23 -39 -23q-3 0 -297 -6q-29 -106 -37 -162q195 7 350 4q58 -1 95 -49t20.5 -97
t-88.5 -52l-396 -19q1 -112 31 -173.5t84 -96.5q94 -7 162.5 19.5t155.5 92.5q27 20 47.5 31t46.5 15.5t49 -5.5z" />
    <glyph glyph-name="uni2113" unicode="&#x2113;" horiz-adv-x="962" 
d="M694 219q26 26 83.5 22.5t84 -34.5t-11.5 -90q-57 -71 -146.5 -110.5t-171.5 -39.5q-63 0 -109.5 25.5t-74.5 68t-45 109.5t-23 138t-6 165v53q-55 -32 -79 -45q-16 -7 -43 -3t-50.5 21t-39 38t-9 48t40.5 50q132 90 201 143q28 216 94 404q54 152 143.5 221.5
t186.5 69.5q162 0 162 -173q0 -146 -110.5 -311.5t-283.5 -310.5q-8 -81 -8 -191q0 -147 10 -221t35 -129q117 29 170 82zM702 1343q-45 -34 -88 -126.5t-75 -223.5q155 176 163 350z" />
    <glyph glyph-name="trademark" unicode="&#x2122;" horiz-adv-x="1830" 
d="M1663 729q2 -72 -13.5 -103t-64.5 -32q-56 -2 -96.5 39.5t-40.5 101.5q0 156 2 236q4 156 4 252q-95 -204 -139 -402q3 -177 -105 -180q-48 -2 -77.5 27.5t-32.5 81.5q-3 46 12 120q-7 116 -29 308q-109 -244 -125 -469q-3 -105 -77 -105q-57 0 -91 37t-34 100
q-3 95 59.5 294.5t159.5 346.5q17 26 29.5 40.5t39.5 30t58 15.5q55 0 99.5 -37.5t55.5 -91.5q1 -7 4.5 -20.5t4.5 -20.5q50 97 105 155.5t106 59.5q75 2 123.5 -33.5t52.5 -95.5q10 -138 10 -655zM840 1389q0 -40 -23.5 -56t-77.5 -18q-77 -4 -178 -15q24 -140 48 -320.5
t24 -246.5q0 -74 -30.5 -116t-86.5 -42q-52 0 -82.5 35t-30.5 95q0 32 13 73q-15 186 -64 498q-69 -9 -125 -19q-56 -9 -107.5 29.5t-51.5 91.5q0 35 24 53.5t72 26.5q286 47 522 47q60 0 107 -35t47 -81z" />
    <glyph glyph-name="uni2126" unicode="&#x2126;" horiz-adv-x="1189" 
d="M1065 279q25 -29 24 -59t-25 -61t-54 -55.5t-64 -42.5q-111 -60 -209 -34q-83 23 -96 116q-9 67 39 186q5 14 8 21q127 316 127 600q0 116 -45 178t-123 62q-64 0 -113.5 -36t-78.5 -92t-47 -133.5t-24.5 -149t-6.5 -150.5q0 -169 61 -305q14 -30 41 -62t44.5 -59.5
t17.5 -59.5q0 -132 -115 -151q-160 -23 -303 -6q-121 16 -90 131q22 82 170 61l84 -12q-70 92 -105 216.5t-35 248.5q0 168 31.5 305t93.5 238t160 156.5t225 55.5q85 0 152 -27.5t109.5 -71.5t70.5 -104.5t39.5 -123t11.5 -129.5q0 -190 -43 -365.5t-127 -296.5
q38 24 78.5 32t70.5 1.5t46 -22.5z" />
    <glyph glyph-name="estimated" unicode="&#x212e;" horiz-adv-x="1437" 
d="M1206 406q64 0 84 -53t-24 -113q-75 -117 -226 -188.5t-319 -71.5q-210 0 -342 137t-154 377h-16q-103 0 -103 92q0 103 119 119h6q22 127 90 240t171 198t245 134.5t303 49.5q156 0 233 -69t77 -195q0 -80 -28 -150t-76 -122.5t-116 -96.5t-144 -74.5t-165.5 -54
t-174 -37.5t-175.5 -22q14 -147 86.5 -230t190.5 -83q81 0 147 29.5t156 103.5q58 48 90 64t65 16zM1122 1135q-90 15 -188.5 -4.5t-187.5 -68.5t-159 -135.5t-100 -195.5q85 9 156 22.5t144.5 34.5t129.5 51.5t102.5 71.5t72.5 98t30 126z" />
    <glyph glyph-name="partialdiff" unicode="&#x2202;" horiz-adv-x="1005" 
d="M612 1487q143 -240 217 -472t74 -419q0 -81 -12 -164t-40.5 -168.5t-70.5 -151t-108.5 -107.5t-147.5 -42q-73 0 -158.5 64.5t-151.5 155.5t-110.5 193t-44.5 175q0 105 50 221t133.5 196.5t167.5 80.5q94 0 188 -62q-73 230 -199 428q-18 29 -24 56.5t7 50t46 30.5
q127 32 184 -65zM532 166q39 30 65.5 69.5t40.5 75.5t21.5 88.5t9 89.5t1.5 97q0 20 -4 82q-128 158 -244 209q-56 -79 -92.5 -164.5t-36.5 -145.5q0 -90 75.5 -202.5t163.5 -198.5z" />
    <glyph glyph-name="uni2206" unicode="&#x2206;" horiz-adv-x="1001" 
d="M221 20q-61 0 -110.5 43t-49.5 125q0 29 12.5 82.5t42 176t56.5 260.5q16 81 28.5 138.5t30.5 135.5t35.5 133t40 117t46.5 102.5t52 74.5t61 47.5t69 8.5q38 -6 69 -17.5t52.5 -24.5t40 -37t29.5 -42.5t23 -53.5t18.5 -58.5t17.5 -67.5l6 -24q47 -190 75.5 -379
t42.5 -481q5 -115 -21.5 -157.5t-107.5 -43.5q-170 -5 -348 -31.5t-211 -26.5zM266 211q116 32 228 41.5t190 1.5q-22 629 -143 1040q-59 -145 -94 -285.5t-76 -365.5q-38 -212 -105 -432z" />
    <glyph glyph-name="product" unicode="&#x220f;" horiz-adv-x="1097" 
d="M811 1452q38 6 71.5 -4t54 -30t30 -43.5t3 -48.5t-29.5 -42q0 -3 -1 -10.5t-1 -11.5q-23 -231 -32.5 -573.5t3.5 -573.5q5 -77 -9.5 -107.5t-59.5 -30.5q-62 0 -109 47.5t-53 139.5q-9 229 -0.5 523.5t24.5 537.5q-156 -33 -272 -58q15 -43 10 -84q-17 -171 -30 -415
t-18 -397t-5 -193q0 -27 -0.5 -41.5t-4 -32t-11 -25.5t-20.5 -14t-32 -6q-61 0 -111 41t-50 117q0 153 18 488t37 521q-44 1 -68 27.5t-24 60.5q0 54 33 76.5t116 44.5l62 15.5t100 24.5t108.5 25t135.5 28.5t135 23.5z" />
    <glyph glyph-name="summation" unicode="&#x2211;" horiz-adv-x="1015" 
d="M195 -387q-63 0 -103 37t-49 104q-18 140 98 320q13 18 37 56.5t35 55.5q27 41 104.5 162.5t122.5 188.5v12l-109.5 180t-85 150t-77.5 157l-12 27q-42 85 -33 139q11 65 91 126t204 61q89 0 242 -17.5t219 -36.5q122 -34 104 -139q-9 -51 -51 -67t-127 1q-13 2 -36 7.5
t-34 7.5q-215 43 -362 45l-11 -19q132 -269 289 -520q60 -101 4 -196q-23 -41 -155 -246q-135 -207 -211 -340l12 -19q299 68 457 68q80 0 140.5 -39t66.5 -96q3 -29 -10 -41t-56 -18q-38 -5 -352 -58q-292 -53 -352 -53z" />
    <glyph glyph-name="minus" unicode="&#x2212;" horiz-adv-x="1112" 
d="M911 614q-285 0 -686 7q-79 2 -99.5 29.5t-10.5 123.5q2 19 13 31.5t30 13.5q329 27 727 4q45 -3 67 -43q43 -72 43 -123q0 -21 -20 -28q-43 -15 -64 -15z" />
    <glyph glyph-name="uni2215" unicode="&#x2215;" horiz-adv-x="937" 
d="M166 -94q-63 26 -90 76.5t-17 99.5q9 41 50 133q116 241 200 406q176 352 252 512q49 98 139 294l48 99q5 12 16.5 18t23.5 0q101 -41 115 -123t-57 -223l-90 -180q-118 -224 -199 -400q-33 -69 -106.5 -224t-88.5 -187q-52 -117 -102 -219q-48 -102 -94 -82z" />
    <glyph glyph-name="uni2219" unicode="&#x2219;" horiz-adv-x="921" 
d="M440 379q-103 -46 -239 67q-61 56 -57.5 167.5t59.5 191.5q44 62 109.5 97.5t132 36.5t126.5 -22t101.5 -80t48.5 -135q15 -172 -72 -229q-113 -74 -209 -94z" />
    <glyph glyph-name="radical" unicode="&#x221a;" horiz-adv-x="1103" 
d="M1106 1468q0 -42 -30 -75.5t-95 -34.5q-34 -184 -193 -730t-221 -679q-34 -72 -68.5 -103.5t-80.5 -31.5q-65 0 -119 39.5t-76 103.5q-80 244 -135 733q-5 40 15.5 68t56.5 28q56 0 104.5 -45.5t54.5 -103.5q36 -331 76 -516q103 275 214.5 673t148.5 619q20 122 102 143
q24 6 62 7t81 -4.5t73 -29t30 -61.5z" />
    <glyph glyph-name="infinity" unicode="&#x221e;" horiz-adv-x="2025" 
d="M1505 1053q63 0 133.5 -20t133.5 -56t104 -92.5t41 -122.5q0 -85 -59 -154t-161.5 -108t-226.5 -39q-274 0 -464 176q-10 -5 -15 -10q-62 -48 -93.5 -71t-91.5 -64t-103 -62t-100.5 -45t-114.5 -34.5t-117 -10.5q-31 0 -76 7t-66 15q-46 18 -62 58.5t-0.5 80t52.5 54.5
q-49 85 -65 175t4.5 170.5t70 145t138 102.5t202.5 38q71 0 133.5 -17t104 -38.5t89.5 -65.5t71.5 -71t68.5 -83q236 142 469 142zM455 543q51 9 113 42t105 64t120 90l69 54q-45 53 -72.5 82t-69.5 63.5t-85.5 50t-93.5 15.5q-75 0 -119 -54.5t-42 -143.5t52 -183
q23 -42 23 -80zM1675 760v14q-44 49 -89.5 69.5t-110.5 20.5q-137 0 -299 -106q122 -103 270 -103q160 0 229 105z" />
    <glyph glyph-name="integral" unicode="&#x222b;" horiz-adv-x="743" 
d="M674 1708q86 0 123 -37t37 -86q0 -96 -99 -96q-37 0 -67 18q-100 -65 -143 -188t-40 -324l9 -788q1 -114 -19 -204.5t-52.5 -146.5t-76.5 -93t-87.5 -51.5t-88.5 -14.5q-66 0 -117.5 42t-29.5 116q10 33 31.5 53t46 27t51 22t47.5 36t35 71t14 124q0 439 -4 811
q-1 120 16 222t45 173.5t66 128t78 90.5t83 56t77.5 30.5t64.5 8.5z" />
    <glyph glyph-name="approxequal" unicode="&#x2248;" horiz-adv-x="1171" 
d="M285 811q-39 -35 -74.5 -42t-56.5 10.5t-32.5 44t-6.5 59.5t26 57q61 70 124 103t118.5 32.5t110 -16t107 -37.5t101 -37t99.5 -10t96 39q38 26 70.5 25t54.5 -24.5t32 -53.5t2.5 -63t-32.5 -52q-68 -50 -135 -69t-121.5 -11.5t-107 26t-100 38.5t-92 31.5t-92 0.5
t-91.5 -51zM287 385q-32 -33 -65.5 -38t-56 14.5t-36.5 47.5t-11.5 62.5t23.5 58.5q54 64 112.5 94t112 29t108 -15.5t108.5 -34.5t104.5 -33t105 -6.5t101.5 40.5q68 49 107 2q33 -39 23 -102q-9 -54 -46 -80q-66 -46 -137 -59t-129.5 0.5t-120 32t-111 33.5t-101 5.5
t-91.5 -51.5z" />
    <glyph glyph-name="notequal" unicode="&#x2260;" horiz-adv-x="1105" 
d="M854 647q58 -1 95 -49t20.5 -97t-88.5 -52q-84 -3 -445 -23l-100 -215q-19 -37 -35 -51.5t-35 -5.5q-46 19 -64.5 54.5t-11.5 70.5q3 15 8 30t13 34.5t12 29.5q3 8 12 24.5t11 20.5q-12 -2 -33 -2q-20 -1 -37.5 11.5t-23.5 31.5l-31 69q-14 36 1 68t48 33q119 8 186 10
l82 162q-30 0 -93 -1t-93 -1q-90 0 -131 94q-9 19 0 41.5t29 26.5q158 36 389 47q26 53 72.5 151.5t56.5 120.5q3 9 12.5 13.5t19.5 0.5q70 -30 80 -85.5t-39 -157.5l-22 -43q5 -1 16 -2t15 -2q59 -11 102 -76q38 -58 25 -94q-9 -23 -39 -23q-74 0 -222 -4q-13 -25 -75 -158
q0 -1 -1 -2t-1 -2q104 2 315 2z" />
    <glyph glyph-name="lessequal" unicode="&#x2264;" horiz-adv-x="1126" 
d="M815 610q18 -24 23 -49.5t-3 -46.5t-23 -39t-38 -28t-48.5 -13t-54.5 5.5t-55 27.5q-111 84 -273.5 218t-174.5 144q-57 46 -59.5 101t57.5 106q7 6 121 96.5t210 175t165 160.5q38 41 79.5 51t70.5 -9t46.5 -49.5t11 -72t-38.5 -75.5q-74 -77 -196.5 -183.5
t-228.5 -173.5l333 -294q50 -15 76 -52zM1014 272q43 -72 43 -122q0 -22 -21 -29q-43 -15 -63 -15q-285 0 -686 7q-41 1 -63 6.5t-36.5 22t-14.5 46.5t3 78q2 19 13 31.5t30 13.5q329 27 727 4q46 -3 68 -43z" />
    <glyph glyph-name="greaterequal" unicode="&#x2265;" horiz-adv-x="1105" 
d="M324 662l333 294q-107 68 -230 174t-196 183q-32 34 -38.5 75.5t11.5 72t47 49.5t70.5 9t79.5 -51q69 -76 165 -160.5t210 -175t121 -96.5q60 -51 57.5 -106t-59.5 -101q-12 -9 -175 -143.5t-274 -218.5q-36 -27 -77 -32.5t-71.5 8.5t-53 39t-21 59t24.5 69q26 37 76 52z
M930 272q43 -72 43 -122q0 -22 -21 -29q-43 -15 -63 -15q-285 0 -686 7q-41 1 -63 6.5t-36.5 22t-14.5 46.5t3 78q2 19 13 31.5t30 13.5q329 27 727 4q46 -3 68 -43z" />
    <glyph glyph-name="lozenge" unicode="&#x25ca;" horiz-adv-x="968" 
d="M418 -16q-146 0 -182 131l-144 528q-27 100 14 186l259 545q31 65 75 91t109 26q48 0 83.5 -29t61.5 -104l176 -508q42 -114 -18 -221l-295 -529q-37 -66 -64 -91t-75 -25zM416 250q97 169 260 481q-91 299 -164 492q-129 -277 -213 -480q54 -271 117 -493z" />
    <glyph glyph-name="A.ss01" horiz-adv-x="940" 
d="M780 1219q86 -595 72 -1170q-1 -69 -17.5 -96t-54.5 -27q-16 0 -35.5 5.5t-43.5 21t-42.5 38.5t-30.5 62t-10 88q5 168 3 226q-127 -16 -254 -41q-2 -14 -9.5 -82t-13.5 -113q-8 -64 -20.5 -87.5t-44.5 -23.5q-29 0 -57 10.5t-53.5 33.5t-38.5 65.5t-7 99.5
q41 347 111 651.5t135 475.5q26 69 91 87t131.5 -8t122.5 -85.5t66 -130.5zM393 524q178 32 221 37q-14 371 -69 656q-90 -312 -152 -693z" />
    <glyph glyph-name="E.ss01" horiz-adv-x="1058" 
d="M891 1212q-302 -28 -438 -55q-4 -38 -17 -155t-20 -189q167 21 256 16q66 -4 107.5 -43t39.5 -79q0 -12 -3 -20.5t-10 -14t-12 -9t-18 -5t-19 -2t-24 -1t-24 -0.5q-174 -6 -312 -28q-20 -218 -28 -445q252 43 348 56q53 16 90 16q106 0 106 -98q0 -95 -141 -117
q-196 -31 -323 -55q-149 -29 -232.5 27.5t-83.5 187.5q0 207 31.5 547t60.5 540q4 26 7 39.5t11 28t22.5 20.5t37.5 6q45 0 96 -39q208 45 389 52q80 3 140.5 -36t60.5 -87q0 -27 -22.5 -40t-75.5 -18z" />
    <glyph glyph-name="I.ss01" horiz-adv-x="921" 
d="M913 1343q0 -41 -24 -54t-88 -15q-116 -4 -174 -10q26 -56 14 -131q-32 -198 -58.5 -458.5t-31.5 -414.5v-61q14 2 44 5t42 5q78 8 135 -17.5t57 -82.5q0 -36 -22.5 -50.5t-85.5 -31.5q-208 -54 -469 -54q-83 0 -138 31.5t-55 75.5q0 43 26.5 63t86.5 21q94 3 143 8
q-6 27 -6 61q0 109 38 435t75 559q0 2 1 6t1 6q-31 -5 -91.5 -15.5t-80.5 -13.5q-66 -12 -114 22.5t-48 94.5q0 33 25 50t84 26q192 31 300 40t222 9q83 0 137.5 -32.5t54.5 -76.5z" />
    <glyph glyph-name="Iacute.ss01" horiz-adv-x="921" 
d="M324 1679q-28 25 -28 59.5t36 57.5q43 29 89.5 63.5t74.5 56.5t58.5 42.5t51.5 28.5t44.5 6.5t45.5 -15.5q25 -18 36 -27.5t18.5 -27t3.5 -39.5q-5 -34 -93 -93.5t-157 -94.5q-67 -33 -106 -38t-74 21zM913 1343q0 -41 -24 -54t-88 -15q-116 -4 -174 -10q26 -56 14 -131
q-32 -198 -58.5 -458.5t-31.5 -414.5v-61q14 2 44 5t42 5q78 8 135 -17.5t57 -82.5q0 -36 -22.5 -50.5t-85.5 -31.5q-208 -54 -469 -54q-83 0 -138 31.5t-55 75.5q0 43 26.5 63t86.5 21q94 3 143 8q-6 27 -6 61q0 109 38 435t75 559q0 2 1 6t1 6q-31 -5 -91.5 -15.5
t-80.5 -13.5q-66 -12 -114 22.5t-48 94.5q0 33 25 50t84 26q192 31 300 40t222 9q83 0 137.5 -32.5t54.5 -76.5z" />
    <glyph glyph-name="Icircumflex.ss01" horiz-adv-x="921" 
d="M289 1606q-27 0 -45.5 13.5t-24.5 35.5t7 54t46 65q32 32 74.5 95t78.5 90.5t95 27.5q20 0 35.5 -1.5t31.5 -8.5t25.5 -11t24.5 -20t23 -24.5t25.5 -35.5t26.5 -41t33 -53q39 -60 28.5 -114t-68.5 -54q-61 0 -101.5 53t-77.5 170q-47 -117 -104.5 -179t-132.5 -62z
M913 1343q0 -41 -24 -54t-88 -15q-116 -4 -174 -10q26 -56 14 -131q-32 -198 -58.5 -458.5t-31.5 -414.5v-61q14 2 44 5t42 5q78 8 135 -17.5t57 -82.5q0 -36 -22.5 -50.5t-85.5 -31.5q-208 -54 -469 -54q-83 0 -138 31.5t-55 75.5q0 43 26.5 63t86.5 21q94 3 143 8
q-6 27 -6 61q0 109 38 435t75 559q0 2 1 6t1 6q-31 -5 -91.5 -15.5t-80.5 -13.5q-66 -12 -114 22.5t-48 94.5q0 33 25 50t84 26q192 31 300 40t222 9q83 0 137.5 -32.5t54.5 -76.5z" />
    <glyph glyph-name="Idieresis.ss01" horiz-adv-x="921" 
d="M408 1706q-21 -13 -35 -18.5t-34.5 -2.5t-37.5 21q-29 30 -39 80t4 80q9 19 21.5 30.5t31 16t31 5.5t35.5 1q92 0 92 -100q0 -44 -16 -67t-53 -46zM729 1702q-26 -15 -64.5 -6t-66.5 37t-33 63.5t10 61.5q12 24 36.5 36.5t44 14.5t49.5 2q42 0 65 -25.5t23 -70.5
q0 -44 -15 -68.5t-49 -44.5zM913 1343q0 -41 -24 -54t-88 -15q-116 -4 -174 -10q26 -56 14 -131q-32 -198 -58.5 -458.5t-31.5 -414.5v-61q14 2 44 5t42 5q78 8 135 -17.5t57 -82.5q0 -36 -22.5 -50.5t-85.5 -31.5q-208 -54 -469 -54q-83 0 -138 31.5t-55 75.5q0 43 26.5 63
t86.5 21q94 3 143 8q-6 27 -6 61q0 109 38 435t75 559q0 2 1 6t1 6q-31 -5 -91.5 -15.5t-80.5 -13.5q-66 -12 -114 22.5t-48 94.5q0 33 25 50t84 26q192 31 300 40t222 9q83 0 137.5 -32.5t54.5 -76.5z" />
    <glyph glyph-name="Igrave.ss01" horiz-adv-x="921" 
d="M549 1696q-69 35 -157 94.5t-93 93.5q-5 32 8 50t49 44q22 14 45.5 15.5t45 -6.5t52 -28.5t58.5 -42.5t74.5 -56.5t89.5 -63.5q36 -23 36 -57.5t-28 -59.5q-35 -26 -74 -21t-106 38zM913 1343q0 -41 -24 -54t-88 -15q-116 -4 -174 -10q26 -56 14 -131
q-32 -198 -58.5 -458.5t-31.5 -414.5v-61q14 2 44 5t42 5q78 8 135 -17.5t57 -82.5q0 -36 -22.5 -50.5t-85.5 -31.5q-208 -54 -469 -54q-83 0 -138 31.5t-55 75.5q0 43 26.5 63t86.5 21q94 3 143 8q-6 27 -6 61q0 109 38 435t75 559q0 2 1 6t1 6q-31 -5 -91.5 -15.5
t-80.5 -13.5q-66 -12 -114 22.5t-48 94.5q0 33 25 50t84 26q192 31 300 40t222 9q83 0 137.5 -32.5t54.5 -76.5z" />
    <glyph glyph-name="two.ss01" horiz-adv-x="1257" 
d="M1190 217q44 -72 27 -132t-80 -60q-52 0 -91 30.5t-73 96.5q-136 266 -254 366q-93 -228 -221 -387.5t-238 -159.5q-89 0 -137.5 66.5t-48.5 189.5q0 161 64 288t179.5 198.5t262.5 72.5q30 117 30 234q0 71 -29.5 105t-93.5 34q-65 0 -147 -39q-24 -11 -56.5 -9.5
t-60 13.5t-48.5 31.5t-21.5 45t20.5 54.5q45 55 135 79t162 24q358 0 358 -359q0 -121 -38 -264q45 -24 86 -57t76.5 -75.5t61.5 -77t55.5 -86t42.5 -76t38 -72.5q34 -67 39 -74zM307 244q116 137 201 331q-77 -26 -133 -112.5t-66 -198.5q0 -14 -2 -20z" />
    <glyph glyph-name="three.ss01" horiz-adv-x="1179" 
d="M827 893q121 -54 190.5 -145.5t69.5 -217.5q0 -100 -38.5 -183.5t-102 -140t-147 -96t-173.5 -57.5t-182 -18q-65 0 -123 10t-108 30.5t-79.5 57t-29.5 84.5q0 36 23.5 59t67.5 13q133 -31 254 -31q92 0 169 25t125 66.5t74.5 92.5t26.5 105q0 99 -105 164
q-130 -164 -379 -164q-128 0 -202 55.5t-74 147.5q0 91 96 153t285 62q76 0 162 -13q4 24 4 41q0 193 -277 193q-50 0 -110 -6q-63 -9 -108.5 28t-45.5 86q0 33 27 55t76.5 31t91.5 12t100 3q211 0 334 -107.5t123 -275.5q0 -58 -15 -119zM365 725q74 0 147 51q-54 4 -82 4
q-109 0 -139 -30q19 -25 74 -25z" />
    </font>
</defs>
</svg>
